  0
SECTION
  2
HEADER
  9
$ACADVER
  1
AC1009
  9
$INSBASE
 10
0.0
 20
0.0
 30
0.0
  9
$EXTMIN
 10
0.0
 20
0.0
 30
0.0
  9
$EXTMAX
 10
0.0
 20
0.0
 30
0.0
  0
ENDSEC
  0
SECTION
  2
TABLES
  0
TABLE
  2
VPORT
 70
1
  0
VPORT
  2
*ACTIVE
 70
0
 10
0.0
 20
0.0
 11
1.0
 21
1.0
 12
-5.0
 22
1.0
 13
0.0
 23
0.0
 14
0.1
 24
0.1
 15
0.1
 25
0.1
 16
0.0
 26
0.0
 36
1.0
 17
0.0
 27
0.0
 37
0.0
 40
10.0
 41
1.0
 42
50.0
 43
0.0
 44
0.0
 50
0.0
 51
0.0
 71
0
 72
100
 73
1
 74
1
 75
0
 76
0
 77
0
 78
0
  0
ENDTAB
  0
TABLE
  2
LTYPE
 70
8
  0
LTYPE
  2
CONTINUOUS
 70
0
  3
Solid line
 72
65
 73
0
 40
0.0
  0
LTYPE
  2
DOT
 70
0
  3
. . . . . . .
 72
65
 73
2
 40
0.25
 49
0.0
 49
-0.25
  0
LTYPE
  2
DASHED
 70
0
  3
__ __ __ __ __
 72
65
 73
2
 40
0.8
 49
0.5
 49
-0.3
  0
LTYPE
  2
DASHDOT
 70
0
  3
__ . __ . __ .
 72
65
 73
4
 40
1.0
 49
0.5
 49
-0.25
 49
0.0
 49
-0.25
  0
LTYPE
  2
DIVIDE
 70
0
  3
____ . . ____ . . 
 72
65
 73
6
 40
1.25
 49
0.5
 49
-0.25
 49
0.0
 49
-0.25
 49
0.0
 49
-0.25
  0
LTYPE
  2
BORDER
 70
0
  3
__ __ . __ __ . 
 72
65
 73
6
 40
1.75
 49
0.5
 49
-0.25
 49
0.5
 49
-0.25
 49
0.0
 49
-0.25
  0
LTYPE
  2
HIDDEN
 70
0
  3
__ __ __ __ __
 72
65
 73
2
 40
0.4
 49
0.25
 49
-0.25
  0
LTYPE
  2
CENTER
 70
0
  3
____ _ ____ _ __
 72
65
 73
4
 40
2.0
 49
1.25
 49
-0.25
 49
0.25
 49
-0.25
  0
ENDTAB
  0
TABLE
  2
LAYER
 70
1
  0
LAYER
  2
PYDXF
 70
64
 62
7
  6
continuous
  0
ENDTAB
  0
TABLE
  2
STYLE
 70
1
  0
STYLE
  2
STANDARD
 70
0
 40
0
 41
1.0
 50
0.0
 71
0
 42
1
 3
ARIAL.TTF
 4

  0
ENDTAB
  0
TABLE
  2
VIEW
 70
1
  0
VIEW
  2
BF_TOPVIEW
 70
0
 40
120.0
 10
0.0
 20
0.0
 41
200.0
 11
0.0
 21
0.0
 31
1.0
 12
0.0
 22
0.0
 32
0.0
 42
50.0
 43
0.0
 44
0.0
 50
0.0
 71
0
  0
ENDTAB
  0
ENDSEC
  0
SECTION
  2
BLOCKS
  0
ENDSEC
  0
SECTION
  2
ENTITIES
  0
3DFACE
  8
0
 10
2.7038989067077637
 20
-2.1245646476745605
 30
-0.01248911488801241
 11
2.7038989067077637
 21
-2.2006044387817383
 31
-0.01248911488801241
 12
2.7038989067077637
 22
-2.2006044387817383
 32
3.8677191734313965
 13
2.7038989067077637
 23
-2.1245646476745605
 33
3.8677191734313965
  0
3DFACE
  8
0
 10
2.7038989067077637
 20
-2.1245646476745605
 30
3.8677191734313965
 11
2.7615840435028076
 21
-2.1245646476745605
 31
3.8677191734313965
 12
2.7615840435028076
 22
-2.1245646476745605
 32
-0.01248911488801241
 13
2.7038989067077637
 23
-2.1245646476745605
 33
-0.01248911488801241
  0
3DFACE
  8
0
 10
2.7615840435028076
 20
-2.1245646476745605
 30
3.8677191734313965
 11
2.7615840435028076
 21
-2.2006044387817383
 31
3.8677191734313965
 12
2.7615840435028076
 22
-2.2006044387817383
 32
-0.01248911488801241
 13
2.7615840435028076
 23
-2.1245646476745605
 33
-0.01248911488801241
  0
3DFACE
  8
0
 10
2.7038989067077637
 20
-2.2006044387817383
 30
-0.01248911488801241
 11
2.7615840435028076
 21
-2.2006044387817383
 31
-0.01248911488801241
 12
2.7615840435028076
 22
-2.2006044387817383
 32
3.8677191734313965
 13
2.7038989067077637
 23
-2.2006044387817383
 33
3.8677191734313965
  0
3DFACE
  8
0
 10
-2.7038989067077637
 20
-2.2006044387817383
 30
3.8677191734313965
 11
-2.7038989067077637
 21
-2.2006044387817383
 31
-0.01248911488801241
 12
-2.7038989067077637
 22
-2.1245646476745605
 32
-0.01248911488801241
 13
-2.7038989067077637
 23
-2.1245646476745605
 33
3.8677191734313965
  0
3DFACE
  8
0
 10
-2.7038989067077637
 20
-2.1245646476745605
 30
3.8677191734313965
 11
-2.7038989067077637
 21
-2.1245646476745605
 31
-0.01248911488801241
 12
-2.7615840435028076
 22
-2.1245646476745605
 32
-0.01248911488801241
 13
-2.7615840435028076
 23
-2.1245646476745605
 33
3.8677191734313965
  0
3DFACE
  8
0
 10
-2.7615840435028076
 20
-2.1245646476745605
 30
3.8677191734313965
 11
-2.7615840435028076
 21
-2.1245646476745605
 31
-0.01248911488801241
 12
-2.7615840435028076
 22
-2.2006044387817383
 32
-0.01248911488801241
 13
-2.7615840435028076
 23
-2.2006044387817383
 33
3.8677191734313965
  0
3DFACE
  8
0
 10
-2.7615840435028076
 20
-2.2006044387817383
 30
3.8677191734313965
 11
-2.7615840435028076
 21
-2.2006044387817383
 31
-0.01248911488801241
 12
-2.7038989067077637
 22
-2.2006044387817383
 32
-0.01248911488801241
 13
-2.7038989067077637
 23
-2.2006044387817383
 33
3.8677191734313965
  0
3DFACE
  8
0
 10
2.7038989067077637
 20
2.1834139823913574
 30
3.8677191734313965
 11
2.7038989067077637
 21
2.1834139823913574
 31
-0.01248911488801241
 12
2.7038989067077637
 22
2.1073741912841797
 32
-0.01248911488801241
 13
2.7038989067077637
 23
2.1073741912841797
 33
3.8677191734313965
  0
3DFACE
  8
0
 10
2.7038989067077637
 20
2.1073741912841797
 30
3.8677191734313965
 11
2.7038989067077637
 21
2.1073741912841797
 31
-0.01248911488801241
 12
2.7615840435028076
 22
2.1073741912841797
 32
-0.01248911488801241
 13
2.7615840435028076
 23
2.1073741912841797
 33
3.8677191734313965
  0
3DFACE
  8
0
 10
2.7615840435028076
 20
2.1073741912841797
 30
3.8677191734313965
 11
2.7615840435028076
 21
2.1073741912841797
 31
-0.01248911488801241
 12
2.7615840435028076
 22
2.1834139823913574
 32
-0.01248911488801241
 13
2.7615840435028076
 23
2.1834139823913574
 33
3.8677191734313965
  0
3DFACE
  8
0
 10
2.7615840435028076
 20
2.1834139823913574
 30
3.8677191734313965
 11
2.7615840435028076
 21
2.1834139823913574
 31
-0.01248911488801241
 12
2.7038989067077637
 22
2.1834139823913574
 32
-0.01248911488801241
 13
2.7038989067077637
 23
2.1834139823913574
 33
3.8677191734313965
  0
3DFACE
  8
0
 10
-2.7038989067077637
 20
2.1834139823913574
 30
3.8677191734313965
 11
-2.7038989067077637
 21
2.1073741912841797
 31
3.8677191734313965
 12
-2.7038989067077637
 22
2.1073741912841797
 32
-0.01248911488801241
 13
-2.7038989067077637
 23
2.1834139823913574
 33
-0.01248911488801241
  0
3DFACE
  8
0
 10
-2.7038989067077637
 20
2.1073741912841797
 30
3.8677191734313965
 11
-2.7615840435028076
 21
2.1073741912841797
 31
3.8677191734313965
 12
-2.7615840435028076
 22
2.1073741912841797
 32
-0.01248911488801241
 13
-2.7038989067077637
 23
2.1073741912841797
 33
-0.01248911488801241
  0
3DFACE
  8
0
 10
-2.7615840435028076
 20
2.1073741912841797
 30
3.8677191734313965
 11
-2.7615840435028076
 21
2.1834139823913574
 31
3.8677191734313965
 12
-2.7615840435028076
 22
2.1834139823913574
 32
-0.01248911488801241
 13
-2.7615840435028076
 23
2.1073741912841797
 33
-0.01248911488801241
  0
3DFACE
  8
0
 10
-2.7615840435028076
 20
2.1834139823913574
 30
3.8677191734313965
 11
-2.7038989067077637
 21
2.1834139823913574
 31
3.8677191734313965
 12
-2.7038989067077637
 22
2.1834139823913574
 32
-0.01248911488801241
 13
-2.7615840435028076
 23
2.1834139823913574
 33
-0.01248911488801241
  0
3DFACE
  8
0
 10
-2.71107816696167
 20
1.2382113933563232
 30
2.590143918991089
 11
-2.71107816696167
 21
1.2382113933563232
 31
3.323620319366455
 12
-2.71107816696167
 22
1.5602796077728271
 32
3.323620319366455
 13
-2.71107816696167
 23
1.5602796077728271
 33
2.590143918991089
  0
3DFACE
  8
0
 10
-2.7236216068267822
 20
1.1862719058990479
 30
2.548006057739258
 11
-2.7374789714813232
 21
1.2203190326690674
 31
2.5748631954193115
 12
-2.737478733062744
 22
1.578171968460083
 32
2.5748631954193115
 13
-2.723621129989624
 23
1.6122190952301025
 33
2.548006057739258
  0
3DFACE
  8
0
 10
-2.723621129989624
 20
1.6122190952301025
 30
3.3674604892730713
 11
-2.737478733062744
 21
1.578171968460083
 31
3.3389010429382324
 12
-2.737478733062744
 22
1.2203190326690674
 32
3.3389010429382324
 13
-2.723621368408203
 23
1.1862719058990479
 33
3.3674604892730713
  0
3DFACE
  8
0
 10
-2.723621368408203
 20
1.1862719058990479
 30
3.3674604892730713
 11
-2.737478733062744
 21
1.2203190326690674
 31
3.3389010429382324
 12
-2.7374789714813232
 22
1.2203190326690674
 32
2.5748631954193115
 13
-2.7236216068267822
 23
1.1862719058990479
 33
2.548006057739258
  0
3DFACE
  8
0
 10
-2.737478733062744
 20
1.578171968460083
 30
3.3389010429382324
 11
-2.723621129989624
 21
1.6122190952301025
 31
3.3674604892730713
 12
-2.723621129989624
 22
1.6122190952301025
 32
2.548006057739258
 13
-2.737478733062744
 23
1.578171968460083
 33
2.5748631954193115
  0
3DFACE
  8
0
 10
-2.737478733062744
 20
1.578171968460083
 30
2.5748631954193115
 11
-2.71107816696167
 21
1.5602796077728271
 31
2.590143918991089
 12
-2.71107816696167
 22
1.5602796077728271
 32
3.323620319366455
 13
-2.737478733062744
 23
1.578171968460083
 33
3.3389010429382324
  0
3DFACE
  8
0
 10
-2.737478733062744
 20
1.2203190326690674
 30
3.3389010429382324
 11
-2.71107816696167
 21
1.2382113933563232
 31
3.323620319366455
 12
-2.71107816696167
 22
1.2382113933563232
 32
2.590143918991089
 13
-2.7374789714813232
 23
1.2203190326690674
 33
2.5748631954193115
  0
3DFACE
  8
0
 10
-2.737478733062744
 20
1.578171968460083
 30
3.3389010429382324
 11
-2.71107816696167
 21
1.5602796077728271
 31
3.323620319366455
 12
-2.71107816696167
 22
1.2382113933563232
 32
3.323620319366455
 13
-2.737478733062744
 23
1.2203190326690674
 33
3.3389010429382324
  0
3DFACE
  8
0
 10
-2.7374789714813232
 20
1.2203190326690674
 30
2.5748631954193115
 11
-2.71107816696167
 21
1.2382113933563232
 31
2.590143918991089
 12
-2.71107816696167
 22
1.5602796077728271
 32
2.590143918991089
 13
-2.737478733062744
 23
1.578171968460083
 33
2.5748631954193115
  0
3DFACE
  8
0
 10
-2.696821928024292
 20
1.6122190952301025
 30
3.3674604892730713
 11
-2.723621129989624
 21
1.6122190952301025
 31
3.3674604892730713
 12
-2.723621368408203
 22
1.1862719058990479
 32
3.3674604892730713
 13
-2.696821689605713
 23
1.1862719058990479
 33
3.3674604892730713
  0
3DFACE
  8
0
 10
-2.7236216068267822
 20
1.1862719058990479
 30
2.548006057739258
 11
-2.696821689605713
 21
1.1862719058990479
 31
2.548006057739258
 12
-2.696821689605713
 22
1.1862719058990479
 32
3.3674604892730713
 13
-2.723621368408203
 23
1.1862719058990479
 33
3.3674604892730713
  0
3DFACE
  8
0
 10
-2.723621129989624
 20
1.6122190952301025
 30
3.3674604892730713
 11
-2.696821928024292
 21
1.6122190952301025
 31
3.3674604892730713
 12
-2.696821928024292
 22
1.6122190952301025
 32
2.548006057739258
 13
-2.723621129989624
 23
1.6122190952301025
 33
2.548006057739258
  0
3DFACE
  8
0
 10
-2.7841780185699463
 20
1.6761109828948975
 30
2.548006057739258
 11
-2.7741541862487793
 21
1.6660974025726318
 31
2.519446611404419
 12
-2.7741541862487793
 22
1.1323726177215576
 32
2.519446611404419
 13
-2.7841780185699463
 23
1.122380018234253
 33
2.548006057739258
  0
3DFACE
  8
0
 10
-2.7741541862487793
 20
1.6660974025726318
 30
2.519446611404419
 11
-2.696821928024292
 21
1.6660974025726318
 31
2.519446611404419
 12
-2.696821928024292
 22
1.1323726177215576
 32
2.519446611404419
 13
-2.7741541862487793
 23
1.1323726177215576
 33
2.519446611404419
  0
3DFACE
  8
0
 10
-2.7841780185699463
 20
1.122380018234253
 30
2.548006057739258
 11
-2.696821928024292
 21
1.122380018234253
 31
2.548006057739258
 12
-2.696821928024292
 22
1.6761109828948975
 32
2.548006057739258
 13
-2.7841780185699463
 23
1.6761109828948975
 33
2.548006057739258
  0
3DFACE
  8
0
 10
-2.7741541862487793
 20
1.6660974025726318
 30
2.519446611404419
 11
-2.7841780185699463
 21
1.6761109828948975
 31
2.548006057739258
 12
-2.696821928024292
 22
1.6761109828948975
 32
2.548006057739258
 13
-2.696821928024292
 23
1.6660974025726318
 33
2.519446611404419
  0
3DFACE
  8
0
 10
-2.7741541862487793
 20
1.1323726177215576
 30
2.519446611404419
 11
-2.696821928024292
 21
1.1323726177215576
 31
2.519446611404419
 12
-2.696821928024292
 22
1.122380018234253
 32
2.548006057739258
 13
-2.7841780185699463
 23
1.122380018234253
 33
2.548006057739258
  0
3DFACE
  8
0
 10
-2.71107816696167
 20
-1.6402273178100586
 30
2.590143918991089
 11
-2.71107816696167
 21
-1.6402273178100586
 31
3.323620319366455
 12
-2.71107816696167
 22
-1.3181592226028442
 32
3.323620319366455
 13
-2.71107816696167
 23
-1.3181592226028442
 33
2.590143918991089
  0
3DFACE
  8
0
 10
-2.7236216068267822
 20
-1.692166805267334
 30
2.548006057739258
 11
-2.7374789714813232
 21
-1.6581199169158936
 31
2.5748631954193115
 12
-2.737478733062744
 22
-1.3002666234970093
 32
2.5748631954193115
 13
-2.723621129989624
 23
-1.2662196159362793
 33
2.548006057739258
  0
3DFACE
  8
0
 10
-2.723621129989624
 20
-1.2662196159362793
 30
3.3674604892730713
 11
-2.737478733062744
 21
-1.3002666234970093
 31
3.3389010429382324
 12
-2.737478733062744
 22
-1.6581199169158936
 32
3.3389010429382324
 13
-2.723621368408203
 23
-1.692166805267334
 33
3.3674604892730713
  0
3DFACE
  8
0
 10
-2.723621368408203
 20
-1.692166805267334
 30
3.3674604892730713
 11
-2.737478733062744
 21
-1.6581199169158936
 31
3.3389010429382324
 12
-2.7374789714813232
 22
-1.6581199169158936
 32
2.5748631954193115
 13
-2.7236216068267822
 23
-1.692166805267334
 33
2.548006057739258
  0
3DFACE
  8
0
 10
-2.737478733062744
 20
-1.3002666234970093
 30
3.3389010429382324
 11
-2.723621129989624
 21
-1.2662196159362793
 31
3.3674604892730713
 12
-2.723621129989624
 22
-1.2662196159362793
 32
2.548006057739258
 13
-2.737478733062744
 23
-1.3002666234970093
 33
2.5748631954193115
  0
3DFACE
  8
0
 10
-2.737478733062744
 20
-1.3002666234970093
 30
2.5748631954193115
 11
-2.71107816696167
 21
-1.3181592226028442
 31
2.590143918991089
 12
-2.71107816696167
 22
-1.3181592226028442
 32
3.323620319366455
 13
-2.737478733062744
 23
-1.3002666234970093
 33
3.3389010429382324
  0
3DFACE
  8
0
 10
-2.737478733062744
 20
-1.6581199169158936
 30
3.3389010429382324
 11
-2.71107816696167
 21
-1.6402273178100586
 31
3.323620319366455
 12
-2.71107816696167
 22
-1.6402273178100586
 32
2.590143918991089
 13
-2.7374789714813232
 23
-1.6581199169158936
 33
2.5748631954193115
  0
3DFACE
  8
0
 10
-2.737478733062744
 20
-1.3002666234970093
 30
3.3389010429382324
 11
-2.71107816696167
 21
-1.3181592226028442
 31
3.323620319366455
 12
-2.71107816696167
 22
-1.6402273178100586
 32
3.323620319366455
 13
-2.737478733062744
 23
-1.6581199169158936
 33
3.3389010429382324
  0
3DFACE
  8
0
 10
-2.7374789714813232
 20
-1.6581199169158936
 30
2.5748631954193115
 11
-2.71107816696167
 21
-1.6402273178100586
 31
2.590143918991089
 12
-2.71107816696167
 22
-1.3181592226028442
 32
2.590143918991089
 13
-2.737478733062744
 23
-1.3002666234970093
 33
2.5748631954193115
  0
3DFACE
  8
0
 10
-2.696821928024292
 20
-1.2662196159362793
 30
3.3674604892730713
 11
-2.723621129989624
 21
-1.2662196159362793
 31
3.3674604892730713
 12
-2.723621368408203
 22
-1.692166805267334
 32
3.3674604892730713
 13
-2.696821689605713
 23
-1.692166805267334
 33
3.3674604892730713
  0
3DFACE
  8
0
 10
-2.7236216068267822
 20
-1.692166805267334
 30
2.548006057739258
 11
-2.696821689605713
 21
-1.692166805267334
 31
2.548006057739258
 12
-2.696821689605713
 22
-1.692166805267334
 32
3.3674604892730713
 13
-2.723621368408203
 23
-1.692166805267334
 33
3.3674604892730713
  0
3DFACE
  8
0
 10
-2.723621129989624
 20
-1.2662196159362793
 30
3.3674604892730713
 11
-2.696821928024292
 21
-1.2662196159362793
 31
3.3674604892730713
 12
-2.696821928024292
 22
-1.2662196159362793
 32
2.548006057739258
 13
-2.723621129989624
 23
-1.2662196159362793
 33
2.548006057739258
  0
3DFACE
  8
0
 10
-2.7841780185699463
 20
-1.2023274898529053
 30
2.548006057739258
 11
-2.7741541862487793
 21
-1.212341070175171
 31
2.519446611404419
 12
-2.7741541862487793
 22
-1.7460660934448242
 32
2.519446611404419
 13
-2.7841780185699463
 23
-1.756058931350708
 33
2.548006057739258
  0
3DFACE
  8
0
 10
-2.7741541862487793
 20
-1.212341070175171
 30
2.519446611404419
 11
-2.696821928024292
 21
-1.212341070175171
 31
2.519446611404419
 12
-2.696821928024292
 22
-1.7460660934448242
 32
2.519446611404419
 13
-2.7741541862487793
 23
-1.7460660934448242
 33
2.519446611404419
  0
3DFACE
  8
0
 10
-2.7841780185699463
 20
-1.756058931350708
 30
2.548006057739258
 11
-2.696821928024292
 21
-1.756058931350708
 31
2.548006057739258
 12
-2.696821928024292
 22
-1.2023274898529053
 32
2.548006057739258
 13
-2.7841780185699463
 23
-1.2023274898529053
 33
2.548006057739258
  0
3DFACE
  8
0
 10
-2.7741541862487793
 20
-1.212341070175171
 30
2.519446611404419
 11
-2.7841780185699463
 21
-1.2023274898529053
 31
2.548006057739258
 12
-2.696821928024292
 22
-1.2023274898529053
 32
2.548006057739258
 13
-2.696821928024292
 23
-1.212341070175171
 33
2.519446611404419
  0
3DFACE
  8
0
 10
-2.7741541862487793
 20
-1.7460660934448242
 30
2.519446611404419
 11
-2.696821928024292
 21
-1.7460660934448242
 31
2.519446611404419
 12
-2.696821928024292
 22
-1.756058931350708
 32
2.548006057739258
 13
-2.7841780185699463
 23
-1.756058931350708
 33
2.548006057739258
  0
3DFACE
  8
0
 10
2.7184340953826904
 20
1.5602796077728271
 30
2.590143918991089
 11
2.7184340953826904
 21
1.5602796077728271
 31
3.323620319366455
 12
2.7184340953826904
 22
1.2382113933563232
 32
3.323620319366455
 13
2.7184340953826904
 23
1.2382113933563232
 33
2.590143918991089
  0
3DFACE
  8
0
 10
2.7309775352478027
 20
1.6122190952301025
 30
2.548006057739258
 11
2.7448348999023438
 21
1.578171968460083
 31
2.5748631954193115
 12
2.7448346614837646
 22
1.2203190326690674
 32
2.5748631954193115
 13
2.7309770584106445
 23
1.1862719058990479
 33
2.548006057739258
  0
3DFACE
  8
0
 10
2.7309770584106445
 20
1.1862719058990479
 30
3.3674604892730713
 11
2.7448346614837646
 21
1.2203190326690674
 31
3.3389010429382324
 12
2.7448346614837646
 22
1.578171968460083
 32
3.3389010429382324
 13
2.7309772968292236
 23
1.6122190952301025
 33
3.3674604892730713
  0
3DFACE
  8
0
 10
2.7309772968292236
 20
1.6122190952301025
 30
3.3674604892730713
 11
2.7448346614837646
 21
1.578171968460083
 31
3.3389010429382324
 12
2.7448348999023438
 22
1.578171968460083
 32
2.5748631954193115
 13
2.7309775352478027
 23
1.6122190952301025
 33
2.548006057739258
  0
3DFACE
  8
0
 10
2.7448346614837646
 20
1.2203190326690674
 30
3.3389010429382324
 11
2.7309770584106445
 21
1.1862719058990479
 31
3.3674604892730713
 12
2.7309770584106445
 22
1.1862719058990479
 32
2.548006057739258
 13
2.7448346614837646
 23
1.2203190326690674
 33
2.5748631954193115
  0
3DFACE
  8
0
 10
2.7448346614837646
 20
1.2203190326690674
 30
2.5748631954193115
 11
2.7184340953826904
 21
1.2382113933563232
 31
2.590143918991089
 12
2.7184340953826904
 22
1.2382113933563232
 32
3.323620319366455
 13
2.7448346614837646
 23
1.2203190326690674
 33
3.3389010429382324
  0
3DFACE
  8
0
 10
2.7448346614837646
 20
1.578171968460083
 30
3.3389010429382324
 11
2.7184340953826904
 21
1.5602796077728271
 31
3.323620319366455
 12
2.7184340953826904
 22
1.5602796077728271
 32
2.590143918991089
 13
2.7448348999023438
 23
1.578171968460083
 33
2.5748631954193115
  0
3DFACE
  8
0
 10
2.7448346614837646
 20
1.2203190326690674
 30
3.3389010429382324
 11
2.7184340953826904
 21
1.2382113933563232
 31
3.323620319366455
 12
2.7184340953826904
 22
1.5602796077728271
 32
3.323620319366455
 13
2.7448346614837646
 23
1.578171968460083
 33
3.3389010429382324
  0
3DFACE
  8
0
 10
2.7448348999023438
 20
1.578171968460083
 30
2.5748631954193115
 11
2.7184340953826904
 21
1.5602796077728271
 31
2.590143918991089
 12
2.7184340953826904
 22
1.2382113933563232
 32
2.590143918991089
 13
2.7448346614837646
 23
1.2203190326690674
 33
2.5748631954193115
  0
3DFACE
  8
0
 10
2.7041778564453125
 20
1.1862719058990479
 30
3.3674604892730713
 11
2.7309770584106445
 21
1.1862719058990479
 31
3.3674604892730713
 12
2.7309772968292236
 22
1.6122190952301025
 32
3.3674604892730713
 13
2.7041776180267334
 23
1.6122190952301025
 33
3.3674604892730713
  0
3DFACE
  8
0
 10
2.7309775352478027
 20
1.6122190952301025
 30
2.548006057739258
 11
2.7041776180267334
 21
1.6122190952301025
 31
2.548006057739258
 12
2.7041776180267334
 22
1.6122190952301025
 32
3.3674604892730713
 13
2.7309772968292236
 23
1.6122190952301025
 33
3.3674604892730713
  0
3DFACE
  8
0
 10
2.7309770584106445
 20
1.1862719058990479
 30
3.3674604892730713
 11
2.7041778564453125
 21
1.1862719058990479
 31
3.3674604892730713
 12
2.7041778564453125
 22
1.1862719058990479
 32
2.548006057739258
 13
2.7309770584106445
 23
1.1862719058990479
 33
2.548006057739258
  0
3DFACE
  8
0
 10
2.791533946990967
 20
1.122380018234253
 30
2.548006057739258
 11
2.7815101146698
 21
1.1323935985565186
 31
2.519446611404419
 12
2.7815101146698
 22
1.6661183834075928
 32
2.519446611404419
 13
2.791533946990967
 23
1.6761109828948975
 33
2.548006057739258
  0
3DFACE
  8
0
 10
2.7815101146698
 20
1.1323935985565186
 30
2.519446611404419
 11
2.7041778564453125
 21
1.1323935985565186
 31
2.519446611404419
 12
2.7041778564453125
 22
1.6661183834075928
 32
2.519446611404419
 13
2.7815101146698
 23
1.6661183834075928
 33
2.519446611404419
  0
3DFACE
  8
0
 10
2.791533946990967
 20
1.6761109828948975
 30
2.548006057739258
 11
2.7041778564453125
 21
1.6761109828948975
 31
2.548006057739258
 12
2.7041778564453125
 22
1.122380018234253
 32
2.548006057739258
 13
2.791533946990967
 23
1.122380018234253
 33
2.548006057739258
  0
3DFACE
  8
0
 10
2.7815101146698
 20
1.1323935985565186
 30
2.519446611404419
 11
2.791533946990967
 21
1.122380018234253
 31
2.548006057739258
 12
2.7041778564453125
 22
1.122380018234253
 32
2.548006057739258
 13
2.7041778564453125
 23
1.1323935985565186
 33
2.519446611404419
  0
3DFACE
  8
0
 10
2.7815101146698
 20
1.6661183834075928
 30
2.519446611404419
 11
2.7041778564453125
 21
1.6661183834075928
 31
2.519446611404419
 12
2.7041778564453125
 22
1.6761109828948975
 32
2.548006057739258
 13
2.791533946990967
 23
1.6761109828948975
 33
2.548006057739258
  0
3DFACE
  8
0
 10
2.7184340953826904
 20
-1.3181592226028442
 30
2.590143918991089
 11
2.7184340953826904
 21
-1.3181592226028442
 31
3.323620319366455
 12
2.7184340953826904
 22
-1.6402273178100586
 32
3.323620319366455
 13
2.7184340953826904
 23
-1.6402273178100586
 33
2.590143918991089
  0
3DFACE
  8
0
 10
2.7309775352478027
 20
-1.2662196159362793
 30
2.548006057739258
 11
2.7448348999023438
 21
-1.3002666234970093
 31
2.5748631954193115
 12
2.7448346614837646
 22
-1.6581199169158936
 32
2.5748631954193115
 13
2.7309770584106445
 23
-1.692166805267334
 33
2.548006057739258
  0
3DFACE
  8
0
 10
2.7309770584106445
 20
-1.692166805267334
 30
3.3674604892730713
 11
2.7448346614837646
 21
-1.6581199169158936
 31
3.3389010429382324
 12
2.7448346614837646
 22
-1.3002666234970093
 32
3.3389010429382324
 13
2.7309772968292236
 23
-1.2662196159362793
 33
3.3674604892730713
  0
3DFACE
  8
0
 10
2.7309772968292236
 20
-1.2662196159362793
 30
3.3674604892730713
 11
2.7448346614837646
 21
-1.3002666234970093
 31
3.3389010429382324
 12
2.7448348999023438
 22
-1.3002666234970093
 32
2.5748631954193115
 13
2.7309775352478027
 23
-1.2662196159362793
 33
2.548006057739258
  0
3DFACE
  8
0
 10
2.7448346614837646
 20
-1.6581199169158936
 30
3.3389010429382324
 11
2.7309770584106445
 21
-1.692166805267334
 31
3.3674604892730713
 12
2.7309770584106445
 22
-1.692166805267334
 32
2.548006057739258
 13
2.7448346614837646
 23
-1.6581199169158936
 33
2.5748631954193115
  0
3DFACE
  8
0
 10
2.7448346614837646
 20
-1.6581199169158936
 30
2.5748631954193115
 11
2.7184340953826904
 21
-1.6402273178100586
 31
2.590143918991089
 12
2.7184340953826904
 22
-1.6402273178100586
 32
3.323620319366455
 13
2.7448346614837646
 23
-1.6581199169158936
 33
3.3389010429382324
  0
3DFACE
  8
0
 10
2.7448346614837646
 20
-1.3002666234970093
 30
3.3389010429382324
 11
2.7184340953826904
 21
-1.3181592226028442
 31
3.323620319366455
 12
2.7184340953826904
 22
-1.3181592226028442
 32
2.590143918991089
 13
2.7448348999023438
 23
-1.3002666234970093
 33
2.5748631954193115
  0
3DFACE
  8
0
 10
2.7448346614837646
 20
-1.6581199169158936
 30
3.3389010429382324
 11
2.7184340953826904
 21
-1.6402273178100586
 31
3.323620319366455
 12
2.7184340953826904
 22
-1.3181592226028442
 32
3.323620319366455
 13
2.7448346614837646
 23
-1.3002666234970093
 33
3.3389010429382324
  0
3DFACE
  8
0
 10
2.7448348999023438
 20
-1.3002666234970093
 30
2.5748631954193115
 11
2.7184340953826904
 21
-1.3181592226028442
 31
2.590143918991089
 12
2.7184340953826904
 22
-1.6402273178100586
 32
2.590143918991089
 13
2.7448346614837646
 23
-1.6581199169158936
 33
2.5748631954193115
  0
3DFACE
  8
0
 10
2.7041778564453125
 20
-1.692166805267334
 30
3.3674604892730713
 11
2.7309770584106445
 21
-1.692166805267334
 31
3.3674604892730713
 12
2.7309772968292236
 22
-1.2662196159362793
 32
3.3674604892730713
 13
2.7041776180267334
 23
-1.2662196159362793
 33
3.3674604892730713
  0
3DFACE
  8
0
 10
2.7309775352478027
 20
-1.2662196159362793
 30
2.548006057739258
 11
2.7041776180267334
 21
-1.2662196159362793
 31
2.548006057739258
 12
2.7041776180267334
 22
-1.2662196159362793
 32
3.3674604892730713
 13
2.7309772968292236
 23
-1.2662196159362793
 33
3.3674604892730713
  0
3DFACE
  8
0
 10
2.7309770584106445
 20
-1.692166805267334
 30
3.3674604892730713
 11
2.7041778564453125
 21
-1.692166805267334
 31
3.3674604892730713
 12
2.7041778564453125
 22
-1.692166805267334
 32
2.548006057739258
 13
2.7309770584106445
 23
-1.692166805267334
 33
2.548006057739258
  0
3DFACE
  8
0
 10
2.791533946990967
 20
-1.756058931350708
 30
2.548006057739258
 11
2.7815101146698
 21
-1.7460453510284424
 31
2.519446611404419
 12
2.7815101146698
 22
-1.2123204469680786
 32
2.519446611404419
 13
2.791533946990967
 23
-1.2023276090621948
 33
2.548006057739258
  0
3DFACE
  8
0
 10
2.7815101146698
 20
-1.7460453510284424
 30
2.519446611404419
 11
2.7041778564453125
 21
-1.7460453510284424
 31
2.519446611404419
 12
2.7041778564453125
 22
-1.2123204469680786
 32
2.519446611404419
 13
2.7815101146698
 23
-1.2123204469680786
 33
2.519446611404419
  0
3DFACE
  8
0
 10
2.791533946990967
 20
-1.2023276090621948
 30
2.548006057739258
 11
2.7041778564453125
 21
-1.2023276090621948
 31
2.548006057739258
 12
2.7041778564453125
 22
-1.756058931350708
 32
2.548006057739258
 13
2.791533946990967
 23
-1.756058931350708
 33
2.548006057739258
  0
3DFACE
  8
0
 10
2.7815101146698
 20
-1.7460453510284424
 30
2.519446611404419
 11
2.791533946990967
 21
-1.756058931350708
 31
2.548006057739258
 12
2.7041778564453125
 22
-1.756058931350708
 32
2.548006057739258
 13
2.7041778564453125
 23
-1.7460453510284424
 33
2.519446611404419
  0
3DFACE
  8
0
 10
2.7815101146698
 20
-1.2123204469680786
 30
2.519446611404419
 11
2.7041778564453125
 21
-1.2123204469680786
 31
2.519446611404419
 12
2.7041778564453125
 22
-1.2023276090621948
 32
2.548006057739258
 13
2.791533946990967
 23
-1.2023276090621948
 33
2.548006057739258
  0
3DFACE
  8
0
 10
-1.1090338230133057
 20
-2.1670966148376465
 30
0.74322509765625
 11
-1.1090338230133057
 21
-2.1670966148376465
 31
1.4767016172409058
 12
-1.4311017990112305
 22
-2.1670966148376465
 32
1.4767016172409058
 13
-1.4311017990112305
 23
-2.1670966148376465
 33
0.74322509765625
  0
3DFACE
  8
0
 10
-1.0570942163467407
 20
-2.179640054702759
 30
0.701087236404419
 11
-1.0911412239074707
 21
-2.1934974193573
 31
0.7279443740844727
 12
-1.4489943981170654
 22
-2.1934971809387207
 32
0.7279443740844727
 13
-1.4830414056777954
 23
-2.1796395778656006
 33
0.701087236404419
  0
3DFACE
  8
0
 10
-1.4830414056777954
 20
-2.1796395778656006
 30
1.520541787147522
 11
-1.4489943981170654
 21
-2.1934971809387207
 31
1.491982340812683
 12
-1.0911412239074707
 22
-2.1934971809387207
 32
1.491982340812683
 13
-1.0570942163467407
 23
-2.1796398162841797
 33
1.520541787147522
  0
3DFACE
  8
0
 10
-1.0570942163467407
 20
-2.1796398162841797
 30
1.520541787147522
 11
-1.0911412239074707
 21
-2.1934971809387207
 31
1.491982340812683
 12
-1.0911412239074707
 22
-2.1934974193573
 32
0.7279443740844727
 13
-1.0570942163467407
 23
-2.179640054702759
 33
0.701087236404419
  0
3DFACE
  8
0
 10
-1.4489943981170654
 20
-2.1934971809387207
 30
1.491982340812683
 11
-1.4830414056777954
 21
-2.1796395778656006
 31
1.520541787147522
 12
-1.4830414056777954
 22
-2.1796395778656006
 32
0.701087236404419
 13
-1.4489943981170654
 23
-2.1934971809387207
 33
0.7279443740844727
  0
3DFACE
  8
0
 10
-1.4489943981170654
 20
-2.1934971809387207
 30
0.7279443740844727
 11
-1.4311017990112305
 21
-2.1670966148376465
 31
0.74322509765625
 12
-1.4311017990112305
 22
-2.1670966148376465
 32
1.4767016172409058
 13
-1.4489943981170654
 23
-2.1934971809387207
 33
1.491982340812683
  0
3DFACE
  8
0
 10
-1.0911412239074707
 20
-2.1934971809387207
 30
1.491982340812683
 11
-1.1090338230133057
 21
-2.1670966148376465
 31
1.4767016172409058
 12
-1.1090338230133057
 22
-2.1670966148376465
 32
0.74322509765625
 13
-1.0911412239074707
 23
-2.1934974193573
 33
0.7279443740844727
  0
3DFACE
  8
0
 10
-1.4489943981170654
 20
-2.1934971809387207
 30
1.491982340812683
 11
-1.4311017990112305
 21
-2.1670966148376465
 31
1.4767016172409058
 12
-1.1090338230133057
 22
-2.1670966148376465
 32
1.4767016172409058
 13
-1.0911412239074707
 23
-2.1934971809387207
 33
1.491982340812683
  0
3DFACE
  8
0
 10
-1.0911412239074707
 20
-2.1934974193573
 30
0.7279443740844727
 11
-1.1090338230133057
 21
-2.1670966148376465
 31
0.74322509765625
 12
-1.4311017990112305
 22
-2.1670966148376465
 32
0.74322509765625
 13
-1.4489943981170654
 23
-2.1934971809387207
 33
0.7279443740844727
  0
3DFACE
  8
0
 10
-1.4830414056777954
 20
-2.1528403759002686
 30
1.520541787147522
 11
-1.4830414056777954
 21
-2.1796395778656006
 31
1.520541787147522
 12
-1.0570942163467407
 22
-2.1796398162841797
 32
1.520541787147522
 13
-1.0570942163467407
 23
-2.1528403759002686
 33
1.520541787147522
  0
3DFACE
  8
0
 10
-1.0570942163467407
 20
-2.179640054702759
 30
0.701087236404419
 11
-1.0570942163467407
 21
-2.1528403759002686
 31
0.701087236404419
 12
-1.0570942163467407
 22
-2.1528403759002686
 32
1.520541787147522
 13
-1.0570942163467407
 23
-2.1796398162841797
 33
1.520541787147522
  0
3DFACE
  8
0
 10
-1.4830414056777954
 20
-2.1796395778656006
 30
1.520541787147522
 11
-1.4830414056777954
 21
-2.1528403759002686
 31
1.520541787147522
 12
-1.4830414056777954
 22
-2.1528403759002686
 32
0.701087236404419
 13
-1.4830414056777954
 23
-2.1796395778656006
 33
0.701087236404419
  0
3DFACE
  8
0
 10
-1.5469335317611694
 20
-2.240196466445923
 30
0.701087236404419
 11
-1.5369199514389038
 21
-2.230172634124756
 31
0.6725280284881592
 12
-1.00319504737854
 22
-2.230172634124756
 32
0.6725280284881592
 13
-0.9932022094726562
 23
-2.240196466445923
 33
0.701087236404419
  0
3DFACE
  8
0
 10
-1.5369199514389038
 20
-2.230172634124756
 30
0.6725280284881592
 11
-1.5369199514389038
 21
-2.1528403759002686
 31
0.6725280284881592
 12
-1.00319504737854
 22
-2.1528403759002686
 32
0.6725280284881592
 13
-1.00319504737854
 23
-2.230172634124756
 33
0.6725280284881592
  0
3DFACE
  8
0
 10
-0.9932022094726562
 20
-2.240196466445923
 30
0.701087236404419
 11
-0.9932022094726562
 21
-2.1528403759002686
 31
0.701087236404419
 12
-1.5469335317611694
 22
-2.1528403759002686
 32
0.701087236404419
 13
-1.5469335317611694
 23
-2.240196466445923
 33
0.701087236404419
  0
3DFACE
  8
0
 10
-1.5369199514389038
 20
-2.230172634124756
 30
0.6725280284881592
 11
-1.5469335317611694
 21
-2.240196466445923
 31
0.701087236404419
 12
-1.5469335317611694
 22
-2.1528403759002686
 32
0.701087236404419
 13
-1.5369199514389038
 23
-2.1528403759002686
 33
0.6725280284881592
  0
3DFACE
  8
0
 10
-1.00319504737854
 20
-2.230172634124756
 30
0.6725280284881592
 11
-1.00319504737854
 21
-2.1528403759002686
 31
0.6725280284881592
 12
-0.9932022094726562
 22
-2.1528403759002686
 32
0.701087236404419
 13
-0.9932022094726562
 23
-2.240196466445923
 33
0.701087236404419
  0
3DFACE
  8
0
 10
1.4619174003601074
 20
-2.1670966148376465
 30
0.74322509765625
 11
1.4619174003601074
 21
-2.1670966148376465
 31
1.4767016172409058
 12
1.1398494243621826
 22
-2.1670966148376465
 32
1.4767016172409058
 13
1.1398494243621826
 23
-2.1670966148376465
 33
0.74322509765625
  0
3DFACE
  8
0
 10
1.5138570070266724
 20
-2.179640054702759
 30
0.701087236404419
 11
1.479810118675232
 21
-2.1934974193573
 31
0.7279443740844727
 12
1.1219568252563477
 22
-2.1934971809387207
 32
0.7279443740844727
 13
1.0879098176956177
 23
-2.1796395778656006
 33
0.701087236404419
  0
3DFACE
  8
0
 10
1.0879098176956177
 20
-2.1796395778656006
 30
1.520541787147522
 11
1.1219568252563477
 21
-2.1934971809387207
 31
1.491982340812683
 12
1.479810118675232
 22
-2.1934971809387207
 32
1.491982340812683
 13
1.5138570070266724
 23
-2.1796398162841797
 33
1.520541787147522
  0
3DFACE
  8
0
 10
1.5138570070266724
 20
-2.1796398162841797
 30
1.520541787147522
 11
1.479810118675232
 21
-2.1934971809387207
 31
1.491982340812683
 12
1.479810118675232
 22
-2.1934974193573
 32
0.7279443740844727
 13
1.5138570070266724
 23
-2.179640054702759
 33
0.701087236404419
  0
3DFACE
  8
0
 10
1.1219568252563477
 20
-2.1934971809387207
 30
1.491982340812683
 11
1.0879098176956177
 21
-2.1796395778656006
 31
1.520541787147522
 12
1.0879098176956177
 22
-2.1796395778656006
 32
0.701087236404419
 13
1.1219568252563477
 23
-2.1934971809387207
 33
0.7279443740844727
  0
3DFACE
  8
0
 10
1.1219568252563477
 20
-2.1934971809387207
 30
0.7279443740844727
 11
1.1398494243621826
 21
-2.1670966148376465
 31
0.74322509765625
 12
1.1398494243621826
 22
-2.1670966148376465
 32
1.4767016172409058
 13
1.1219568252563477
 23
-2.1934971809387207
 33
1.491982340812683
  0
3DFACE
  8
0
 10
1.479810118675232
 20
-2.1934971809387207
 30
1.491982340812683
 11
1.4619174003601074
 21
-2.1670966148376465
 31
1.4767016172409058
 12
1.4619174003601074
 22
-2.1670966148376465
 32
0.74322509765625
 13
1.479810118675232
 23
-2.1934974193573
 33
0.7279443740844727
  0
3DFACE
  8
0
 10
1.1219568252563477
 20
-2.1934971809387207
 30
1.491982340812683
 11
1.1398494243621826
 21
-2.1670966148376465
 31
1.4767016172409058
 12
1.4619174003601074
 22
-2.1670966148376465
 32
1.4767016172409058
 13
1.479810118675232
 23
-2.1934971809387207
 33
1.491982340812683
  0
3DFACE
  8
0
 10
1.479810118675232
 20
-2.1934974193573
 30
0.7279443740844727
 11
1.4619174003601074
 21
-2.1670966148376465
 31
0.74322509765625
 12
1.1398494243621826
 22
-2.1670966148376465
 32
0.74322509765625
 13
1.1219568252563477
 23
-2.1934971809387207
 33
0.7279443740844727
  0
3DFACE
  8
0
 10
1.0879098176956177
 20
-2.1528403759002686
 30
1.520541787147522
 11
1.0879098176956177
 21
-2.1796395778656006
 31
1.520541787147522
 12
1.5138570070266724
 22
-2.1796398162841797
 32
1.520541787147522
 13
1.5138570070266724
 23
-2.1528403759002686
 33
1.520541787147522
  0
3DFACE
  8
0
 10
1.5138570070266724
 20
-2.179640054702759
 30
0.701087236404419
 11
1.5138570070266724
 21
-2.1528403759002686
 31
0.701087236404419
 12
1.5138570070266724
 22
-2.1528403759002686
 32
1.520541787147522
 13
1.5138570070266724
 23
-2.1796398162841797
 33
1.520541787147522
  0
3DFACE
  8
0
 10
1.0879098176956177
 20
-2.1796395778656006
 30
1.520541787147522
 11
1.0879098176956177
 21
-2.1528403759002686
 31
1.520541787147522
 12
1.0879098176956177
 22
-2.1528403759002686
 32
0.701087236404419
 13
1.0879098176956177
 23
-2.1796395778656006
 33
0.701087236404419
  0
3DFACE
  8
0
 10
1.0240178108215332
 20
-2.240196466445923
 30
0.701087236404419
 11
1.0340313911437988
 21
-2.230172634124756
 31
0.6725280284881592
 12
1.5677562952041626
 22
-2.230172634124756
 32
0.6725280284881592
 13
1.5777491331100464
 23
-2.240196466445923
 33
0.701087236404419
  0
3DFACE
  8
0
 10
1.0340313911437988
 20
-2.230172634124756
 30
0.6725280284881592
 11
1.0340313911437988
 21
-2.1528403759002686
 31
0.6725280284881592
 12
1.5677562952041626
 22
-2.1528403759002686
 32
0.6725280284881592
 13
1.5677562952041626
 23
-2.230172634124756
 33
0.6725280284881592
  0
3DFACE
  8
0
 10
1.5777491331100464
 20
-2.240196466445923
 30
0.701087236404419
 11
1.5777491331100464
 21
-2.1528403759002686
 31
0.701087236404419
 12
1.0240178108215332
 22
-2.1528403759002686
 32
0.701087236404419
 13
1.0240178108215332
 23
-2.240196466445923
 33
0.701087236404419
  0
3DFACE
  8
0
 10
1.0340313911437988
 20
-2.230172634124756
 30
0.6725280284881592
 11
1.0240178108215332
 21
-2.240196466445923
 31
0.701087236404419
 12
1.0240178108215332
 22
-2.1528403759002686
 32
0.701087236404419
 13
1.0340313911437988
 23
-2.1528403759002686
 33
0.6725280284881592
  0
3DFACE
  8
0
 10
1.5677562952041626
 20
-2.230172634124756
 30
0.6725280284881592
 11
1.5677562952041626
 21
-2.1528403759002686
 31
0.6725280284881592
 12
1.5777491331100464
 22
-2.1528403759002686
 32
0.701087236404419
 13
1.5777491331100464
 23
-2.240196466445923
 33
0.701087236404419
  0
3DFACE
  8
0
 10
2.4025094509124756
 20
-2.1670966148376465
 30
0.74322509765625
 11
2.4025094509124756
 21
-2.1670966148376465
 31
1.4767016172409058
 12
2.0804412364959717
 22
-2.1670966148376465
 32
1.4767016172409058
 13
2.0804412364959717
 23
-2.1670966148376465
 33
0.74322509765625
  0
3DFACE
  8
0
 10
2.454448938369751
 20
-2.179640054702759
 30
0.701087236404419
 11
2.4204020500183105
 21
-2.1934974193573
 31
0.7279443740844727
 12
2.062548875808716
 22
-2.1934971809387207
 32
0.7279443740844727
 13
2.0285017490386963
 23
-2.1796395778656006
 33
0.701087236404419
  0
3DFACE
  8
0
 10
2.0285017490386963
 20
-2.1796395778656006
 30
1.520541787147522
 11
2.062548875808716
 21
-2.1934971809387207
 31
1.491982340812683
 12
2.4204020500183105
 22
-2.1934971809387207
 32
1.491982340812683
 13
2.454448938369751
 23
-2.1796398162841797
 33
1.520541787147522
  0
3DFACE
  8
0
 10
2.454448938369751
 20
-2.1796398162841797
 30
1.520541787147522
 11
2.4204020500183105
 21
-2.1934971809387207
 31
1.491982340812683
 12
2.4204020500183105
 22
-2.1934974193573
 32
0.7279443740844727
 13
2.454448938369751
 23
-2.179640054702759
 33
0.701087236404419
  0
3DFACE
  8
0
 10
2.062548875808716
 20
-2.1934971809387207
 30
1.491982340812683
 11
2.0285017490386963
 21
-2.1796395778656006
 31
1.520541787147522
 12
2.0285017490386963
 22
-2.1796395778656006
 32
0.701087236404419
 13
2.062548875808716
 23
-2.1934971809387207
 33
0.7279443740844727
  0
3DFACE
  8
0
 10
2.062548875808716
 20
-2.1934971809387207
 30
0.7279443740844727
 11
2.0804412364959717
 21
-2.1670966148376465
 31
0.74322509765625
 12
2.0804412364959717
 22
-2.1670966148376465
 32
1.4767016172409058
 13
2.062548875808716
 23
-2.1934971809387207
 33
1.491982340812683
  0
3DFACE
  8
0
 10
2.4204020500183105
 20
-2.1934971809387207
 30
1.491982340812683
 11
2.4025094509124756
 21
-2.1670966148376465
 31
1.4767016172409058
 12
2.4025094509124756
 22
-2.1670966148376465
 32
0.74322509765625
 13
2.4204020500183105
 23
-2.1934974193573
 33
0.7279443740844727
  0
3DFACE
  8
0
 10
2.062548875808716
 20
-2.1934971809387207
 30
1.491982340812683
 11
2.0804412364959717
 21
-2.1670966148376465
 31
1.4767016172409058
 12
2.4025094509124756
 22
-2.1670966148376465
 32
1.4767016172409058
 13
2.4204020500183105
 23
-2.1934971809387207
 33
1.491982340812683
  0
3DFACE
  8
0
 10
2.4204020500183105
 20
-2.1934974193573
 30
0.7279443740844727
 11
2.4025094509124756
 21
-2.1670966148376465
 31
0.74322509765625
 12
2.0804412364959717
 22
-2.1670966148376465
 32
0.74322509765625
 13
2.062548875808716
 23
-2.1934971809387207
 33
0.7279443740844727
  0
3DFACE
  8
0
 10
2.0285017490386963
 20
-2.1528403759002686
 30
1.520541787147522
 11
2.0285017490386963
 21
-2.1796395778656006
 31
1.520541787147522
 12
2.454448938369751
 22
-2.1796398162841797
 32
1.520541787147522
 13
2.454448938369751
 23
-2.1528403759002686
 33
1.520541787147522
  0
3DFACE
  8
0
 10
2.454448938369751
 20
-2.179640054702759
 30
0.701087236404419
 11
2.454448938369751
 21
-2.1528403759002686
 31
0.701087236404419
 12
2.454448938369751
 22
-2.1528403759002686
 32
1.520541787147522
 13
2.454448938369751
 23
-2.1796398162841797
 33
1.520541787147522
  0
3DFACE
  8
0
 10
2.0285017490386963
 20
-2.1796395778656006
 30
1.520541787147522
 11
2.0285017490386963
 21
-2.1528403759002686
 31
1.520541787147522
 12
2.0285017490386963
 22
-2.1528403759002686
 32
0.701087236404419
 13
2.0285017490386963
 23
-2.1796395778656006
 33
0.701087236404419
  0
3DFACE
  8
0
 10
1.9646096229553223
 20
-2.240196466445923
 30
0.701087236404419
 11
1.974623203277588
 21
-2.230172634124756
 31
0.6725280284881592
 12
2.508348226547241
 22
-2.230172634124756
 32
0.6725280284881592
 13
2.518341064453125
 23
-2.240196466445923
 33
0.701087236404419
  0
3DFACE
  8
0
 10
1.974623203277588
 20
-2.230172634124756
 30
0.6725280284881592
 11
1.974623203277588
 21
-2.1528403759002686
 31
0.6725280284881592
 12
2.508348226547241
 22
-2.1528403759002686
 32
0.6725280284881592
 13
2.508348226547241
 23
-2.230172634124756
 33
0.6725280284881592
  0
3DFACE
  8
0
 10
2.518341064453125
 20
-2.240196466445923
 30
0.701087236404419
 11
2.518341064453125
 21
-2.1528403759002686
 31
0.701087236404419
 12
1.9646096229553223
 22
-2.1528403759002686
 32
0.701087236404419
 13
1.9646096229553223
 23
-2.240196466445923
 33
0.701087236404419
  0
3DFACE
  8
0
 10
1.974623203277588
 20
-2.230172634124756
 30
0.6725280284881592
 11
1.9646096229553223
 21
-2.240196466445923
 31
0.701087236404419
 12
1.9646096229553223
 22
-2.1528403759002686
 32
0.701087236404419
 13
1.974623203277588
 23
-2.1528403759002686
 33
0.6725280284881592
  0
3DFACE
  8
0
 10
2.508348226547241
 20
-2.230172634124756
 30
0.6725280284881592
 11
2.508348226547241
 21
-2.1528403759002686
 31
0.6725280284881592
 12
2.518341064453125
 22
-2.1528403759002686
 32
0.701087236404419
 13
2.518341064453125
 23
-2.240196466445923
 33
0.701087236404419
  0
3DFACE
  8
0
 10
-2.0548510551452637
 20
-2.1670966148376465
 30
0.74322509765625
 11
-2.0548510551452637
 21
-2.1670966148376465
 31
1.4767016172409058
 12
-2.3769187927246094
 22
-2.1670966148376465
 32
1.4767016172409058
 13
-2.3769187927246094
 23
-2.1670966148376465
 33
0.74322509765625
  0
3DFACE
  8
0
 10
-2.002911329269409
 20
-2.179640054702759
 30
0.701087236404419
 11
-2.0369582176208496
 21
-2.1934974193573
 31
0.7279443740844727
 12
-2.3948116302490234
 22
-2.1934971809387207
 32
0.7279443740844727
 13
-2.428858518600464
 23
-2.1796395778656006
 33
0.701087236404419
  0
3DFACE
  8
0
 10
-2.428858518600464
 20
-2.1796395778656006
 30
1.520541787147522
 11
-2.3948116302490234
 21
-2.1934971809387207
 31
1.491982340812683
 12
-2.0369582176208496
 22
-2.1934971809387207
 32
1.491982340812683
 13
-2.002911329269409
 23
-2.1796398162841797
 33
1.520541787147522
  0
3DFACE
  8
0
 10
-2.002911329269409
 20
-2.1796398162841797
 30
1.520541787147522
 11
-2.0369582176208496
 21
-2.1934971809387207
 31
1.491982340812683
 12
-2.0369582176208496
 22
-2.1934974193573
 32
0.7279443740844727
 13
-2.002911329269409
 23
-2.179640054702759
 33
0.701087236404419
  0
3DFACE
  8
0
 10
-2.3948116302490234
 20
-2.1934971809387207
 30
1.491982340812683
 11
-2.428858518600464
 21
-2.1796395778656006
 31
1.520541787147522
 12
-2.428858518600464
 22
-2.1796395778656006
 32
0.701087236404419
 13
-2.3948116302490234
 23
-2.1934971809387207
 33
0.7279443740844727
  0
3DFACE
  8
0
 10
-2.3948116302490234
 20
-2.1934971809387207
 30
0.7279443740844727
 11
-2.3769187927246094
 21
-2.1670966148376465
 31
0.74322509765625
 12
-2.3769187927246094
 22
-2.1670966148376465
 32
1.4767016172409058
 13
-2.3948116302490234
 23
-2.1934971809387207
 33
1.491982340812683
  0
3DFACE
  8
0
 10
-2.0369582176208496
 20
-2.1934971809387207
 30
1.491982340812683
 11
-2.0548510551452637
 21
-2.1670966148376465
 31
1.4767016172409058
 12
-2.0548510551452637
 22
-2.1670966148376465
 32
0.74322509765625
 13
-2.0369582176208496
 23
-2.1934974193573
 33
0.7279443740844727
  0
3DFACE
  8
0
 10
-2.3948116302490234
 20
-2.1934971809387207
 30
1.491982340812683
 11
-2.3769187927246094
 21
-2.1670966148376465
 31
1.4767016172409058
 12
-2.0548510551452637
 22
-2.1670966148376465
 32
1.4767016172409058
 13
-2.0369582176208496
 23
-2.1934971809387207
 33
1.491982340812683
  0
3DFACE
  8
0
 10
-2.0369582176208496
 20
-2.1934974193573
 30
0.7279443740844727
 11
-2.0548510551452637
 21
-2.1670966148376465
 31
0.74322509765625
 12
-2.3769187927246094
 22
-2.1670966148376465
 32
0.74322509765625
 13
-2.3948116302490234
 23
-2.1934971809387207
 33
0.7279443740844727
  0
3DFACE
  8
0
 10
-2.428858518600464
 20
-2.1528403759002686
 30
1.520541787147522
 11
-2.428858518600464
 21
-2.1796395778656006
 31
1.520541787147522
 12
-2.002911329269409
 22
-2.1796398162841797
 32
1.520541787147522
 13
-2.002911329269409
 23
-2.1528403759002686
 33
1.520541787147522
  0
3DFACE
  8
0
 10
-2.002911329269409
 20
-2.179640054702759
 30
0.701087236404419
 11
-2.002911329269409
 21
-2.1528403759002686
 31
0.701087236404419
 12
-2.002911329269409
 22
-2.1528403759002686
 32
1.520541787147522
 13
-2.002911329269409
 23
-2.1796398162841797
 33
1.520541787147522
  0
3DFACE
  8
0
 10
-2.428858518600464
 20
-2.1796395778656006
 30
1.520541787147522
 11
-2.428858518600464
 21
-2.1528403759002686
 31
1.520541787147522
 12
-2.428858518600464
 22
-2.1528403759002686
 32
0.701087236404419
 13
-2.428858518600464
 23
-2.1796395778656006
 33
0.701087236404419
  0
3DFACE
  8
0
 10
-2.492750644683838
 20
-2.240196466445923
 30
0.701087236404419
 11
-2.4827370643615723
 21
-2.230172634124756
 31
0.6725280284881592
 12
-1.949012041091919
 22
-2.230172634124756
 32
0.6725280284881592
 13
-1.9390192031860352
 23
-2.240196466445923
 33
0.701087236404419
  0
3DFACE
  8
0
 10
-2.4827370643615723
 20
-2.230172634124756
 30
0.6725280284881592
 11
-2.4827370643615723
 21
-2.1528403759002686
 31
0.6725280284881592
 12
-1.949012041091919
 22
-2.1528403759002686
 32
0.6725280284881592
 13
-1.949012041091919
 23
-2.230172634124756
 33
0.6725280284881592
  0
3DFACE
  8
0
 10
-1.9390192031860352
 20
-2.240196466445923
 30
0.701087236404419
 11
-1.9390192031860352
 21
-2.1528403759002686
 31
0.701087236404419
 12
-2.492750644683838
 22
-2.1528403759002686
 32
0.701087236404419
 13
-2.492750644683838
 23
-2.240196466445923
 33
0.701087236404419
  0
3DFACE
  8
0
 10
-2.4827370643615723
 20
-2.230172634124756
 30
0.6725280284881592
 11
-2.492750644683838
 21
-2.240196466445923
 31
0.701087236404419
 12
-2.492750644683838
 22
-2.1528403759002686
 32
0.701087236404419
 13
-2.4827370643615723
 23
-2.1528403759002686
 33
0.6725280284881592
  0
3DFACE
  8
0
 10
-1.949012041091919
 20
-2.230172634124756
 30
0.6725280284881592
 11
-1.949012041091919
 21
-2.1528403759002686
 31
0.6725280284881592
 12
-1.9390192031860352
 22
-2.1528403759002686
 32
0.701087236404419
 13
-1.9390192031860352
 23
-2.240196466445923
 33
0.701087236404419
  0
3DFACE
  8
0
 10
-0.1736675500869751
 20
-3.0120153427124023
 30
4.943436622619629
 11
-0.1736675500869751
 21
-3.0120153427124023
 31
5.676913261413574
 12
-0.4957355260848999
 22
-3.0120153427124023
 32
5.676913261413574
 13
-0.4957355260848999
 23
-3.0120153427124023
 33
4.943436622619629
  0
3DFACE
  8
0
 10
-0.12172794342041016
 20
-3.0245587825775146
 30
4.901298999786377
 11
-0.15577489137649536
 21
-3.0384161472320557
 31
4.928155899047852
 12
-0.5136281847953796
 22
-3.0384159088134766
 32
4.928155899047852
 13
-0.5476751923561096
 23
-3.0245583057403564
 33
4.901298999786377
  0
3DFACE
  8
0
 10
-0.5476751923561096
 20
-3.0245583057403564
 30
5.7207536697387695
 11
-0.5136281847953796
 21
-3.0384159088134766
 31
5.692193984985352
 12
-0.15577489137649536
 22
-3.0384159088134766
 32
5.692193984985352
 13
-0.12172794342041016
 23
-3.0245585441589355
 33
5.7207536697387695
  0
3DFACE
  8
0
 10
-0.12172794342041016
 20
-3.0245585441589355
 30
5.7207536697387695
 11
-0.15577489137649536
 21
-3.0384159088134766
 31
5.692193984985352
 12
-0.15577489137649536
 22
-3.0384161472320557
 32
4.928155899047852
 13
-0.12172794342041016
 23
-3.0245587825775146
 33
4.901298999786377
  0
3DFACE
  8
0
 10
-0.5136281847953796
 20
-3.0384159088134766
 30
5.692193984985352
 11
-0.5476751923561096
 21
-3.0245583057403564
 31
5.7207536697387695
 12
-0.5476751923561096
 22
-3.0245583057403564
 32
4.901298999786377
 13
-0.5136281847953796
 23
-3.0384159088134766
 33
4.928155899047852
  0
3DFACE
  8
0
 10
-0.5136281847953796
 20
-3.0384159088134766
 30
4.928155899047852
 11
-0.4957355260848999
 21
-3.0120153427124023
 31
4.943436622619629
 12
-0.4957355260848999
 22
-3.0120153427124023
 32
5.676913261413574
 13
-0.5136281847953796
 23
-3.0384159088134766
 33
5.692193984985352
  0
3DFACE
  8
0
 10
-0.15577489137649536
 20
-3.0384159088134766
 30
5.692193984985352
 11
-0.1736675500869751
 21
-3.0120153427124023
 31
5.676913261413574
 12
-0.1736675500869751
 22
-3.0120153427124023
 32
4.943436622619629
 13
-0.15577489137649536
 23
-3.0384161472320557
 33
4.928155899047852
  0
3DFACE
  8
0
 10
-0.5136281847953796
 20
-3.0384159088134766
 30
5.692193984985352
 11
-0.4957355260848999
 21
-3.0120153427124023
 31
5.676913261413574
 12
-0.1736675500869751
 22
-3.0120153427124023
 32
5.676913261413574
 13
-0.15577489137649536
 23
-3.0384159088134766
 33
5.692193984985352
  0
3DFACE
  8
0
 10
-0.15577489137649536
 20
-3.0384161472320557
 30
4.928155899047852
 11
-0.1736675500869751
 21
-3.0120153427124023
 31
4.943436622619629
 12
-0.4957355260848999
 22
-3.0120153427124023
 32
4.943436622619629
 13
-0.5136281847953796
 23
-3.0384159088134766
 33
4.928155899047852
  0
3DFACE
  8
0
 10
-0.5476751923561096
 20
-2.9977588653564453
 30
5.7207536697387695
 11
-0.5476751923561096
 21
-3.0245583057403564
 31
5.7207536697387695
 12
-0.12172794342041016
 22
-3.0245585441589355
 32
5.7207536697387695
 13
-0.12172794342041016
 23
-2.9977588653564453
 33
5.7207536697387695
  0
3DFACE
  8
0
 10
-0.12172794342041016
 20
-3.0245587825775146
 30
4.901298999786377
 11
-0.12172794342041016
 21
-2.9977588653564453
 31
4.901298999786377
 12
-0.12172794342041016
 22
-2.9977588653564453
 32
5.7207536697387695
 13
-0.12172794342041016
 23
-3.0245585441589355
 33
5.7207536697387695
  0
3DFACE
  8
0
 10
-0.5476751923561096
 20
-3.0245583057403564
 30
5.7207536697387695
 11
-0.5476751923561096
 21
-2.9977588653564453
 31
5.7207536697387695
 12
-0.5476751923561096
 22
-2.9977588653564453
 32
4.901298999786377
 13
-0.5476751923561096
 23
-3.0245583057403564
 33
4.901298999786377
  0
3DFACE
  8
0
 10
-0.6115672588348389
 20
-3.0851151943206787
 30
4.901298999786377
 11
-0.6015536785125732
 21
-3.0750913619995117
 31
4.872739791870117
 12
-0.06782874464988708
 22
-3.0750913619995117
 32
4.872739791870117
 13
-0.057835906744003296
 23
-3.0851151943206787
 33
4.901298999786377
  0
3DFACE
  8
0
 10
-0.6015536785125732
 20
-3.0750913619995117
 30
4.872739791870117
 11
-0.6015536785125732
 21
-2.9977588653564453
 31
4.872739791870117
 12
-0.06782874464988708
 22
-2.9977591037750244
 32
4.872739791870117
 13
-0.06782874464988708
 23
-3.0750913619995117
 33
4.872739791870117
  0
3DFACE
  8
0
 10
-0.057835906744003296
 20
-3.0851151943206787
 30
4.901298999786377
 11
-0.057835906744003296
 21
-2.9977591037750244
 31
4.901298999786377
 12
-0.6115672588348389
 22
-2.9977588653564453
 32
4.901298999786377
 13
-0.6115672588348389
 23
-3.0851151943206787
 33
4.901298999786377
  0
3DFACE
  8
0
 10
-0.6015536785125732
 20
-3.0750913619995117
 30
4.872739791870117
 11
-0.6115672588348389
 21
-3.0851151943206787
 31
4.901298999786377
 12
-0.6115672588348389
 22
-2.9977588653564453
 32
4.901298999786377
 13
-0.6015536785125732
 23
-2.9977588653564453
 33
4.872739791870117
  0
3DFACE
  8
0
 10
-0.06782874464988708
 20
-3.0750913619995117
 30
4.872739791870117
 11
-0.06782874464988708
 21
-2.9977591037750244
 31
4.872739791870117
 12
-0.057835906744003296
 22
-2.9977591037750244
 32
4.901298999786377
 13
-0.057835906744003296
 23
-3.0851151943206787
 33
4.901298999786377
  0
3DFACE
  8
0
 10
0.574372410774231
 20
-3.0120153427124023
 30
4.943436622619629
 11
0.574372410774231
 21
-3.0120153427124023
 31
5.676913261413574
 12
0.25230443477630615
 22
-3.0120153427124023
 32
5.676913261413574
 13
0.25230443477630615
 23
-3.0120153427124023
 33
4.943436622619629
  0
3DFACE
  8
0
 10
0.6263120174407959
 20
-3.0245587825775146
 30
4.901298999786377
 11
0.5922650098800659
 21
-3.0384161472320557
 31
4.928155899047852
 12
0.23441177606582642
 22
-3.0384159088134766
 32
4.928155899047852
 13
0.20036478340625763
 23
-3.0245583057403564
 33
4.901298999786377
  0
3DFACE
  8
0
 10
0.20036478340625763
 20
-3.0245583057403564
 30
5.7207536697387695
 11
0.23441177606582642
 21
-3.0384159088134766
 31
5.692193984985352
 12
0.5922650098800659
 22
-3.0384159088134766
 32
5.692193984985352
 13
0.6263120174407959
 23
-3.0245585441589355
 33
5.7207536697387695
  0
3DFACE
  8
0
 10
0.6263120174407959
 20
-3.0245585441589355
 30
5.7207536697387695
 11
0.5922650098800659
 21
-3.0384159088134766
 31
5.692193984985352
 12
0.5922650098800659
 22
-3.0384161472320557
 32
4.928155899047852
 13
0.6263120174407959
 23
-3.0245587825775146
 33
4.901298999786377
  0
3DFACE
  8
0
 10
0.23441177606582642
 20
-3.0384159088134766
 30
5.692193984985352
 11
0.20036478340625763
 21
-3.0245583057403564
 31
5.7207536697387695
 12
0.20036478340625763
 22
-3.0245583057403564
 32
4.901298999786377
 13
0.23441177606582642
 23
-3.0384159088134766
 33
4.928155899047852
  0
3DFACE
  8
0
 10
0.23441177606582642
 20
-3.0384159088134766
 30
4.928155899047852
 11
0.25230443477630615
 21
-3.0120153427124023
 31
4.943436622619629
 12
0.25230443477630615
 22
-3.0120153427124023
 32
5.676913261413574
 13
0.23441177606582642
 23
-3.0384159088134766
 33
5.692193984985352
  0
3DFACE
  8
0
 10
0.5922650098800659
 20
-3.0384159088134766
 30
5.692193984985352
 11
0.574372410774231
 21
-3.0120153427124023
 31
5.676913261413574
 12
0.574372410774231
 22
-3.0120153427124023
 32
4.943436622619629
 13
0.5922650098800659
 23
-3.0384161472320557
 33
4.928155899047852
  0
3DFACE
  8
0
 10
0.23441177606582642
 20
-3.0384159088134766
 30
5.692193984985352
 11
0.25230443477630615
 21
-3.0120153427124023
 31
5.676913261413574
 12
0.574372410774231
 22
-3.0120153427124023
 32
5.676913261413574
 13
0.5922650098800659
 23
-3.0384159088134766
 33
5.692193984985352
  0
3DFACE
  8
0
 10
0.5922650098800659
 20
-3.0384161472320557
 30
4.928155899047852
 11
0.574372410774231
 21
-3.0120153427124023
 31
4.943436622619629
 12
0.25230443477630615
 22
-3.0120153427124023
 32
4.943436622619629
 13
0.23441177606582642
 23
-3.0384159088134766
 33
4.928155899047852
  0
3DFACE
  8
0
 10
0.20036478340625763
 20
-2.9977588653564453
 30
5.7207536697387695
 11
0.20036478340625763
 21
-3.0245583057403564
 31
5.7207536697387695
 12
0.6263120174407959
 22
-3.0245585441589355
 32
5.7207536697387695
 13
0.6263120174407959
 23
-2.9977588653564453
 33
5.7207536697387695
  0
3DFACE
  8
0
 10
0.6263120174407959
 20
-3.0245587825775146
 30
4.901298999786377
 11
0.6263120174407959
 21
-2.9977588653564453
 31
4.901298999786377
 12
0.6263120174407959
 22
-2.9977588653564453
 32
5.7207536697387695
 13
0.6263120174407959
 23
-3.0245585441589355
 33
5.7207536697387695
  0
3DFACE
  8
0
 10
0.20036478340625763
 20
-3.0245583057403564
 30
5.7207536697387695
 11
0.20036478340625763
 21
-2.9977588653564453
 31
5.7207536697387695
 12
0.20036478340625763
 22
-2.9977588653564453
 32
4.901298999786377
 13
0.20036478340625763
 23
-3.0245583057403564
 33
4.901298999786377
  0
3DFACE
  8
0
 10
0.1364727020263672
 20
-3.0851151943206787
 30
4.901298999786377
 11
0.1464862823486328
 21
-3.0750913619995117
 31
4.872739791870117
 12
0.6802111864089966
 22
-3.0750913619995117
 32
4.872739791870117
 13
0.6902040243148804
 23
-3.0851151943206787
 33
4.901298999786377
  0
3DFACE
  8
0
 10
0.1464862823486328
 20
-3.0750913619995117
 30
4.872739791870117
 11
0.1464862823486328
 21
-2.9977588653564453
 31
4.872739791870117
 12
0.6802111864089966
 22
-2.9977591037750244
 32
4.872739791870117
 13
0.6802111864089966
 23
-3.0750913619995117
 33
4.872739791870117
  0
3DFACE
  8
0
 10
0.6902040243148804
 20
-3.0851151943206787
 30
4.901298999786377
 11
0.6902040243148804
 21
-2.9977591037750244
 31
4.901298999786377
 12
0.1364727020263672
 22
-2.9977588653564453
 32
4.901298999786377
 13
0.1364727020263672
 23
-3.0851151943206787
 33
4.901298999786377
  0
3DFACE
  8
0
 10
0.1464862823486328
 20
-3.0750913619995117
 30
4.872739791870117
 11
0.1364727020263672
 21
-3.0851151943206787
 31
4.901298999786377
 12
0.1364727020263672
 22
-2.9977588653564453
 32
4.901298999786377
 13
0.1464862823486328
 23
-2.9977588653564453
 33
4.872739791870117
  0
3DFACE
  8
0
 10
0.6802111864089966
 20
-3.0750913619995117
 30
4.872739791870117
 11
0.6802111864089966
 21
-2.9977591037750244
 31
4.872739791870117
 12
0.6902040243148804
 22
-2.9977591037750244
 32
4.901298999786377
 13
0.6902040243148804
 23
-3.0851151943206787
 33
4.901298999786377
  0
3DFACE
  8
0
 10
-2.0548510551452637
 20
-2.1400961875915527
 30
2.596407175064087
 11
-2.0548510551452637
 21
-2.1400961875915527
 31
3.329883575439453
 12
-2.3769187927246094
 22
-2.1400961875915527
 32
3.329883575439453
 13
-2.3769187927246094
 23
-2.1400961875915527
 33
2.596407175064087
  0
3DFACE
  8
0
 10
-2.002911329269409
 20
-2.152639627456665
 30
2.554269313812256
 11
-2.0369582176208496
 21
-2.166496992111206
 31
2.5811264514923096
 12
-2.3948116302490234
 22
-2.166496753692627
 32
2.5811264514923096
 13
-2.428858518600464
 23
-2.152639150619507
 33
2.554269313812256
  0
3DFACE
  8
0
 10
-2.428858518600464
 20
-2.152639150619507
 30
3.3737237453460693
 11
-2.3948116302490234
 21
-2.166496753692627
 31
3.3451642990112305
 12
-2.0369582176208496
 22
-2.166496753692627
 32
3.3451642990112305
 13
-2.002911329269409
 23
-2.152639389038086
 33
3.3737237453460693
  0
3DFACE
  8
0
 10
-2.002911329269409
 20
-2.152639389038086
 30
3.3737237453460693
 11
-2.0369582176208496
 21
-2.166496753692627
 31
3.3451642990112305
 12
-2.0369582176208496
 22
-2.166496992111206
 32
2.5811264514923096
 13
-2.002911329269409
 23
-2.152639627456665
 33
2.554269313812256
  0
3DFACE
  8
0
 10
-2.3948116302490234
 20
-2.166496753692627
 30
3.3451642990112305
 11
-2.428858518600464
 21
-2.152639150619507
 31
3.3737237453460693
 12
-2.428858518600464
 22
-2.152639150619507
 32
2.554269313812256
 13
-2.3948116302490234
 23
-2.166496753692627
 33
2.5811264514923096
  0
3DFACE
  8
0
 10
-2.3948116302490234
 20
-2.166496753692627
 30
2.5811264514923096
 11
-2.3769187927246094
 21
-2.1400961875915527
 31
2.596407175064087
 12
-2.3769187927246094
 22
-2.1400961875915527
 32
3.329883575439453
 13
-2.3948116302490234
 23
-2.166496753692627
 33
3.3451642990112305
  0
3DFACE
  8
0
 10
-2.0369582176208496
 20
-2.166496753692627
 30
3.3451642990112305
 11
-2.0548510551452637
 21
-2.1400961875915527
 31
3.329883575439453
 12
-2.0548510551452637
 22
-2.1400961875915527
 32
2.596407175064087
 13
-2.0369582176208496
 23
-2.166496992111206
 33
2.5811264514923096
  0
3DFACE
  8
0
 10
-2.3948116302490234
 20
-2.166496753692627
 30
3.3451642990112305
 11
-2.3769187927246094
 21
-2.1400961875915527
 31
3.329883575439453
 12
-2.0548510551452637
 22
-2.1400961875915527
 32
3.329883575439453
 13
-2.0369582176208496
 23
-2.166496753692627
 33
3.3451642990112305
  0
3DFACE
  8
0
 10
-2.0369582176208496
 20
-2.166496992111206
 30
2.5811264514923096
 11
-2.0548510551452637
 21
-2.1400961875915527
 31
2.596407175064087
 12
-2.3769187927246094
 22
-2.1400961875915527
 32
2.596407175064087
 13
-2.3948116302490234
 23
-2.166496753692627
 33
2.5811264514923096
  0
3DFACE
  8
0
 10
-2.428858518600464
 20
-2.125839948654175
 30
3.3737237453460693
 11
-2.428858518600464
 21
-2.152639150619507
 31
3.3737237453460693
 12
-2.002911329269409
 22
-2.152639389038086
 32
3.3737237453460693
 13
-2.002911329269409
 23
-2.125839948654175
 33
3.3737237453460693
  0
3DFACE
  8
0
 10
-2.002911329269409
 20
-2.152639627456665
 30
2.554269313812256
 11
-2.002911329269409
 21
-2.125839948654175
 31
2.554269313812256
 12
-2.002911329269409
 22
-2.125839948654175
 32
3.3737237453460693
 13
-2.002911329269409
 23
-2.152639389038086
 33
3.3737237453460693
  0
3DFACE
  8
0
 10
-2.428858518600464
 20
-2.152639150619507
 30
3.3737237453460693
 11
-2.428858518600464
 21
-2.125839948654175
 31
3.3737237453460693
 12
-2.428858518600464
 22
-2.125839948654175
 32
2.554269313812256
 13
-2.428858518600464
 23
-2.152639150619507
 33
2.554269313812256
  0
3DFACE
  8
0
 10
-2.492750644683838
 20
-2.213196039199829
 30
2.554269313812256
 11
-2.4827370643615723
 21
-2.203172206878662
 31
2.525710105895996
 12
-1.949012041091919
 22
-2.203172206878662
 32
2.525710105895996
 13
-1.9390192031860352
 23
-2.213196039199829
 33
2.554269313812256
  0
3DFACE
  8
0
 10
-2.4827370643615723
 20
-2.203172206878662
 30
2.525710105895996
 11
-2.4827370643615723
 21
-2.125839948654175
 31
2.525710105895996
 12
-1.949012041091919
 22
-2.125839948654175
 32
2.525710105895996
 13
-1.949012041091919
 23
-2.203172206878662
 33
2.525710105895996
  0
3DFACE
  8
0
 10
-1.9390192031860352
 20
-2.213196039199829
 30
2.554269313812256
 11
-1.9390192031860352
 21
-2.125839948654175
 31
2.554269313812256
 12
-2.492750644683838
 22
-2.125839948654175
 32
2.554269313812256
 13
-2.492750644683838
 23
-2.213196039199829
 33
2.554269313812256
  0
3DFACE
  8
0
 10
-2.4827370643615723
 20
-2.203172206878662
 30
2.525710105895996
 11
-2.492750644683838
 21
-2.213196039199829
 31
2.554269313812256
 12
-2.492750644683838
 22
-2.125839948654175
 32
2.554269313812256
 13
-2.4827370643615723
 23
-2.125839948654175
 33
2.525710105895996
  0
3DFACE
  8
0
 10
-1.949012041091919
 20
-2.203172206878662
 30
2.525710105895996
 11
-1.949012041091919
 21
-2.125839948654175
 31
2.525710105895996
 12
-1.9390192031860352
 22
-2.125839948654175
 32
2.554269313812256
 13
-1.9390192031860352
 23
-2.213196039199829
 33
2.554269313812256
  0
3DFACE
  8
0
 10
2.4025094509124756
 20
-2.1400961875915527
 30
2.596407175064087
 11
2.4025094509124756
 21
-2.1400961875915527
 31
3.329883575439453
 12
2.0804412364959717
 22
-2.1400961875915527
 32
3.329883575439453
 13
2.0804412364959717
 23
-2.1400961875915527
 33
2.596407175064087
  0
3DFACE
  8
0
 10
2.454448938369751
 20
-2.152639627456665
 30
2.554269313812256
 11
2.4204020500183105
 21
-2.166496992111206
 31
2.5811264514923096
 12
2.062548875808716
 22
-2.166496753692627
 32
2.5811264514923096
 13
2.0285017490386963
 23
-2.152639150619507
 33
2.554269313812256
  0
3DFACE
  8
0
 10
2.0285017490386963
 20
-2.152639150619507
 30
3.3737237453460693
 11
2.062548875808716
 21
-2.166496753692627
 31
3.3451642990112305
 12
2.4204020500183105
 22
-2.166496753692627
 32
3.3451642990112305
 13
2.454448938369751
 23
-2.152639389038086
 33
3.3737237453460693
  0
3DFACE
  8
0
 10
2.454448938369751
 20
-2.152639389038086
 30
3.3737237453460693
 11
2.4204020500183105
 21
-2.166496753692627
 31
3.3451642990112305
 12
2.4204020500183105
 22
-2.166496992111206
 32
2.5811264514923096
 13
2.454448938369751
 23
-2.152639627456665
 33
2.554269313812256
  0
3DFACE
  8
0
 10
2.062548875808716
 20
-2.166496753692627
 30
3.3451642990112305
 11
2.0285017490386963
 21
-2.152639150619507
 31
3.3737237453460693
 12
2.0285017490386963
 22
-2.152639150619507
 32
2.554269313812256
 13
2.062548875808716
 23
-2.166496753692627
 33
2.5811264514923096
  0
3DFACE
  8
0
 10
2.062548875808716
 20
-2.166496753692627
 30
2.5811264514923096
 11
2.0804412364959717
 21
-2.1400961875915527
 31
2.596407175064087
 12
2.0804412364959717
 22
-2.1400961875915527
 32
3.329883575439453
 13
2.062548875808716
 23
-2.166496753692627
 33
3.3451642990112305
  0
3DFACE
  8
0
 10
2.4204020500183105
 20
-2.166496753692627
 30
3.3451642990112305
 11
2.4025094509124756
 21
-2.1400961875915527
 31
3.329883575439453
 12
2.4025094509124756
 22
-2.1400961875915527
 32
2.596407175064087
 13
2.4204020500183105
 23
-2.166496992111206
 33
2.5811264514923096
  0
3DFACE
  8
0
 10
2.062548875808716
 20
-2.166496753692627
 30
3.3451642990112305
 11
2.0804412364959717
 21
-2.1400961875915527
 31
3.329883575439453
 12
2.4025094509124756
 22
-2.1400961875915527
 32
3.329883575439453
 13
2.4204020500183105
 23
-2.166496753692627
 33
3.3451642990112305
  0
3DFACE
  8
0
 10
2.4204020500183105
 20
-2.166496992111206
 30
2.5811264514923096
 11
2.4025094509124756
 21
-2.1400961875915527
 31
2.596407175064087
 12
2.0804412364959717
 22
-2.1400961875915527
 32
2.596407175064087
 13
2.062548875808716
 23
-2.166496753692627
 33
2.5811264514923096
  0
3DFACE
  8
0
 10
2.0285017490386963
 20
-2.125839948654175
 30
3.3737237453460693
 11
2.0285017490386963
 21
-2.152639150619507
 31
3.3737237453460693
 12
2.454448938369751
 22
-2.152639389038086
 32
3.3737237453460693
 13
2.454448938369751
 23
-2.125839948654175
 33
3.3737237453460693
  0
3DFACE
  8
0
 10
2.454448938369751
 20
-2.152639627456665
 30
2.554269313812256
 11
2.454448938369751
 21
-2.125839948654175
 31
2.554269313812256
 12
2.454448938369751
 22
-2.125839948654175
 32
3.3737237453460693
 13
2.454448938369751
 23
-2.152639389038086
 33
3.3737237453460693
  0
3DFACE
  8
0
 10
2.0285017490386963
 20
-2.152639150619507
 30
3.3737237453460693
 11
2.0285017490386963
 21
-2.125839948654175
 31
3.3737237453460693
 12
2.0285017490386963
 22
-2.125839948654175
 32
2.554269313812256
 13
2.0285017490386963
 23
-2.152639150619507
 33
2.554269313812256
  0
3DFACE
  8
0
 10
1.9646096229553223
 20
-2.213196039199829
 30
2.554269313812256
 11
1.974623203277588
 21
-2.203172206878662
 31
2.525710105895996
 12
2.508348226547241
 22
-2.203172206878662
 32
2.525710105895996
 13
2.518341064453125
 23
-2.213196039199829
 33
2.554269313812256
  0
3DFACE
  8
0
 10
1.974623203277588
 20
-2.203172206878662
 30
2.525710105895996
 11
1.974623203277588
 21
-2.125839948654175
 31
2.525710105895996
 12
2.508348226547241
 22
-2.125839948654175
 32
2.525710105895996
 13
2.508348226547241
 23
-2.203172206878662
 33
2.525710105895996
  0
3DFACE
  8
0
 10
2.518341064453125
 20
-2.213196039199829
 30
2.554269313812256
 11
2.518341064453125
 21
-2.125839948654175
 31
2.554269313812256
 12
1.9646096229553223
 22
-2.125839948654175
 32
2.554269313812256
 13
1.9646096229553223
 23
-2.213196039199829
 33
2.554269313812256
  0
3DFACE
  8
0
 10
1.974623203277588
 20
-2.203172206878662
 30
2.525710105895996
 11
1.9646096229553223
 21
-2.213196039199829
 31
2.554269313812256
 12
1.9646096229553223
 22
-2.125839948654175
 32
2.554269313812256
 13
1.974623203277588
 23
-2.125839948654175
 33
2.525710105895996
  0
3DFACE
  8
0
 10
2.508348226547241
 20
-2.203172206878662
 30
2.525710105895996
 11
2.508348226547241
 21
-2.125839948654175
 31
2.525710105895996
 12
2.518341064453125
 22
-2.125839948654175
 32
2.554269313812256
 13
2.518341064453125
 23
-2.213196039199829
 33
2.554269313812256
  0
3DFACE
  8
0
 10
1.4619174003601074
 20
-2.581096649169922
 30
2.596407175064087
 11
1.4619174003601074
 21
-2.581096649169922
 31
3.329883575439453
 12
1.1398494243621826
 22
-2.581096649169922
 32
3.329883575439453
 13
1.1398494243621826
 23
-2.581096649169922
 33
2.596407175064087
  0
3DFACE
  8
0
 10
1.5138570070266724
 20
-2.593640089035034
 30
2.554269313812256
 11
1.479810118675232
 21
-2.607497453689575
 31
2.5811264514923096
 12
1.1219568252563477
 22
-2.607497215270996
 32
2.5811264514923096
 13
1.0879098176956177
 23
-2.593639612197876
 33
2.554269313812256
  0
3DFACE
  8
0
 10
1.0879098176956177
 20
-2.593639612197876
 30
3.3737237453460693
 11
1.1219568252563477
 21
-2.607497215270996
 31
3.3451642990112305
 12
1.479810118675232
 22
-2.607497215270996
 32
3.3451642990112305
 13
1.5138570070266724
 23
-2.593639850616455
 33
3.3737237453460693
  0
3DFACE
  8
0
 10
1.5138570070266724
 20
-2.593639850616455
 30
3.3737237453460693
 11
1.479810118675232
 21
-2.607497215270996
 31
3.3451642990112305
 12
1.479810118675232
 22
-2.607497453689575
 32
2.5811264514923096
 13
1.5138570070266724
 23
-2.593640089035034
 33
2.554269313812256
  0
3DFACE
  8
0
 10
1.1219568252563477
 20
-2.607497215270996
 30
3.3451642990112305
 11
1.0879098176956177
 21
-2.593639612197876
 31
3.3737237453460693
 12
1.0879098176956177
 22
-2.593639612197876
 32
2.554269313812256
 13
1.1219568252563477
 23
-2.607497215270996
 33
2.5811264514923096
  0
3DFACE
  8
0
 10
1.1219568252563477
 20
-2.607497215270996
 30
2.5811264514923096
 11
1.1398494243621826
 21
-2.581096649169922
 31
2.596407175064087
 12
1.1398494243621826
 22
-2.581096649169922
 32
3.329883575439453
 13
1.1219568252563477
 23
-2.607497215270996
 33
3.3451642990112305
  0
3DFACE
  8
0
 10
1.479810118675232
 20
-2.607497215270996
 30
3.3451642990112305
 11
1.4619174003601074
 21
-2.581096649169922
 31
3.329883575439453
 12
1.4619174003601074
 22
-2.581096649169922
 32
2.596407175064087
 13
1.479810118675232
 23
-2.607497453689575
 33
2.5811264514923096
  0
3DFACE
  8
0
 10
1.1219568252563477
 20
-2.607497215270996
 30
3.3451642990112305
 11
1.1398494243621826
 21
-2.581096649169922
 31
3.329883575439453
 12
1.4619174003601074
 22
-2.581096649169922
 32
3.329883575439453
 13
1.479810118675232
 23
-2.607497215270996
 33
3.3451642990112305
  0
3DFACE
  8
0
 10
1.479810118675232
 20
-2.607497453689575
 30
2.5811264514923096
 11
1.4619174003601074
 21
-2.581096649169922
 31
2.596407175064087
 12
1.1398494243621826
 22
-2.581096649169922
 32
2.596407175064087
 13
1.1219568252563477
 23
-2.607497215270996
 33
2.5811264514923096
  0
3DFACE
  8
0
 10
1.0879098176956177
 20
-2.566840171813965
 30
3.3737237453460693
 11
1.0879098176956177
 21
-2.593639612197876
 31
3.3737237453460693
 12
1.5138570070266724
 22
-2.593639850616455
 32
3.3737237453460693
 13
1.5138570070266724
 23
-2.566840171813965
 33
3.3737237453460693
  0
3DFACE
  8
0
 10
1.5138570070266724
 20
-2.593640089035034
 30
2.554269313812256
 11
1.5138570070266724
 21
-2.566840171813965
 31
2.554269313812256
 12
1.5138570070266724
 22
-2.566840171813965
 32
3.3737237453460693
 13
1.5138570070266724
 23
-2.593639850616455
 33
3.3737237453460693
  0
3DFACE
  8
0
 10
1.0879098176956177
 20
-2.593639612197876
 30
3.3737237453460693
 11
1.0879098176956177
 21
-2.566840171813965
 31
3.3737237453460693
 12
1.0879098176956177
 22
-2.566840171813965
 32
2.554269313812256
 13
1.0879098176956177
 23
-2.593639612197876
 33
2.554269313812256
  0
3DFACE
  8
0
 10
1.0240178108215332
 20
-2.6541965007781982
 30
2.554269313812256
 11
1.0340313911437988
 21
-2.6441726684570312
 31
2.525710105895996
 12
1.5677562952041626
 22
-2.6441726684570312
 32
2.525710105895996
 13
1.5777491331100464
 23
-2.6541965007781982
 33
2.554269313812256
  0
3DFACE
  8
0
 10
1.0340313911437988
 20
-2.6441726684570312
 30
2.525710105895996
 11
1.0340313911437988
 21
-2.566840171813965
 31
2.525710105895996
 12
1.5677562952041626
 22
-2.566840410232544
 32
2.525710105895996
 13
1.5677562952041626
 23
-2.6441726684570312
 33
2.525710105895996
  0
3DFACE
  8
0
 10
1.5777491331100464
 20
-2.6541965007781982
 30
2.554269313812256
 11
1.5777491331100464
 21
-2.566840410232544
 31
2.554269313812256
 12
1.0240178108215332
 22
-2.566840171813965
 32
2.554269313812256
 13
1.0240178108215332
 23
-2.6541965007781982
 33
2.554269313812256
  0
3DFACE
  8
0
 10
1.0340313911437988
 20
-2.6441726684570312
 30
2.525710105895996
 11
1.0240178108215332
 21
-2.6541965007781982
 31
2.554269313812256
 12
1.0240178108215332
 22
-2.566840171813965
 32
2.554269313812256
 13
1.0340313911437988
 23
-2.566840171813965
 33
2.525710105895996
  0
3DFACE
  8
0
 10
1.5677562952041626
 20
-2.6441726684570312
 30
2.525710105895996
 11
1.5677562952041626
 21
-2.566840410232544
 31
2.525710105895996
 12
1.5777491331100464
 22
-2.566840410232544
 32
2.554269313812256
 13
1.5777491331100464
 23
-2.6541965007781982
 33
2.554269313812256
  0
3DFACE
  8
0
 10
-1.1090338230133057
 20
-2.581096649169922
 30
2.596407175064087
 11
-1.1090338230133057
 21
-2.581096649169922
 31
3.329883575439453
 12
-1.4311017990112305
 22
-2.581096649169922
 32
3.329883575439453
 13
-1.4311017990112305
 23
-2.581096649169922
 33
2.596407175064087
  0
3DFACE
  8
0
 10
-1.0570942163467407
 20
-2.593640089035034
 30
2.554269313812256
 11
-1.0911412239074707
 21
-2.607497453689575
 31
2.5811264514923096
 12
-1.4489943981170654
 22
-2.607497215270996
 32
2.5811264514923096
 13
-1.4830414056777954
 23
-2.593639612197876
 33
2.554269313812256
  0
3DFACE
  8
0
 10
-1.4830414056777954
 20
-2.593639612197876
 30
3.3737237453460693
 11
-1.4489943981170654
 21
-2.607497215270996
 31
3.3451642990112305
 12
-1.0911412239074707
 22
-2.607497215270996
 32
3.3451642990112305
 13
-1.0570942163467407
 23
-2.593639850616455
 33
3.3737237453460693
  0
3DFACE
  8
0
 10
-1.0570942163467407
 20
-2.593639850616455
 30
3.3737237453460693
 11
-1.0911412239074707
 21
-2.607497215270996
 31
3.3451642990112305
 12
-1.0911412239074707
 22
-2.607497453689575
 32
2.5811264514923096
 13
-1.0570942163467407
 23
-2.593640089035034
 33
2.554269313812256
  0
3DFACE
  8
0
 10
-1.4489943981170654
 20
-2.607497215270996
 30
3.3451642990112305
 11
-1.4830414056777954
 21
-2.593639612197876
 31
3.3737237453460693
 12
-1.4830414056777954
 22
-2.593639612197876
 32
2.554269313812256
 13
-1.4489943981170654
 23
-2.607497215270996
 33
2.5811264514923096
  0
3DFACE
  8
0
 10
-1.4489943981170654
 20
-2.607497215270996
 30
2.5811264514923096
 11
-1.4311017990112305
 21
-2.581096649169922
 31
2.596407175064087
 12
-1.4311017990112305
 22
-2.581096649169922
 32
3.329883575439453
 13
-1.4489943981170654
 23
-2.607497215270996
 33
3.3451642990112305
  0
3DFACE
  8
0
 10
-1.0911412239074707
 20
-2.607497215270996
 30
3.3451642990112305
 11
-1.1090338230133057
 21
-2.581096649169922
 31
3.329883575439453
 12
-1.1090338230133057
 22
-2.581096649169922
 32
2.596407175064087
 13
-1.0911412239074707
 23
-2.607497453689575
 33
2.5811264514923096
  0
3DFACE
  8
0
 10
-1.4489943981170654
 20
-2.607497215270996
 30
3.3451642990112305
 11
-1.4311017990112305
 21
-2.581096649169922
 31
3.329883575439453
 12
-1.1090338230133057
 22
-2.581096649169922
 32
3.329883575439453
 13
-1.0911412239074707
 23
-2.607497215270996
 33
3.3451642990112305
  0
3DFACE
  8
0
 10
-1.0911412239074707
 20
-2.607497453689575
 30
2.5811264514923096
 11
-1.1090338230133057
 21
-2.581096649169922
 31
2.596407175064087
 12
-1.4311017990112305
 22
-2.581096649169922
 32
2.596407175064087
 13
-1.4489943981170654
 23
-2.607497215270996
 33
2.5811264514923096
  0
3DFACE
  8
0
 10
-1.4830414056777954
 20
-2.566840171813965
 30
3.3737237453460693
 11
-1.4830414056777954
 21
-2.593639612197876
 31
3.3737237453460693
 12
-1.0570942163467407
 22
-2.593639850616455
 32
3.3737237453460693
 13
-1.0570942163467407
 23
-2.566840171813965
 33
3.3737237453460693
  0
3DFACE
  8
0
 10
-1.0570942163467407
 20
-2.593640089035034
 30
2.554269313812256
 11
-1.0570942163467407
 21
-2.566840171813965
 31
2.554269313812256
 12
-1.0570942163467407
 22
-2.566840171813965
 32
3.3737237453460693
 13
-1.0570942163467407
 23
-2.593639850616455
 33
3.3737237453460693
  0
3DFACE
  8
0
 10
-1.4830414056777954
 20
-2.593639612197876
 30
3.3737237453460693
 11
-1.4830414056777954
 21
-2.566840171813965
 31
3.3737237453460693
 12
-1.4830414056777954
 22
-2.566840171813965
 32
2.554269313812256
 13
-1.4830414056777954
 23
-2.593639612197876
 33
2.554269313812256
  0
3DFACE
  8
0
 10
-1.5469335317611694
 20
-2.6541965007781982
 30
2.554269313812256
 11
-1.5369199514389038
 21
-2.6441726684570312
 31
2.525710105895996
 12
-1.00319504737854
 22
-2.6441726684570312
 32
2.525710105895996
 13
-0.9932022094726562
 23
-2.6541965007781982
 33
2.554269313812256
  0
3DFACE
  8
0
 10
-1.5369199514389038
 20
-2.6441726684570312
 30
2.525710105895996
 11
-1.5369199514389038
 21
-2.566840171813965
 31
2.525710105895996
 12
-1.00319504737854
 22
-2.566840410232544
 32
2.525710105895996
 13
-1.00319504737854
 23
-2.6441726684570312
 33
2.525710105895996
  0
3DFACE
  8
0
 10
-0.9932022094726562
 20
-2.6541965007781982
 30
2.554269313812256
 11
-0.9932022094726562
 21
-2.566840410232544
 31
2.554269313812256
 12
-1.5469335317611694
 22
-2.566840171813965
 32
2.554269313812256
 13
-1.5469335317611694
 23
-2.6541965007781982
 33
2.554269313812256
  0
3DFACE
  8
0
 10
-1.5369199514389038
 20
-2.6441726684570312
 30
2.525710105895996
 11
-1.5469335317611694
 21
-2.6541965007781982
 31
2.554269313812256
 12
-1.5469335317611694
 22
-2.566840171813965
 32
2.554269313812256
 13
-1.5369199514389038
 23
-2.566840171813965
 33
2.525710105895996
  0
3DFACE
  8
0
 10
-1.00319504737854
 20
-2.6441726684570312
 30
2.525710105895996
 11
-1.00319504737854
 21
-2.566840410232544
 31
2.525710105895996
 12
-0.9932022094726562
 22
-2.566840410232544
 32
2.554269313812256
 13
-0.9932022094726562
 23
-2.6541965007781982
 33
2.554269313812256
  0
3DFACE
  8
0
 10
0.574372410774231
 20
-3.0120155811309814
 30
3.8827991485595703
 11
0.574372410774231
 21
-3.0120155811309814
 31
4.616275787353516
 12
0.25230443477630615
 22
-3.0120155811309814
 32
4.616275787353516
 13
0.25230443477630615
 23
-3.0120155811309814
 33
3.8827991485595703
  0
3DFACE
  8
0
 10
0.6263120174407959
 20
-3.0245590209960938
 30
3.8406615257263184
 11
0.5922650694847107
 21
-3.0384163856506348
 31
3.867518424987793
 12
0.23441177606582642
 22
-3.0384161472320557
 32
3.867518424987793
 13
0.20036478340625763
 23
-3.0245585441589355
 33
3.8406615257263184
  0
3DFACE
  8
0
 10
0.20036478340625763
 20
-3.0245585441589355
 30
4.660115718841553
 11
0.23441177606582642
 21
-3.0384161472320557
 31
4.631556510925293
 12
0.5922650694847107
 22
-3.0384161472320557
 32
4.631556510925293
 13
0.6263120174407959
 23
-3.0245587825775146
 33
4.660115718841553
  0
3DFACE
  8
0
 10
0.6263120174407959
 20
-3.0245587825775146
 30
4.660115718841553
 11
0.5922650694847107
 21
-3.0384161472320557
 31
4.631556510925293
 12
0.5922650694847107
 22
-3.0384163856506348
 32
3.867518424987793
 13
0.6263120174407959
 23
-3.0245590209960938
 33
3.8406615257263184
  0
3DFACE
  8
0
 10
0.23441177606582642
 20
-3.0384161472320557
 30
4.631556510925293
 11
0.20036478340625763
 21
-3.0245585441589355
 31
4.660115718841553
 12
0.20036478340625763
 22
-3.0245585441589355
 32
3.8406615257263184
 13
0.23441177606582642
 23
-3.0384161472320557
 33
3.867518424987793
  0
3DFACE
  8
0
 10
0.23441177606582642
 20
-3.0384161472320557
 30
3.867518424987793
 11
0.25230443477630615
 21
-3.0120155811309814
 31
3.8827991485595703
 12
0.25230443477630615
 22
-3.0120155811309814
 32
4.616275787353516
 13
0.23441177606582642
 23
-3.0384161472320557
 33
4.631556510925293
  0
3DFACE
  8
0
 10
0.5922650694847107
 20
-3.0384161472320557
 30
4.631556510925293
 11
0.574372410774231
 21
-3.0120155811309814
 31
4.616275787353516
 12
0.574372410774231
 22
-3.0120155811309814
 32
3.8827991485595703
 13
0.5922650694847107
 23
-3.0384163856506348
 33
3.867518424987793
  0
3DFACE
  8
0
 10
0.23441177606582642
 20
-3.0384161472320557
 30
4.631556510925293
 11
0.25230443477630615
 21
-3.0120155811309814
 31
4.616275787353516
 12
0.574372410774231
 22
-3.0120155811309814
 32
4.616275787353516
 13
0.5922650694847107
 23
-3.0384161472320557
 33
4.631556510925293
  0
3DFACE
  8
0
 10
0.5922650694847107
 20
-3.0384163856506348
 30
3.867518424987793
 11
0.574372410774231
 21
-3.0120155811309814
 31
3.8827991485595703
 12
0.25230443477630615
 22
-3.0120155811309814
 32
3.8827991485595703
 13
0.23441177606582642
 23
-3.0384161472320557
 33
3.867518424987793
  0
3DFACE
  8
0
 10
0.20036478340625763
 20
-2.9977593421936035
 30
4.660115718841553
 11
0.20036478340625763
 21
-3.0245585441589355
 31
4.660115718841553
 12
0.6263120174407959
 22
-3.0245587825775146
 32
4.660115718841553
 13
0.6263120174407959
 23
-2.9977593421936035
 33
4.660115718841553
  0
3DFACE
  8
0
 10
0.6263120174407959
 20
-3.0245590209960938
 30
3.8406615257263184
 11
0.6263120174407959
 21
-2.9977593421936035
 31
3.8406615257263184
 12
0.6263120174407959
 22
-2.9977593421936035
 32
4.660115718841553
 13
0.6263120174407959
 23
-3.0245587825775146
 33
4.660115718841553
  0
3DFACE
  8
0
 10
0.20036478340625763
 20
-3.0245585441589355
 30
4.660115718841553
 11
0.20036478340625763
 21
-2.9977593421936035
 31
4.660115718841553
 12
0.20036478340625763
 22
-2.9977593421936035
 32
3.8406615257263184
 13
0.20036478340625763
 23
-3.0245585441589355
 33
3.8406615257263184
  0
3DFACE
  8
0
 10
0.1364727020263672
 20
-3.085115432739258
 30
3.8406615257263184
 11
0.1464862823486328
 21
-3.075091600418091
 31
3.8121020793914795
 12
0.6802112460136414
 22
-3.075091600418091
 32
3.8121020793914795
 13
0.6902040839195251
 23
-3.085115432739258
 33
3.8406615257263184
  0
3DFACE
  8
0
 10
0.1464862823486328
 20
-3.075091600418091
 30
3.8121020793914795
 11
0.1464862823486328
 21
-2.9977593421936035
 31
3.8121020793914795
 12
0.6802112460136414
 22
-2.9977593421936035
 32
3.8121020793914795
 13
0.6802112460136414
 23
-3.075091600418091
 33
3.8121020793914795
  0
3DFACE
  8
0
 10
0.6902040839195251
 20
-3.085115432739258
 30
3.8406615257263184
 11
0.6902040839195251
 21
-2.9977593421936035
 31
3.8406615257263184
 12
0.1364727020263672
 22
-2.9977593421936035
 32
3.8406615257263184
 13
0.1364727020263672
 23
-3.085115432739258
 33
3.8406615257263184
  0
3DFACE
  8
0
 10
0.1464862823486328
 20
-3.075091600418091
 30
3.8121020793914795
 11
0.1364727020263672
 21
-3.085115432739258
 31
3.8406615257263184
 12
0.1364727020263672
 22
-2.9977593421936035
 32
3.8406615257263184
 13
0.1464862823486328
 23
-2.9977593421936035
 33
3.8121020793914795
  0
3DFACE
  8
0
 10
0.6802112460136414
 20
-3.075091600418091
 30
3.8121020793914795
 11
0.6802112460136414
 21
-2.9977593421936035
 31
3.8121020793914795
 12
0.6902040839195251
 22
-2.9977593421936035
 32
3.8406615257263184
 13
0.6902040839195251
 23
-3.085115432739258
 33
3.8406615257263184
  0
3DFACE
  8
0
 10
-0.1736675500869751
 20
-3.0120153427124023
 30
3.8827991485595703
 11
-0.1736675500869751
 21
-3.0120153427124023
 31
4.616275787353516
 12
-0.4957355260848999
 22
-3.0120153427124023
 32
4.616275787353516
 13
-0.4957355260848999
 23
-3.0120153427124023
 33
3.8827991485595703
  0
3DFACE
  8
0
 10
-0.12172794342041016
 20
-3.0245587825775146
 30
3.8406615257263184
 11
-0.15577489137649536
 21
-3.0384161472320557
 31
3.867518424987793
 12
-0.5136281847953796
 22
-3.0384159088134766
 32
3.867518424987793
 13
-0.5476751923561096
 23
-3.0245583057403564
 33
3.8406615257263184
  0
3DFACE
  8
0
 10
-0.5476751923561096
 20
-3.0245583057403564
 30
4.660115718841553
 11
-0.5136281847953796
 21
-3.0384159088134766
 31
4.631556510925293
 12
-0.15577489137649536
 22
-3.0384159088134766
 32
4.631556510925293
 13
-0.12172794342041016
 23
-3.0245585441589355
 33
4.660115718841553
  0
3DFACE
  8
0
 10
-0.12172794342041016
 20
-3.0245585441589355
 30
4.660115718841553
 11
-0.15577489137649536
 21
-3.0384159088134766
 31
4.631556510925293
 12
-0.15577489137649536
 22
-3.0384161472320557
 32
3.867518424987793
 13
-0.12172794342041016
 23
-3.0245587825775146
 33
3.8406615257263184
  0
3DFACE
  8
0
 10
-0.5136281847953796
 20
-3.0384159088134766
 30
4.631556510925293
 11
-0.5476751923561096
 21
-3.0245583057403564
 31
4.660115718841553
 12
-0.5476751923561096
 22
-3.0245583057403564
 32
3.8406615257263184
 13
-0.5136281847953796
 23
-3.0384159088134766
 33
3.867518424987793
  0
3DFACE
  8
0
 10
-0.5136281847953796
 20
-3.0384159088134766
 30
3.867518424987793
 11
-0.4957355260848999
 21
-3.0120153427124023
 31
3.8827991485595703
 12
-0.4957355260848999
 22
-3.0120153427124023
 32
4.616275787353516
 13
-0.5136281847953796
 23
-3.0384159088134766
 33
4.631556510925293
  0
3DFACE
  8
0
 10
-0.15577489137649536
 20
-3.0384159088134766
 30
4.631556510925293
 11
-0.1736675500869751
 21
-3.0120153427124023
 31
4.616275787353516
 12
-0.1736675500869751
 22
-3.0120153427124023
 32
3.8827991485595703
 13
-0.15577489137649536
 23
-3.0384161472320557
 33
3.867518424987793
  0
3DFACE
  8
0
 10
-0.5136281847953796
 20
-3.0384159088134766
 30
4.631556510925293
 11
-0.4957355260848999
 21
-3.0120153427124023
 31
4.616275787353516
 12
-0.1736675500869751
 22
-3.0120153427124023
 32
4.616275787353516
 13
-0.15577489137649536
 23
-3.0384159088134766
 33
4.631556510925293
  0
3DFACE
  8
0
 10
-0.15577489137649536
 20
-3.0384161472320557
 30
3.867518424987793
 11
-0.1736675500869751
 21
-3.0120153427124023
 31
3.8827991485595703
 12
-0.4957355260848999
 22
-3.0120153427124023
 32
3.8827991485595703
 13
-0.5136281847953796
 23
-3.0384159088134766
 33
3.867518424987793
  0
3DFACE
  8
0
 10
-0.5476751923561096
 20
-2.9977588653564453
 30
4.660115718841553
 11
-0.5476751923561096
 21
-3.0245583057403564
 31
4.660115718841553
 12
-0.12172794342041016
 22
-3.0245585441589355
 32
4.660115718841553
 13
-0.12172794342041016
 23
-2.9977588653564453
 33
4.660115718841553
  0
3DFACE
  8
0
 10
-0.12172794342041016
 20
-3.0245587825775146
 30
3.8406615257263184
 11
-0.12172794342041016
 21
-2.9977588653564453
 31
3.8406615257263184
 12
-0.12172794342041016
 22
-2.9977588653564453
 32
4.660115718841553
 13
-0.12172794342041016
 23
-3.0245585441589355
 33
4.660115718841553
  0
3DFACE
  8
0
 10
-0.5476751923561096
 20
-3.0245583057403564
 30
4.660115718841553
 11
-0.5476751923561096
 21
-2.9977588653564453
 31
4.660115718841553
 12
-0.5476751923561096
 22
-2.9977588653564453
 32
3.8406615257263184
 13
-0.5476751923561096
 23
-3.0245583057403564
 33
3.8406615257263184
  0
3DFACE
  8
0
 10
-0.6115672588348389
 20
-3.0851151943206787
 30
3.8406615257263184
 11
-0.6015536785125732
 21
-3.0750913619995117
 31
3.8121020793914795
 12
-0.06782874464988708
 22
-3.0750913619995117
 32
3.8121020793914795
 13
-0.057835906744003296
 23
-3.0851151943206787
 33
3.8406615257263184
  0
3DFACE
  8
0
 10
-0.6015536785125732
 20
-3.0750913619995117
 30
3.8121020793914795
 11
-0.6015536785125732
 21
-2.9977588653564453
 31
3.8121020793914795
 12
-0.06782874464988708
 22
-2.9977591037750244
 32
3.8121020793914795
 13
-0.06782874464988708
 23
-3.0750913619995117
 33
3.8121020793914795
  0
3DFACE
  8
0
 10
-0.057835906744003296
 20
-3.0851151943206787
 30
3.8406615257263184
 11
-0.057835906744003296
 21
-2.9977591037750244
 31
3.8406615257263184
 12
-0.6115672588348389
 22
-2.9977588653564453
 32
3.8406615257263184
 13
-0.6115672588348389
 23
-3.0851151943206787
 33
3.8406615257263184
  0
3DFACE
  8
0
 10
-0.6015536785125732
 20
-3.0750913619995117
 30
3.8121020793914795
 11
-0.6115672588348389
 21
-3.0851151943206787
 31
3.8406615257263184
 12
-0.6115672588348389
 22
-2.9977588653564453
 32
3.8406615257263184
 13
-0.6015536785125732
 23
-2.9977588653564453
 33
3.8121020793914795
  0
3DFACE
  8
0
 10
-0.06782874464988708
 20
-3.0750913619995117
 30
3.8121020793914795
 11
-0.06782874464988708
 21
-2.9977591037750244
 31
3.8121020793914795
 12
-0.057835906744003296
 22
-2.9977591037750244
 32
3.8406615257263184
 13
-0.057835906744003296
 23
-3.0851151943206787
 33
3.8406615257263184
  0
3DFACE
  8
0
 10
-0.1736675500869751
 20
-3.0120153427124023
 30
2.596407175064087
 11
-0.1736675500869751
 21
-3.0120153427124023
 31
3.329883575439453
 12
-0.4957355260848999
 22
-3.0120153427124023
 32
3.329883575439453
 13
-0.4957355260848999
 23
-3.0120153427124023
 33
2.596407175064087
  0
3DFACE
  8
0
 10
-0.12172794342041016
 20
-3.0245587825775146
 30
2.554269313812256
 11
-0.15577489137649536
 21
-3.0384161472320557
 31
2.5811264514923096
 12
-0.5136281847953796
 22
-3.0384159088134766
 32
2.5811264514923096
 13
-0.5476751923561096
 23
-3.0245583057403564
 33
2.554269313812256
  0
3DFACE
  8
0
 10
-0.5476751923561096
 20
-3.0245583057403564
 30
3.3737237453460693
 11
-0.5136281847953796
 21
-3.0384159088134766
 31
3.3451642990112305
 12
-0.15577489137649536
 22
-3.0384159088134766
 32
3.3451642990112305
 13
-0.12172794342041016
 23
-3.0245585441589355
 33
3.3737237453460693
  0
3DFACE
  8
0
 10
-0.12172794342041016
 20
-3.0245585441589355
 30
3.3737237453460693
 11
-0.15577489137649536
 21
-3.0384159088134766
 31
3.3451642990112305
 12
-0.15577489137649536
 22
-3.0384161472320557
 32
2.5811264514923096
 13
-0.12172794342041016
 23
-3.0245587825775146
 33
2.554269313812256
  0
3DFACE
  8
0
 10
-0.5136281847953796
 20
-3.0384159088134766
 30
3.3451642990112305
 11
-0.5476751923561096
 21
-3.0245583057403564
 31
3.3737237453460693
 12
-0.5476751923561096
 22
-3.0245583057403564
 32
2.554269313812256
 13
-0.5136281847953796
 23
-3.0384159088134766
 33
2.5811264514923096
  0
3DFACE
  8
0
 10
-0.5136281847953796
 20
-3.0384159088134766
 30
2.5811264514923096
 11
-0.4957355260848999
 21
-3.0120153427124023
 31
2.596407175064087
 12
-0.4957355260848999
 22
-3.0120153427124023
 32
3.329883575439453
 13
-0.5136281847953796
 23
-3.0384159088134766
 33
3.3451642990112305
  0
3DFACE
  8
0
 10
-0.15577489137649536
 20
-3.0384159088134766
 30
3.3451642990112305
 11
-0.1736675500869751
 21
-3.0120153427124023
 31
3.329883575439453
 12
-0.1736675500869751
 22
-3.0120153427124023
 32
2.596407175064087
 13
-0.15577489137649536
 23
-3.0384161472320557
 33
2.5811264514923096
  0
3DFACE
  8
0
 10
-0.5136281847953796
 20
-3.0384159088134766
 30
3.3451642990112305
 11
-0.4957355260848999
 21
-3.0120153427124023
 31
3.329883575439453
 12
-0.1736675500869751
 22
-3.0120153427124023
 32
3.329883575439453
 13
-0.15577489137649536
 23
-3.0384159088134766
 33
3.3451642990112305
  0
3DFACE
  8
0
 10
-0.15577489137649536
 20
-3.0384161472320557
 30
2.5811264514923096
 11
-0.1736675500869751
 21
-3.0120153427124023
 31
2.596407175064087
 12
-0.4957355260848999
 22
-3.0120153427124023
 32
2.596407175064087
 13
-0.5136281847953796
 23
-3.0384159088134766
 33
2.5811264514923096
  0
3DFACE
  8
0
 10
-0.5476751923561096
 20
-2.9977588653564453
 30
3.3737237453460693
 11
-0.5476751923561096
 21
-3.0245583057403564
 31
3.3737237453460693
 12
-0.12172794342041016
 22
-3.0245585441589355
 32
3.3737237453460693
 13
-0.12172794342041016
 23
-2.9977588653564453
 33
3.3737237453460693
  0
3DFACE
  8
0
 10
-0.12172794342041016
 20
-3.0245587825775146
 30
2.554269313812256
 11
-0.12172794342041016
 21
-2.9977588653564453
 31
2.554269313812256
 12
-0.12172794342041016
 22
-2.9977588653564453
 32
3.3737237453460693
 13
-0.12172794342041016
 23
-3.0245585441589355
 33
3.3737237453460693
  0
3DFACE
  8
0
 10
-0.5476751923561096
 20
-3.0245583057403564
 30
3.3737237453460693
 11
-0.5476751923561096
 21
-2.9977588653564453
 31
3.3737237453460693
 12
-0.5476751923561096
 22
-2.9977588653564453
 32
2.554269313812256
 13
-0.5476751923561096
 23
-3.0245583057403564
 33
2.554269313812256
  0
3DFACE
  8
0
 10
-0.6115672588348389
 20
-3.0851151943206787
 30
2.554269313812256
 11
-0.6015536785125732
 21
-3.0750913619995117
 31
2.525710105895996
 12
-0.06782874464988708
 22
-3.0750913619995117
 32
2.525710105895996
 13
-0.057835906744003296
 23
-3.0851151943206787
 33
2.554269313812256
  0
3DFACE
  8
0
 10
-0.6015536785125732
 20
-3.0750913619995117
 30
2.525710105895996
 11
-0.6015536785125732
 21
-2.9977588653564453
 31
2.525710105895996
 12
-0.06782874464988708
 22
-2.9977591037750244
 32
2.525710105895996
 13
-0.06782874464988708
 23
-3.0750913619995117
 33
2.525710105895996
  0
3DFACE
  8
0
 10
-0.057835906744003296
 20
-3.0851151943206787
 30
2.554269313812256
 11
-0.057835906744003296
 21
-2.9977591037750244
 31
2.554269313812256
 12
-0.6115672588348389
 22
-2.9977588653564453
 32
2.554269313812256
 13
-0.6115672588348389
 23
-3.0851151943206787
 33
2.554269313812256
  0
3DFACE
  8
0
 10
-0.6015536785125732
 20
-3.0750913619995117
 30
2.525710105895996
 11
-0.6115672588348389
 21
-3.0851151943206787
 31
2.554269313812256
 12
-0.6115672588348389
 22
-2.9977588653564453
 32
2.554269313812256
 13
-0.6015536785125732
 23
-2.9977588653564453
 33
2.525710105895996
  0
3DFACE
  8
0
 10
-0.06782874464988708
 20
-3.0750913619995117
 30
2.525710105895996
 11
-0.06782874464988708
 21
-2.9977591037750244
 31
2.525710105895996
 12
-0.057835906744003296
 22
-2.9977591037750244
 32
2.554269313812256
 13
-0.057835906744003296
 23
-3.0851151943206787
 33
2.554269313812256
  0
3DFACE
  8
0
 10
0.574372410774231
 20
-3.0120153427124023
 30
2.596407175064087
 11
0.574372410774231
 21
-3.0120153427124023
 31
3.329883575439453
 12
0.25230443477630615
 22
-3.0120153427124023
 32
3.329883575439453
 13
0.25230443477630615
 23
-3.0120153427124023
 33
2.596407175064087
  0
3DFACE
  8
0
 10
0.6263120174407959
 20
-3.0245587825775146
 30
2.554269313812256
 11
0.5922650098800659
 21
-3.0384161472320557
 31
2.5811264514923096
 12
0.23441177606582642
 22
-3.0384159088134766
 32
2.5811264514923096
 13
0.20036478340625763
 23
-3.0245583057403564
 33
2.554269313812256
  0
3DFACE
  8
0
 10
0.20036478340625763
 20
-3.0245583057403564
 30
3.3737237453460693
 11
0.23441177606582642
 21
-3.0384159088134766
 31
3.3451642990112305
 12
0.5922650098800659
 22
-3.0384159088134766
 32
3.3451642990112305
 13
0.6263120174407959
 23
-3.0245585441589355
 33
3.3737237453460693
  0
3DFACE
  8
0
 10
0.6263120174407959
 20
-3.0245585441589355
 30
3.3737237453460693
 11
0.5922650098800659
 21
-3.0384159088134766
 31
3.3451642990112305
 12
0.5922650098800659
 22
-3.0384161472320557
 32
2.5811264514923096
 13
0.6263120174407959
 23
-3.0245587825775146
 33
2.554269313812256
  0
3DFACE
  8
0
 10
0.23441177606582642
 20
-3.0384159088134766
 30
3.3451642990112305
 11
0.20036478340625763
 21
-3.0245583057403564
 31
3.3737237453460693
 12
0.20036478340625763
 22
-3.0245583057403564
 32
2.554269313812256
 13
0.23441177606582642
 23
-3.0384159088134766
 33
2.5811264514923096
  0
3DFACE
  8
0
 10
0.23441177606582642
 20
-3.0384159088134766
 30
2.5811264514923096
 11
0.25230443477630615
 21
-3.0120153427124023
 31
2.596407175064087
 12
0.25230443477630615
 22
-3.0120153427124023
 32
3.329883575439453
 13
0.23441177606582642
 23
-3.0384159088134766
 33
3.3451642990112305
  0
3DFACE
  8
0
 10
0.5922650098800659
 20
-3.0384159088134766
 30
3.3451642990112305
 11
0.574372410774231
 21
-3.0120153427124023
 31
3.329883575439453
 12
0.574372410774231
 22
-3.0120153427124023
 32
2.596407175064087
 13
0.5922650098800659
 23
-3.0384161472320557
 33
2.5811264514923096
  0
3DFACE
  8
0
 10
0.23441177606582642
 20
-3.0384159088134766
 30
3.3451642990112305
 11
0.25230443477630615
 21
-3.0120153427124023
 31
3.329883575439453
 12
0.574372410774231
 22
-3.0120153427124023
 32
3.329883575439453
 13
0.5922650098800659
 23
-3.0384159088134766
 33
3.3451642990112305
  0
3DFACE
  8
0
 10
0.5922650098800659
 20
-3.0384161472320557
 30
2.5811264514923096
 11
0.574372410774231
 21
-3.0120153427124023
 31
2.596407175064087
 12
0.25230443477630615
 22
-3.0120153427124023
 32
2.596407175064087
 13
0.23441177606582642
 23
-3.0384159088134766
 33
2.5811264514923096
  0
3DFACE
  8
0
 10
0.20036478340625763
 20
-2.9977588653564453
 30
3.3737237453460693
 11
0.20036478340625763
 21
-3.0245583057403564
 31
3.3737237453460693
 12
0.6263120174407959
 22
-3.0245585441589355
 32
3.3737237453460693
 13
0.6263120174407959
 23
-2.9977588653564453
 33
3.3737237453460693
  0
3DFACE
  8
0
 10
0.6263120174407959
 20
-3.0245587825775146
 30
2.554269313812256
 11
0.6263120174407959
 21
-2.9977588653564453
 31
2.554269313812256
 12
0.6263120174407959
 22
-2.9977588653564453
 32
3.3737237453460693
 13
0.6263120174407959
 23
-3.0245585441589355
 33
3.3737237453460693
  0
3DFACE
  8
0
 10
0.20036478340625763
 20
-3.0245583057403564
 30
3.3737237453460693
 11
0.20036478340625763
 21
-2.9977588653564453
 31
3.3737237453460693
 12
0.20036478340625763
 22
-2.9977588653564453
 32
2.554269313812256
 13
0.20036478340625763
 23
-3.0245583057403564
 33
2.554269313812256
  0
3DFACE
  8
0
 10
0.1364727020263672
 20
-3.0851151943206787
 30
2.554269313812256
 11
0.1464862823486328
 21
-3.0750913619995117
 31
2.525710105895996
 12
0.6802111864089966
 22
-3.0750913619995117
 32
2.525710105895996
 13
0.6902040243148804
 23
-3.0851151943206787
 33
2.554269313812256
  0
3DFACE
  8
0
 10
0.1464862823486328
 20
-3.0750913619995117
 30
2.525710105895996
 11
0.1464862823486328
 21
-2.9977588653564453
 31
2.525710105895996
 12
0.6802111864089966
 22
-2.9977591037750244
 32
2.525710105895996
 13
0.6802111864089966
 23
-3.0750913619995117
 33
2.525710105895996
  0
3DFACE
  8
0
 10
0.6902040243148804
 20
-3.0851151943206787
 30
2.554269313812256
 11
0.6902040243148804
 21
-2.9977591037750244
 31
2.554269313812256
 12
0.1364727020263672
 22
-2.9977588653564453
 32
2.554269313812256
 13
0.1364727020263672
 23
-3.0851151943206787
 33
2.554269313812256
  0
3DFACE
  8
0
 10
0.1464862823486328
 20
-3.0750913619995117
 30
2.525710105895996
 11
0.1364727020263672
 21
-3.0851151943206787
 31
2.554269313812256
 12
0.1364727020263672
 22
-2.9977588653564453
 32
2.554269313812256
 13
0.1464862823486328
 23
-2.9977588653564453
 33
2.525710105895996
  0
3DFACE
  8
0
 10
0.6802111864089966
 20
-3.0750913619995117
 30
2.525710105895996
 11
0.6802111864089966
 21
-2.9977591037750244
 31
2.525710105895996
 12
0.6902040243148804
 22
-2.9977591037750244
 32
2.554269313812256
 13
0.6902040243148804
 23
-3.0851151943206787
 33
2.554269313812256
  0
3DFACE
  8
0
 10
1.4743292331695557
 20
-0.8528169393539429
 30
5.2942070960998535
 11
1.4743293523788452
 21
-0.8528170585632324
 31
6.118736267089844
 12
1.4743292331695557
 22
-1.1417429447174072
 32
6.118736267089844
 13
1.4743292331695557
 23
-1.1417429447174072
 33
5.2942070960998535
  0
3DFACE
  8
0
 10
1.4743292331695557
 20
-1.1417429447174072
 30
5.2942070960998535
 11
1.4743292331695557
 21
-1.1417429447174072
 31
6.118736267089844
 12
1.1854032278060913
 22
-1.1417429447174072
 32
6.118736267089844
 13
1.1854033470153809
 23
-1.1417428255081177
 33
5.597750663757324
  0
3DFACE
  8
0
 10
1.1854033470153809
 20
-1.1417428255081177
 30
5.597750663757324
 11
1.1854032278060913
 21
-1.1417429447174072
 31
6.118736267089844
 12
1.1854033470153809
 22
-0.8528169393539429
 32
6.118736267089844
 13
1.1854033470153809
 23
-0.8528168797492981
 33
5.597750663757324
  0
3DFACE
  8
0
 10
1.4743293523788452
 20
-0.8528170585632324
 30
6.118736267089844
 11
1.4743292331695557
 21
-0.8528169393539429
 31
5.2942070960998535
 12
1.1854033470153809
 22
-0.8528168797492981
 32
5.597750663757324
 13
1.1854033470153809
 23
-0.8528169393539429
 33
6.118736267089844
  0
3DFACE
  8
0
 10
1.4743293523788452
 20
-0.8528170585632324
 30
6.118736267089844
 11
1.1854033470153809
 21
-0.8528169393539429
 31
6.118736267089844
 12
1.1402020454406738
 22
-0.8076156377792358
 32
6.358613014221191
 13
1.5195306539535522
 23
-0.8076157569885254
 33
6.358613014221191
  0
3DFACE
  8
0
 10
1.1854033470153809
 20
-0.8528169393539429
 30
6.118736267089844
 11
1.1854032278060913
 21
-1.1417429447174072
 31
6.118736267089844
 12
1.1402019262313843
 22
-1.1869442462921143
 32
6.358613014221191
 13
1.1402020454406738
 23
-0.8076156377792358
 33
6.358613014221191
  0
3DFACE
  8
0
 10
1.1854032278060913
 20
-1.1417429447174072
 30
6.118736267089844
 11
1.4743292331695557
 21
-1.1417429447174072
 31
6.118736267089844
 12
1.5195304155349731
 22
-1.1869442462921143
 32
6.358613014221191
 13
1.1402019262313843
 23
-1.1869442462921143
 33
6.358613014221191
  0
3DFACE
  8
0
 10
1.4743292331695557
 20
-1.1417429447174072
 30
6.118736267089844
 11
1.4743293523788452
 21
-0.8528170585632324
 31
6.118736267089844
 12
1.5195306539535522
 22
-0.8076157569885254
 32
6.358613014221191
 13
1.5195304155349731
 23
-1.1869442462921143
 33
6.358613014221191
  0
3DFACE
  8
0
 10
1.5195304155349731
 20
-1.1869442462921143
 30
6.358613014221191
 11
1.5195306539535522
 21
-0.8076157569885254
 31
6.358613014221191
 12
1.5195306539535522
 22
-0.8076157569885254
 32
6.431476593017578
 13
1.5195304155349731
 23
-1.1869442462921143
 33
6.431476593017578
  0
3DFACE
  8
0
 10
1.1402019262313843
 20
-1.1869442462921143
 30
6.358613014221191
 11
1.5195304155349731
 21
-1.1869442462921143
 31
6.358613014221191
 12
1.5195304155349731
 22
-1.1869442462921143
 32
6.431476593017578
 13
1.1402019262313843
 23
-1.1869442462921143
 33
6.431476593017578
  0
3DFACE
  8
0
 10
1.1402020454406738
 20
-0.8076156377792358
 30
6.358613014221191
 11
1.1402019262313843
 21
-1.1869442462921143
 31
6.358613014221191
 12
1.1402019262313843
 22
-1.1869442462921143
 32
6.431476593017578
 13
1.1402020454406738
 23
-0.8076156377792358
 33
6.431476593017578
  0
3DFACE
  8
0
 10
1.5195306539535522
 20
-0.8076157569885254
 30
6.358613014221191
 11
1.1402020454406738
 21
-0.8076156377792358
 31
6.358613014221191
 12
1.1402020454406738
 22
-0.8076156377792358
 32
6.431476593017578
 13
1.5195306539535522
 23
-0.8076157569885254
 33
6.431476593017578
  0
3DFACE
  8
0
 10
1.5195306539535522
 20
-0.8076157569885254
 30
6.431476593017578
 11
1.1402020454406738
 21
-0.8076156377792358
 31
6.431476593017578
 12
1.2269740104675293
 22
-0.8943877220153809
 32
6.431476593017578
 13
1.4327585697174072
 23
-0.8943877816200256
 33
6.431476593017578
  0
3DFACE
  8
0
 10
1.1402020454406738
 20
-0.8076156377792358
 30
6.431476593017578
 11
1.1402019262313843
 21
-1.1869442462921143
 31
6.431476593017578
 12
1.2269740104675293
 22
-1.1001720428466797
 32
6.431476593017578
 13
1.2269740104675293
 23
-0.8943877220153809
 33
6.431476593017578
  0
3DFACE
  8
0
 10
1.1402019262313843
 20
-1.1869442462921143
 30
6.431476593017578
 11
1.5195304155349731
 21
-1.1869442462921143
 31
6.431476593017578
 12
1.4327584505081177
 22
-1.1001722812652588
 32
6.431476593017578
 13
1.2269740104675293
 23
-1.1001720428466797
 33
6.431476593017578
  0
3DFACE
  8
0
 10
1.5195304155349731
 20
-1.1869442462921143
 30
6.431476593017578
 11
1.5195306539535522
 21
-0.8076157569885254
 31
6.431476593017578
 12
1.4327585697174072
 22
-0.8943877816200256
 32
6.431476593017578
 13
1.4327584505081177
 23
-1.1001722812652588
 33
6.431476593017578
  0
3DFACE
  8
0
 10
1.4327584505081177
 20
-1.1001722812652588
 30
6.431476593017578
 11
1.4327585697174072
 21
-0.8943877816200256
 31
6.431476593017578
 12
1.4327585697174072
 22
-0.8943877816200256
 32
5.341704368591309
 13
1.4327584505081177
 23
-1.1001722812652588
 33
5.341704368591309
  0
3DFACE
  8
0
 10
1.2269740104675293
 20
-1.1001720428466797
 30
6.431476593017578
 11
1.4327584505081177
 21
-1.1001722812652588
 31
6.431476593017578
 12
1.4327584505081177
 22
-1.1001722812652588
 32
5.341704368591309
 13
1.2269740104675293
 23
-1.1001720428466797
 33
5.560079574584961
  0
3DFACE
  8
0
 10
1.2269740104675293
 20
-0.8943877220153809
 30
6.431476593017578
 11
1.2269740104675293
 21
-1.1001720428466797
 31
6.431476593017578
 12
1.2269740104675293
 22
-1.1001720428466797
 32
5.560079574584961
 13
1.2269740104675293
 23
-0.8943877220153809
 33
5.560079574584961
  0
3DFACE
  8
0
 10
1.4327585697174072
 20
-0.8943877816200256
 30
6.431476593017578
 11
1.2269740104675293
 21
-0.8943877220153809
 31
6.431476593017578
 12
1.2269740104675293
 22
-0.8943877220153809
 32
5.560079574584961
 13
1.4327585697174072
 23
-0.8943877816200256
 33
5.341704368591309
  0
3DFACE
  8
0
 10
-0.336092472076416
 20
-2.442197322845459
 30
1.9616323709487915
 11
0.35222309827804565
 21
-2.442197322845459
 31
1.9616323709487915
 12
0.35222327709198
 22
-2.1525139808654785
 32
1.961632251739502
 13
-0.336092084646225
 23
-2.1525139808654785
 33
1.961632251739502
  0
3DFACE
  8
0
 10
-0.3360923230648041
 20
-2.442197322845459
 30
0.5452265739440918
 11
-0.336092472076416
 21
-2.442197322845459
 31
1.9616323709487915
 12
-0.336092084646225
 22
-2.1525139808654785
 32
1.961632251739502
 13
-0.3360922932624817
 23
-2.1525139808654785
 33
0.5452265739440918
  0
3DFACE
  8
0
 10
0.3522231876850128
 20
-2.1525139808654785
 30
0.5452265739440918
 11
0.35222327709198
 21
-2.1525139808654785
 31
1.961632251739502
 12
0.35222309827804565
 22
-2.442197322845459
 32
1.9616323709487915
 13
0.3522230088710785
 23
-2.442197322845459
 33
0.5452265739440918
  0
3DFACE
  8
0
 10
0.3522230088710785
 20
-2.442197322845459
 30
0.5452265739440918
 11
0.35222309827804565
 21
-2.442197322845459
 31
1.9616323709487915
 12
0.28636351227760315
 22
-2.442197322845459
 32
1.8872253894805908
 13
0.2863634526729584
 23
-2.442197322845459
 33
0.5452265739440918
  0
3DFACE
  8
0
 10
-0.336092472076416
 20
-2.442197322845459
 30
1.9616323709487915
 11
-0.3360923230648041
 21
-2.442197322845459
 31
0.5452265739440918
 12
-0.27023279666900635
 22
-2.442197322845459
 32
0.5452265739440918
 13
-0.2702328860759735
 23
-2.442197322845459
 33
1.8872253894805908
  0
3DFACE
  8
0
 10
0.35222309827804565
 20
-2.442197322845459
 30
1.9616323709487915
 11
-0.336092472076416
 21
-2.442197322845459
 31
1.9616323709487915
 12
-0.2702328860759735
 22
-2.442197322845459
 32
1.8872253894805908
 13
0.28636351227760315
 23
-2.442197322845459
 33
1.8872253894805908
  0
3DFACE
  8
0
 10
0.28636351227760315
 20
-2.442197322845459
 30
1.8872253894805908
 11
-0.2702328860759735
 21
-2.442197322845459
 31
1.8872253894805908
 12
-0.2702328860759735
 22
-2.227672576904297
 32
1.8872253894805908
 13
0.28636351227760315
 23
-2.227672576904297
 33
1.8872253894805908
  0
3DFACE
  8
0
 10
-0.2702328860759735
 20
-2.442197322845459
 30
1.8872253894805908
 11
-0.27023279666900635
 21
-2.442197322845459
 31
0.5452265739440918
 12
-0.27023279666900635
 22
-2.227672576904297
 32
0.5452265739440918
 13
-0.2702328860759735
 23
-2.227672576904297
 33
1.8872253894805908
  0
3DFACE
  8
0
 10
0.2863634526729584
 20
-2.442197322845459
 30
0.5452265739440918
 11
0.28636351227760315
 21
-2.442197322845459
 31
1.8872253894805908
 12
0.28636351227760315
 22
-2.227672576904297
 32
1.8872253894805908
 13
0.2863634526729584
 23
-2.227672576904297
 33
0.5452265739440918
  0
3DFACE
  8
0
 10
-0.9188140034675598
 20
-3.0613205432891846
 30
0.1535778045654297
 11
0.9401540160179138
 21
-3.0613207817077637
 31
0.1535778045654297
 12
0.9401545524597168
 22
-2.1525139808654785
 32
0.1535778045654297
 13
-0.9188128709793091
 23
-2.1525139808654785
 33
0.1535778045654297
  0
3DFACE
  8
0
 10
-0.9188135862350464
 20
-3.0613207817077637
 30
0.0
 11
-0.9188140034675598
 21
-3.0613205432891846
 31
0.1535778045654297
 12
-0.9188128709793091
 22
-2.1525139808654785
 32
0.1535778045654297
 13
-0.9188135862350464
 23
-2.1525139808654785
 33
0.0
  0
3DFACE
  8
0
 10
0.9401543140411377
 20
-2.1525139808654785
 30
0.0
 11
0.9401545524597168
 21
-2.1525139808654785
 31
0.1535778045654297
 12
0.9401540160179138
 22
-3.0613207817077637
 32
0.1535778045654297
 13
0.9401537179946899
 23
-3.0613210201263428
 33
0.0
  0
3DFACE
  8
0
 10
-0.9188140034675598
 20
-3.0613205432891846
 30
0.1535778045654297
 11
-0.9188135862350464
 21
-3.0613207817077637
 31
0.0
 12
0.9401537179946899
 22
-3.0613210201263428
 32
0.0
 13
0.9401540160179138
 23
-3.0613207817077637
 33
0.1535778045654297
  0
3DFACE
  8
0
 10
-0.5881841778755188
 20
-2.7822489738464355
 30
0.427945613861084
 11
0.6095243692398071
 21
-2.7822494506835938
 31
0.427945613861084
 12
0.6095246076583862
 22
-2.1525139808654785
 32
0.427945613861084
 13
-0.5881834030151367
 23
-2.1525139808654785
 33
0.427945613861084
  0
3DFACE
  8
0
 10
-0.5881838798522949
 20
-2.7822492122650146
 30
0.2916598320007324
 11
-0.5881841778755188
 21
-2.7822489738464355
 31
0.427945613861084
 12
-0.5881834030151367
 22
-2.1525139808654785
 32
0.427945613861084
 13
-0.5881837606430054
 23
-2.1525139808654785
 33
0.2916598320007324
  0
3DFACE
  8
0
 10
0.6095244884490967
 20
-2.1525139808654785
 30
0.2916598320007324
 11
0.6095246076583862
 21
-2.1525139808654785
 31
0.427945613861084
 12
0.6095243692398071
 22
-2.7822494506835938
 32
0.427945613861084
 13
0.609524130821228
 23
-2.7822494506835938
 33
0.2916598320007324
  0
3DFACE
  8
0
 10
-0.5881841778755188
 20
-2.7822489738464355
 30
0.427945613861084
 11
-0.5881838798522949
 21
-2.7822492122650146
 31
0.2916598320007324
 12
0.609524130821228
 22
-2.7822494506835938
 32
0.2916598320007324
 13
0.6095243692398071
 23
-2.7822494506835938
 33
0.427945613861084
  0
3DFACE
  8
0
 10
-0.4059428572654724
 20
-2.6506149768829346
 30
0.5452265739440918
 11
0.42728328704833984
 21
-2.6506152153015137
 31
0.5452265739440918
 12
0.42728352546691895
 22
-2.1525139808654785
 32
0.5452265739440918
 13
-0.4059423506259918
 23
-2.1525139808654785
 33
0.5452265739440918
  0
3DFACE
  8
0
 10
-0.4059426486492157
 20
-2.6506152153015137
 30
0.427945613861084
 11
-0.4059428572654724
 21
-2.6506149768829346
 31
0.5452265739440918
 12
-0.4059423506259918
 22
-2.1525139808654785
 32
0.5452265739440918
 13
-0.4059425890445709
 23
-2.1525139808654785
 33
0.427945613861084
  0
3DFACE
  8
0
 10
0.42728346586227417
 20
-2.1525139808654785
 30
0.427945613861084
 11
0.42728352546691895
 21
-2.1525139808654785
 31
0.5452265739440918
 12
0.42728328704833984
 22
-2.6506152153015137
 32
0.5452265739440918
 13
0.42728322744369507
 23
-2.6506152153015137
 33
0.427945613861084
  0
3DFACE
  8
0
 10
-0.4059428572654724
 20
-2.6506149768829346
 30
0.5452265739440918
 11
-0.4059426486492157
 21
-2.6506152153015137
 31
0.427945613861084
 12
0.42728322744369507
 22
-2.6506152153015137
 32
0.427945613861084
 13
0.42728328704833984
 23
-2.6506152153015137
 33
0.5452265739440918
  0
3DFACE
  8
0
 10
-0.7601999044418335
 20
-2.9154343605041504
 30
0.2916598320007324
 11
0.781540036201477
 21
-2.9154348373413086
 31
0.2916598320007324
 12
0.7815404534339905
 22
-2.1525139808654785
 32
0.2916598320007324
 13
-0.7601990699768066
 23
-2.1525139808654785
 33
0.2916598320007324
  0
3DFACE
  8
0
 10
-0.7601996064186096
 20
-2.9154345989227295
 30
0.1535778045654297
 11
-0.7601999044418335
 21
-2.9154343605041504
 31
0.2916598320007324
 12
-0.7601990699768066
 22
-2.1525139808654785
 32
0.2916598320007324
 13
-0.7601995468139648
 23
-2.1525139808654785
 33
0.1535778045654297
  0
3DFACE
  8
0
 10
0.7815402746200562
 20
-2.1525139808654785
 30
0.1535778045654297
 11
0.7815404534339905
 21
-2.1525139808654785
 31
0.2916598320007324
 12
0.781540036201477
 22
-2.9154348373413086
 32
0.2916598320007324
 13
0.781539797782898
 23
-2.9154348373413086
 33
0.1535778045654297
  0
3DFACE
  8
0
 10
-0.7601999044418335
 20
-2.9154343605041504
 30
0.2916598320007324
 11
-0.7601996064186096
 21
-2.9154345989227295
 31
0.1535778045654297
 12
0.781539797782898
 22
-2.9154348373413086
 32
0.1535778045654297
 13
0.781540036201477
 23
-2.9154348373413086
 33
0.2916598320007324
  0
3DFACE
  8
0
 10
0.4811564087867737
 20
-2.1525139808654785
 30
0.6097140312194824
 11
0.4811564087867737
 21
-2.352660655975342
 31
1.3494267463684082
 12
0.4811564087867737
 22
-2.1888649463653564
 32
1.3494267463684082
 13
0.4811563789844513
 23
-2.1525139808654785
 33
1.2204949855804443
  0
3DFACE
  8
0
 10
0.4811563789844513
 20
-2.1525139808654785
 30
1.2204949855804443
 11
0.4811564087867737
 21
-2.1888649463653564
 31
1.3494267463684082
 12
0.6449522376060486
 22
-2.1888649463653564
 32
1.3494267463684082
 13
0.6449522376060486
 23
-2.1525139808654785
 33
1.2204949855804443
  0
3DFACE
  8
0
 10
0.6449522376060486
 20
-2.1525139808654785
 30
1.2204949855804443
 11
0.6449522376060486
 21
-2.1888649463653564
 31
1.3494267463684082
 12
0.6449522376060486
 22
-2.352660655975342
 32
1.3494267463684082
 13
0.6449522376060486
 23
-2.1525139808654785
 33
0.6097140312194824
  0
3DFACE
  8
0
 10
0.4811564087867737
 20
-2.352660655975342
 30
1.3494267463684082
 11
0.4811564087867737
 21
-2.1525139808654785
 31
0.6097140312194824
 12
0.6449522376060486
 22
-2.1525139808654785
 32
0.6097140312194824
 13
0.6449522376060486
 23
-2.352660655975342
 33
1.3494267463684082
  0
3DFACE
  8
0
 10
0.4811564087867737
 20
-2.352660655975342
 30
1.3494267463684082
 11
0.6449522376060486
 21
-2.352660655975342
 31
1.3494267463684082
 12
0.6449522972106934
 22
-2.5325214862823486
 32
1.8479788303375244
 13
0.4811564087867737
 23
-2.5325212478637695
 33
1.8479788303375244
  0
3DFACE
  8
0
 10
0.6449522376060486
 20
-2.352660655975342
 30
1.3494267463684082
 11
0.6449522376060486
 21
-2.1888649463653564
 31
1.3494267463684082
 12
0.6449522376060486
 22
-2.3687257766723633
 32
1.8479788303375244
 13
0.6449522972106934
 23
-2.5325214862823486
 33
1.8479788303375244
  0
3DFACE
  8
0
 10
0.6449522376060486
 20
-2.1888649463653564
 30
1.3494267463684082
 11
0.4811564087867737
 21
-2.1888649463653564
 31
1.3494267463684082
 12
0.4811564087867737
 22
-2.368725538253784
 32
1.8479788303375244
 13
0.6449522376060486
 23
-2.3687257766723633
 33
1.8479788303375244
  0
3DFACE
  8
0
 10
0.4811564087867737
 20
-2.1888649463653564
 30
1.3494267463684082
 11
0.4811564087867737
 21
-2.352660655975342
 31
1.3494267463684082
 12
0.4811564087867737
 22
-2.5325212478637695
 32
1.8479788303375244
 13
0.4811564087867737
 23
-2.368725538253784
 33
1.8479788303375244
  0
3DFACE
  8
0
 10
0.4811564087867737
 20
-2.368725538253784
 30
1.8479788303375244
 11
0.4811564087867737
 21
-2.5325212478637695
 31
1.8479788303375244
 12
0.4811564087867737
 22
-2.691746711730957
 32
2.1500816345214844
 13
0.48115646839141846
 23
-2.5145864486694336
 33
2.1500816345214844
  0
3DFACE
  8
0
 10
0.6449522376060486
 20
-2.3687257766723633
 30
1.8479788303375244
 11
0.4811564087867737
 21
-2.368725538253784
 31
1.8479788303375244
 12
0.48115646839141846
 22
-2.5145864486694336
 32
2.1500816345214844
 13
0.6449524164199829
 23
-2.5145864486694336
 33
2.1500816345214844
  0
3DFACE
  8
0
 10
0.6449522972106934
 20
-2.5325214862823486
 30
1.8479788303375244
 11
0.6449522376060486
 21
-2.3687257766723633
 31
1.8479788303375244
 12
0.6449524164199829
 22
-2.5145864486694336
 32
2.1500816345214844
 13
0.6449522376060486
 23
-2.691746711730957
 33
2.1500816345214844
  0
3DFACE
  8
0
 10
0.4811564087867737
 20
-2.5325212478637695
 30
1.8479788303375244
 11
0.6449522972106934
 21
-2.5325214862823486
 31
1.8479788303375244
 12
0.6449522376060486
 22
-2.691746711730957
 32
2.1500816345214844
 13
0.4811564087867737
 23
-2.691746711730957
 33
2.1500816345214844
  0
3DFACE
  8
0
 10
-0.597871720790863
 20
-2.5325212478637695
 30
1.8479788303375244
 11
-0.4340735077857971
 21
-2.5325214862823486
 31
1.8479788303375244
 12
-0.4340735077857971
 22
-2.691746473312378
 32
2.1500816345214844
 13
-0.5978717803955078
 23
-2.691746473312378
 33
2.1500816345214844
  0
3DFACE
  8
0
 10
-0.4340735077857971
 20
-2.5325214862823486
 30
1.8479788303375244
 11
-0.4340735375881195
 21
-2.3687257766723633
 31
1.8479788303375244
 12
-0.43407344818115234
 22
-2.5145864486694336
 32
2.1500816345214844
 13
-0.4340735077857971
 23
-2.691746473312378
 33
2.1500816345214844
  0
3DFACE
  8
0
 10
-0.4340735375881195
 20
-2.3687257766723633
 30
1.8479788303375244
 11
-0.5978717803955078
 21
-2.368725299835205
 31
1.8479788303375244
 12
-0.5978716015815735
 22
-2.5145864486694336
 32
2.1500816345214844
 13
-0.43407344818115234
 23
-2.5145864486694336
 33
2.1500816345214844
  0
3DFACE
  8
0
 10
-0.5978717803955078
 20
-2.368725299835205
 30
1.8479788303375244
 11
-0.597871720790863
 21
-2.5325212478637695
 31
1.8479788303375244
 12
-0.5978717803955078
 22
-2.691746473312378
 32
2.1500816345214844
 13
-0.5978716015815735
 23
-2.5145864486694336
 33
2.1500816345214844
  0
3DFACE
  8
0
 10
-0.5978717803955078
 20
-2.1888647079467773
 30
1.3494267463684082
 11
-0.5978717803955078
 21
-2.352660655975342
 31
1.3494267463684082
 12
-0.597871720790863
 22
-2.5325212478637695
 32
1.8479788303375244
 13
-0.5978717803955078
 23
-2.368725299835205
 33
1.8479788303375244
  0
3DFACE
  8
0
 10
-0.4340735077857971
 20
-2.1888647079467773
 30
1.3494267463684082
 11
-0.5978717803955078
 21
-2.1888647079467773
 31
1.3494267463684082
 12
-0.5978717803955078
 22
-2.368725299835205
 32
1.8479788303375244
 13
-0.4340735375881195
 23
-2.3687257766723633
 33
1.8479788303375244
  0
3DFACE
  8
0
 10
-0.4340735375881195
 20
-2.352660655975342
 30
1.3494267463684082
 11
-0.4340735077857971
 21
-2.1888647079467773
 31
1.3494267463684082
 12
-0.4340735375881195
 22
-2.3687257766723633
 32
1.8479788303375244
 13
-0.4340735077857971
 23
-2.5325214862823486
 33
1.8479788303375244
  0
3DFACE
  8
0
 10
-0.5978717803955078
 20
-2.352660655975342
 30
1.3494267463684082
 11
-0.4340735375881195
 21
-2.352660655975342
 31
1.3494267463684082
 12
-0.4340735077857971
 22
-2.5325214862823486
 32
1.8479788303375244
 13
-0.597871720790863
 23
-2.5325212478637695
 33
1.8479788303375244
  0
3DFACE
  8
0
 10
-0.5978717803955078
 20
-2.352660655975342
 30
1.3494267463684082
 11
-0.5978717803955078
 21
-2.1525139808654785
 31
0.6097140312194824
 12
-0.4340735375881195
 22
-2.1525139808654785
 32
0.6097140312194824
 13
-0.4340735375881195
 23
-2.352660655975342
 33
1.3494267463684082
  0
3DFACE
  8
0
 10
-0.4340735375881195
 20
-2.1525139808654785
 30
1.2204949855804443
 11
-0.4340735077857971
 21
-2.1888647079467773
 31
1.3494267463684082
 12
-0.4340735375881195
 22
-2.352660655975342
 32
1.3494267463684082
 13
-0.4340735375881195
 23
-2.1525139808654785
 33
0.6097140312194824
  0
3DFACE
  8
0
 10
-0.5978717803955078
 20
-2.1525139808654785
 30
1.2204949855804443
 11
-0.5978717803955078
 21
-2.1888647079467773
 31
1.3494267463684082
 12
-0.4340735077857971
 22
-2.1888647079467773
 32
1.3494267463684082
 13
-0.4340735375881195
 23
-2.1525139808654785
 33
1.2204949855804443
  0
3DFACE
  8
0
 10
-0.5978717803955078
 20
-2.1525139808654785
 30
0.6097140312194824
 11
-0.5978717803955078
 21
-2.352660655975342
 31
1.3494267463684082
 12
-0.5978717803955078
 22
-2.1888647079467773
 32
1.3494267463684082
 13
-0.5978717803955078
 23
-2.1525139808654785
 33
1.2204949855804443
  0
3DFACE
  8
0
 10
-0.9267009496688843
 20
-2.152513265609741
 30
1.604638695716858
 11
-0.8394931554794312
 21
-2.152513265609741
 31
1.604638695716858
 12
-0.8394923806190491
 22
-2.3499975204467773
 32
1.993473768234253
 13
-0.926700234413147
 23
-2.349997043609619
 33
1.993473768234253
  0
3DFACE
  8
0
 10
-0.8394931554794312
 20
-2.152513265609741
 30
1.604638695716858
 11
-0.8394931554794312
 21
-2.152513265609741
 31
1.9343476295471191
 12
-0.8394923806190491
 22
-2.186201572418213
 32
1.993473768234253
 13
-0.8394923806190491
 23
-2.3499975204467773
 33
1.993473768234253
  0
3DFACE
  8
0
 10
-0.8394931554794312
 20
-2.152513265609741
 30
1.9343476295471191
 11
-0.9267009496688843
 21
-2.152513265609741
 31
1.9343476295471191
 12
-0.9267001748085022
 22
-2.186201572418213
 32
1.993473768234253
 13
-0.8394923806190491
 23
-2.186201572418213
 33
1.993473768234253
  0
3DFACE
  8
0
 10
-0.9267009496688843
 20
-2.152513265609741
 30
1.9343476295471191
 11
-0.9267009496688843
 21
-2.152513265609741
 31
1.604638695716858
 12
-0.926700234413147
 22
-2.349997043609619
 32
1.993473768234253
 13
-0.9267001748085022
 23
-2.186201572418213
 33
1.993473768234253
  0
3DFACE
  8
0
 10
-0.9267001748085022
 20
-2.186201572418213
 30
1.993473768234253
 11
-0.926700234413147
 21
-2.349997043609619
 31
1.993473768234253
 12
-0.9266997575759888
 22
-2.4725069999694824
 32
2.1500818729400635
 13
-0.9266995191574097
 23
-2.2956297397613525
 33
2.1500818729400635
  0
3DFACE
  8
0
 10
-0.8394923806190491
 20
-2.186201572418213
 30
1.993473768234253
 11
-0.9267001748085022
 21
-2.186201572418213
 31
1.993473768234253
 12
-0.9266995191574097
 22
-2.2956297397613525
 32
2.1500818729400635
 13
-0.8394917249679565
 23
-2.2956297397613525
 33
2.1500818729400635
  0
3DFACE
  8
0
 10
-0.8394923806190491
 20
-2.3499975204467773
 30
1.993473768234253
 11
-0.8394923806190491
 21
-2.186201572418213
 31
1.993473768234253
 12
-0.8394917249679565
 22
-2.2956297397613525
 32
2.1500818729400635
 13
-0.8394917249679565
 23
-2.4725069999694824
 33
2.1500818729400635
  0
3DFACE
  8
0
 10
-0.926700234413147
 20
-2.349997043609619
 30
1.993473768234253
 11
-0.8394923806190491
 21
-2.3499975204467773
 31
1.993473768234253
 12
-0.8394917249679565
 22
-2.4725069999694824
 32
2.1500818729400635
 13
-0.9266997575759888
 23
-2.4725069999694824
 33
2.1500818729400635
  0
3DFACE
  8
0
 10
-1.1594496965408325
 20
-2.349997043609619
 30
1.993473768234253
 11
-1.0722417831420898
 21
-2.3499972820281982
 31
1.993473768234253
 12
-1.072241187095642
 22
-2.4725069999694824
 32
2.1500818729400635
 13
-1.1594489812850952
 23
-2.4725069999694824
 33
2.1500818729400635
  0
3DFACE
  8
0
 10
-1.0722417831420898
 20
-2.3499972820281982
 30
1.993473768234253
 11
-1.0722417831420898
 21
-2.186201572418213
 31
1.993473768234253
 12
-1.072241187095642
 22
-2.2956297397613525
 32
2.1500818729400635
 13
-1.072241187095642
 23
-2.4725069999694824
 33
2.1500818729400635
  0
3DFACE
  8
0
 10
-1.0722417831420898
 20
-2.186201572418213
 30
1.993473768234253
 11
-1.159449577331543
 21
-2.186201572418213
 31
1.993473768234253
 12
-1.1594489812850952
 22
-2.2956297397613525
 32
2.1500818729400635
 13
-1.072241187095642
 23
-2.2956297397613525
 33
2.1500818729400635
  0
3DFACE
  8
0
 10
-1.159449577331543
 20
-2.186201572418213
 30
1.993473768234253
 11
-1.1594496965408325
 21
-2.349997043609619
 31
1.993473768234253
 12
-1.1594489812850952
 22
-2.4725069999694824
 32
2.1500818729400635
 13
-1.1594489812850952
 23
-2.2956297397613525
 33
2.1500818729400635
  0
3DFACE
  8
0
 10
-1.1594504117965698
 20
-2.152513265609741
 30
1.9343476295471191
 11
-1.1594504117965698
 21
-2.152513265609741
 31
1.604638695716858
 12
-1.1594496965408325
 22
-2.349997043609619
 32
1.993473768234253
 13
-1.159449577331543
 23
-2.186201572418213
 33
1.993473768234253
  0
3DFACE
  8
0
 10
-1.0722426176071167
 20
-2.152513265609741
 30
1.9343476295471191
 11
-1.1594504117965698
 21
-2.152513265609741
 31
1.9343476295471191
 12
-1.159449577331543
 22
-2.186201572418213
 32
1.993473768234253
 13
-1.0722417831420898
 23
-2.186201572418213
 33
1.993473768234253
  0
3DFACE
  8
0
 10
-1.0722424983978271
 20
-2.152513265609741
 30
1.604638695716858
 11
-1.0722426176071167
 21
-2.152513265609741
 31
1.9343476295471191
 12
-1.0722417831420898
 22
-2.186201572418213
 32
1.993473768234253
 13
-1.0722417831420898
 23
-2.3499972820281982
 33
1.993473768234253
  0
3DFACE
  8
0
 10
-1.1594504117965698
 20
-2.152513265609741
 30
1.604638695716858
 11
-1.0722424983978271
 21
-2.152513265609741
 31
1.604638695716858
 12
-1.0722417831420898
 22
-2.3499972820281982
 32
1.993473768234253
 13
-1.1594496965408325
 23
-2.349997043609619
 33
1.993473768234253
  0
3DFACE
  8
0
 10
-1.403364896774292
 20
-2.152513265609741
 30
1.604638695716858
 11
-1.3161569833755493
 21
-2.152513265609741
 31
1.604638695716858
 12
-1.316156268119812
 22
-2.3499972820281982
 32
1.993473768234253
 13
-1.4033641815185547
 23
-2.349997043609619
 33
1.993473768234253
  0
3DFACE
  8
0
 10
-1.3161569833755493
 20
-2.152513265609741
 30
1.604638695716858
 11
-1.3161571025848389
 21
-2.152513265609741
 31
1.9343476295471191
 12
-1.316156268119812
 22
-2.186201572418213
 32
1.993473768234253
 13
-1.316156268119812
 23
-2.3499972820281982
 33
1.993473768234253
  0
3DFACE
  8
0
 10
-1.3161571025848389
 20
-2.152513265609741
 30
1.9343476295471191
 11
-1.4033647775650024
 21
-2.152513265609741
 31
1.9343476295471191
 12
-1.4033641815185547
 22
-2.186201572418213
 32
1.993473768234253
 13
-1.316156268119812
 23
-2.186201572418213
 33
1.993473768234253
  0
3DFACE
  8
0
 10
-1.4033647775650024
 20
-2.152513265609741
 30
1.9343476295471191
 11
-1.403364896774292
 21
-2.152513265609741
 31
1.604638695716858
 12
-1.4033641815185547
 22
-2.349997043609619
 32
1.993473768234253
 13
-1.4033641815185547
 23
-2.186201572418213
 33
1.993473768234253
  0
3DFACE
  8
0
 10
-1.4033641815185547
 20
-2.186201572418213
 30
1.993473768234253
 11
-1.4033641815185547
 21
-2.349997043609619
 31
1.993473768234253
 12
-1.403363585472107
 22
-2.4725069999694824
 32
2.1500818729400635
 13
-1.403363585472107
 23
-2.2956297397613525
 33
2.1500818729400635
  0
3DFACE
  8
0
 10
-1.316156268119812
 20
-2.186201572418213
 30
1.993473768234253
 11
-1.4033641815185547
 21
-2.186201572418213
 31
1.993473768234253
 12
-1.403363585472107
 22
-2.2956297397613525
 32
2.1500818729400635
 13
-1.3161557912826538
 23
-2.2956297397613525
 33
2.1500818729400635
  0
3DFACE
  8
0
 10
-1.316156268119812
 20
-2.3499972820281982
 30
1.993473768234253
 11
-1.316156268119812
 21
-2.186201572418213
 31
1.993473768234253
 12
-1.3161557912826538
 22
-2.2956297397613525
 32
2.1500818729400635
 13
-1.3161557912826538
 23
-2.4725069999694824
 33
2.1500818729400635
  0
3DFACE
  8
0
 10
-1.4033641815185547
 20
-2.349997043609619
 30
1.993473768234253
 11
-1.316156268119812
 21
-2.3499972820281982
 31
1.993473768234253
 12
-1.3161557912826538
 22
-2.4725069999694824
 32
2.1500818729400635
 13
-1.403363585472107
 23
-2.4725069999694824
 33
2.1500818729400635
  0
3DFACE
  8
0
 10
-1.6321862936019897
 20
-2.349997043609619
 30
1.993473768234253
 11
-1.5449784994125366
 21
-2.3499972820281982
 31
1.993473768234253
 12
-1.5449777841567993
 22
-2.4725069999694824
 32
2.1500818729400635
 13
-1.6321858167648315
 23
-2.4725069999694824
 33
2.1500818729400635
  0
3DFACE
  8
0
 10
-1.5449784994125366
 20
-2.3499972820281982
 30
1.993473768234253
 11
-1.5449784994125366
 21
-2.186201572418213
 31
1.993473768234253
 12
-1.5449780225753784
 22
-2.2956297397613525
 32
2.1500818729400635
 13
-1.5449777841567993
 23
-2.4725069999694824
 33
2.1500818729400635
  0
3DFACE
  8
0
 10
-1.5449784994125366
 20
-2.186201572418213
 30
1.993473768234253
 11
-1.6321862936019897
 21
-2.186201572418213
 31
1.993473768234253
 12
-1.6321858167648315
 22
-2.2956297397613525
 32
2.1500818729400635
 13
-1.5449780225753784
 23
-2.2956297397613525
 33
2.1500818729400635
  0
3DFACE
  8
0
 10
-1.6321862936019897
 20
-2.186201572418213
 30
1.993473768234253
 11
-1.6321862936019897
 21
-2.349997043609619
 31
1.993473768234253
 12
-1.6321858167648315
 22
-2.4725069999694824
 32
2.1500818729400635
 13
-1.6321858167648315
 23
-2.2956297397613525
 33
2.1500818729400635
  0
3DFACE
  8
0
 10
-1.632187008857727
 20
-2.152513265609741
 30
1.9343476295471191
 11
-1.6321871280670166
 21
-2.152513265609741
 31
1.604638695716858
 12
-1.6321862936019897
 22
-2.349997043609619
 32
1.993473768234253
 13
-1.6321862936019897
 23
-2.186201572418213
 33
1.993473768234253
  0
3DFACE
  8
0
 10
-1.544979214668274
 20
-2.152513265609741
 30
1.9343476295471191
 11
-1.632187008857727
 21
-2.152513265609741
 31
1.9343476295471191
 12
-1.6321862936019897
 22
-2.186201572418213
 32
1.993473768234253
 13
-1.5449784994125366
 23
-2.186201572418213
 33
1.993473768234253
  0
3DFACE
  8
0
 10
-1.5449790954589844
 20
-2.152513265609741
 30
1.604638695716858
 11
-1.544979214668274
 21
-2.152513265609741
 31
1.9343476295471191
 12
-1.5449784994125366
 22
-2.186201572418213
 32
1.993473768234253
 13
-1.5449784994125366
 23
-2.3499972820281982
 33
1.993473768234253
  0
3DFACE
  8
0
 10
-1.6321871280670166
 20
-2.152513265609741
 30
1.604638695716858
 11
-1.5449790954589844
 21
-2.152513265609741
 31
1.604638695716858
 12
-1.5449784994125366
 22
-2.3499972820281982
 32
1.993473768234253
 13
-1.6321862936019897
 23
-2.349997043609619
 33
1.993473768234253
  0
3DFACE
  8
0
 10
0.9250425100326538
 20
-2.152513265609741
 30
1.604638695716858
 11
1.012250542640686
 21
-2.152513265609741
 31
1.604638695716858
 12
1.0122510194778442
 22
-2.3499975204467773
 32
1.993473768234253
 13
0.9250432252883911
 23
-2.3499975204467773
 33
1.993473768234253
  0
3DFACE
  8
0
 10
1.012250542640686
 20
-2.152513265609741
 30
1.604638695716858
 11
1.012250304222107
 21
-2.152513265609741
 31
1.9343476295471191
 12
1.0122510194778442
 22
-2.186201810836792
 32
1.993473768234253
 13
1.0122510194778442
 23
-2.3499975204467773
 33
1.993473768234253
  0
3DFACE
  8
0
 10
1.012250304222107
 20
-2.152513265609741
 30
1.9343476295471191
 11
0.9250425100326538
 21
-2.152513265609741
 31
1.9343476295471191
 12
0.9250432252883911
 22
-2.186201572418213
 32
1.993473768234253
 13
1.0122510194778442
 23
-2.186201810836792
 33
1.993473768234253
  0
3DFACE
  8
0
 10
0.9250425100326538
 20
-2.152513265609741
 30
1.9343476295471191
 11
0.9250425100326538
 21
-2.152513265609741
 31
1.604638695716858
 12
0.9250432252883911
 22
-2.3499975204467773
 32
1.993473768234253
 13
0.9250432252883911
 23
-2.186201572418213
 33
1.993473768234253
  0
3DFACE
  8
0
 10
0.9250432252883911
 20
-2.186201572418213
 30
1.993473768234253
 11
0.9250432252883911
 21
-2.3499975204467773
 31
1.993473768234253
 12
0.9250437021255493
 22
-2.4725069999694824
 32
2.1500818729400635
 13
0.9250438809394836
 23
-2.2956299781799316
 33
2.1500818729400635
  0
3DFACE
  8
0
 10
1.0122510194778442
 20
-2.186201810836792
 30
1.993473768234253
 11
0.9250432252883911
 21
-2.186201572418213
 31
1.993473768234253
 12
0.9250438809394836
 22
-2.2956299781799316
 32
2.1500818729400635
 13
1.012251615524292
 23
-2.2956299781799316
 33
2.1500818729400635
  0
3DFACE
  8
0
 10
1.0122510194778442
 20
-2.3499975204467773
 30
1.993473768234253
 11
1.0122510194778442
 21
-2.186201810836792
 31
1.993473768234253
 12
1.012251615524292
 22
-2.2956299781799316
 32
2.1500818729400635
 13
1.012251615524292
 23
-2.4725069999694824
 33
2.1500818729400635
  0
3DFACE
  8
0
 10
0.9250432252883911
 20
-2.3499975204467773
 30
1.993473768234253
 11
1.0122510194778442
 21
-2.3499975204467773
 31
1.993473768234253
 12
1.012251615524292
 22
-2.4725069999694824
 32
2.1500818729400635
 13
0.9250437021255493
 23
-2.4725069999694824
 33
2.1500818729400635
  0
3DFACE
  8
0
 10
1.1538653373718262
 20
-2.3499975204467773
 30
1.993473768234253
 11
1.2410732507705688
 21
-2.3499975204467773
 31
1.993473768234253
 12
1.2410738468170166
 22
-2.4725069999694824
 32
2.1500818729400635
 13
1.153865933418274
 23
-2.4725069999694824
 33
2.1500818729400635
  0
3DFACE
  8
0
 10
1.2410732507705688
 20
-2.3499975204467773
 30
1.993473768234253
 11
1.2410732507705688
 21
-2.186201810836792
 31
1.993473768234253
 12
1.241073727607727
 22
-2.2956299781799316
 32
2.1500818729400635
 13
1.2410738468170166
 23
-2.4725069999694824
 33
2.1500818729400635
  0
3DFACE
  8
0
 10
1.2410732507705688
 20
-2.186201810836792
 30
1.993473768234253
 11
1.1538653373718262
 21
-2.186201572418213
 31
1.993473768234253
 12
1.153865933418274
 22
-2.2956299781799316
 32
2.1500818729400635
 13
1.241073727607727
 23
-2.2956299781799316
 33
2.1500818729400635
  0
3DFACE
  8
0
 10
1.1538653373718262
 20
-2.186201572418213
 30
1.993473768234253
 11
1.1538653373718262
 21
-2.3499975204467773
 31
1.993473768234253
 12
1.153865933418274
 22
-2.4725069999694824
 32
2.1500818729400635
 13
1.153865933418274
 23
-2.2956299781799316
 33
2.1500818729400635
  0
3DFACE
  8
0
 10
1.1538647413253784
 20
-2.152513027191162
 30
1.9343476295471191
 11
1.1538647413253784
 21
-2.152513027191162
 31
1.604638695716858
 12
1.1538653373718262
 22
-2.3499975204467773
 32
1.993473768234253
 13
1.1538653373718262
 23
-2.186201572418213
 33
1.993473768234253
  0
3DFACE
  8
0
 10
1.2410725355148315
 20
-2.152513027191162
 30
1.9343476295471191
 11
1.1538647413253784
 21
-2.152513027191162
 31
1.9343476295471191
 12
1.1538653373718262
 22
-2.186201572418213
 32
1.993473768234253
 13
1.2410732507705688
 23
-2.186201810836792
 33
1.993473768234253
  0
3DFACE
  8
0
 10
1.2410725355148315
 20
-2.152513027191162
 30
1.604638695716858
 11
1.2410725355148315
 21
-2.152513027191162
 31
1.9343476295471191
 12
1.2410732507705688
 22
-2.186201810836792
 32
1.993473768234253
 13
1.2410732507705688
 23
-2.3499975204467773
 33
1.993473768234253
  0
3DFACE
  8
0
 10
1.1538647413253784
 20
-2.152513027191162
 30
1.604638695716858
 11
1.2410725355148315
 21
-2.152513027191162
 31
1.604638695716858
 12
1.2410732507705688
 22
-2.3499975204467773
 32
1.993473768234253
 13
1.1538653373718262
 23
-2.3499975204467773
 33
1.993473768234253
  0
3DFACE
  8
0
 10
1.3977793455123901
 20
-2.152513265609741
 30
1.604638695716858
 11
1.4849871397018433
 21
-2.152513265609741
 31
1.604638695716858
 12
1.484987735748291
 22
-2.3499975204467773
 32
1.993473768234253
 13
1.3977798223495483
 23
-2.3499975204467773
 33
1.993473768234253
  0
3DFACE
  8
0
 10
1.4849871397018433
 20
-2.152513265609741
 30
1.604638695716858
 11
1.4849871397018433
 21
-2.152513265609741
 31
1.9343476295471191
 12
1.484987735748291
 22
-2.186201810836792
 32
1.993473768234253
 13
1.484987735748291
 23
-2.3499975204467773
 33
1.993473768234253
  0
3DFACE
  8
0
 10
1.4849871397018433
 20
-2.152513265609741
 30
1.9343476295471191
 11
1.3977793455123901
 21
-2.152513265609741
 31
1.9343476295471191
 12
1.397779941558838
 22
-2.186201572418213
 32
1.993473768234253
 13
1.484987735748291
 23
-2.186201810836792
 33
1.993473768234253
  0
3DFACE
  8
0
 10
1.3977793455123901
 20
-2.152513265609741
 30
1.9343476295471191
 11
1.3977793455123901
 21
-2.152513265609741
 31
1.604638695716858
 12
1.3977798223495483
 22
-2.3499975204467773
 32
1.993473768234253
 13
1.397779941558838
 23
-2.186201572418213
 33
1.993473768234253
  0
3DFACE
  8
0
 10
1.397779941558838
 20
-2.186201572418213
 30
1.993473768234253
 11
1.3977798223495483
 21
-2.3499975204467773
 31
1.993473768234253
 12
1.397780418395996
 22
-2.4725069999694824
 32
2.1500818729400635
 13
1.397780418395996
 23
-2.2956299781799316
 33
2.1500818729400635
  0
3DFACE
  8
0
 10
1.484987735748291
 20
-2.186201810836792
 30
1.993473768234253
 11
1.397779941558838
 21
-2.186201572418213
 31
1.993473768234253
 12
1.397780418395996
 22
-2.2956299781799316
 32
2.1500818729400635
 13
1.4849882125854492
 23
-2.2956299781799316
 33
2.1500818729400635
  0
3DFACE
  8
0
 10
1.484987735748291
 20
-2.3499975204467773
 30
1.993473768234253
 11
1.484987735748291
 21
-2.186201810836792
 31
1.993473768234253
 12
1.4849882125854492
 22
-2.2956299781799316
 32
2.1500818729400635
 13
1.4849883317947388
 23
-2.4725069999694824
 33
2.1500818729400635
  0
3DFACE
  8
0
 10
1.3977798223495483
 20
-2.3499975204467773
 30
1.993473768234253
 11
1.484987735748291
 21
-2.3499975204467773
 31
1.993473768234253
 12
1.4849883317947388
 22
-2.4725069999694824
 32
2.1500818729400635
 13
1.397780418395996
 23
-2.4725069999694824
 33
2.1500818729400635
  0
3DFACE
  8
0
 10
1.6305292844772339
 20
-2.3499975204467773
 30
1.993473768234253
 11
1.717737078666687
 21
-2.3499975204467773
 31
1.993473768234253
 12
1.7177376747131348
 22
-2.4725072383880615
 32
2.1500818729400635
 13
1.6305298805236816
 23
-2.4725069999694824
 33
2.1500818729400635
  0
3DFACE
  8
0
 10
1.717737078666687
 20
-2.3499975204467773
 30
1.993473768234253
 11
1.717737078666687
 21
-2.186201810836792
 31
1.993473768234253
 12
1.7177375555038452
 22
-2.2956299781799316
 32
2.1500818729400635
 13
1.7177376747131348
 23
-2.4725072383880615
 33
2.1500818729400635
  0
3DFACE
  8
0
 10
1.717737078666687
 20
-2.186201810836792
 30
1.993473768234253
 11
1.6305294036865234
 21
-2.186201572418213
 31
1.993473768234253
 12
1.6305298805236816
 22
-2.2956299781799316
 32
2.1500818729400635
 13
1.7177375555038452
 23
-2.2956299781799316
 33
2.1500818729400635
  0
3DFACE
  8
0
 10
1.6305294036865234
 20
-2.186201572418213
 30
1.993473768234253
 11
1.6305292844772339
 21
-2.3499975204467773
 31
1.993473768234253
 12
1.6305298805236816
 22
-2.4725069999694824
 32
2.1500818729400635
 13
1.6305298805236816
 23
-2.2956299781799316
 33
2.1500818729400635
  0
3DFACE
  8
0
 10
1.6305283308029175
 20
-2.152513265609741
 30
1.9343476295471191
 11
1.6305283308029175
 21
-2.152513265609741
 31
1.604638695716858
 12
1.6305292844772339
 22
-2.3499975204467773
 32
1.993473768234253
 13
1.6305294036865234
 23
-2.186201572418213
 33
1.993473768234253
  0
3DFACE
  8
0
 10
1.7177361249923706
 20
-2.152513265609741
 30
1.9343476295471191
 11
1.6305283308029175
 21
-2.152513265609741
 31
1.9343476295471191
 12
1.6305294036865234
 22
-2.186201572418213
 32
1.993473768234253
 13
1.717737078666687
 23
-2.186201810836792
 33
1.993473768234253
  0
3DFACE
  8
0
 10
1.7177366018295288
 20
-2.152513265609741
 30
1.604638695716858
 11
1.7177361249923706
 21
-2.152513265609741
 31
1.9343476295471191
 12
1.717737078666687
 22
-2.186201810836792
 32
1.993473768234253
 13
1.717737078666687
 23
-2.3499975204467773
 33
1.993473768234253
  0
3DFACE
  8
0
 10
1.6305283308029175
 20
-2.152513265609741
 30
1.604638695716858
 11
1.7177366018295288
 21
-2.152513265609741
 31
1.604638695716858
 12
1.717737078666687
 22
-2.3499975204467773
 32
1.993473768234253
 13
1.6305292844772339
 23
-2.3499975204467773
 33
1.993473768234253
  0
3DFACE
  8
0
 10
-1.7519792318344116
 20
-2.1254618167877197
 30
2.1500816345214844
 11
-1.7519795894622803
 21
-2.1254618167877197
 31
4.788349151611328
 12
-2.6969587802886963
 22
-2.1254615783691406
 32
3.830113410949707
 13
-2.6969587802886963
 23
-2.1254615783691406
 33
2.1500816345214844
  0
3DFACE
  8
0
 10
-2.6969587802886963
 20
-2.1254615783691406
 30
2.1500816345214844
 11
-2.6969587802886963
 21
-2.1254615783691406
 31
3.830113410949707
 12
-2.6969587802886963
 22
2.108621597290039
 32
3.830113410949707
 13
-2.6969587802886963
 23
2.108621597290039
 33
2.1500816345214844
  0
3DFACE
  8
0
 10
-0.7732146978378296
 20
-2.9977593421936035
 30
5.7398834228515625
 11
-0.7732143998146057
 21
-2.9977593421936035
 31
2.1500816345214844
 12
0.8228700757026672
 22
-2.9977593421936035
 32
2.1500816345214844
 13
0.8228703737258911
 23
-2.9977593421936035
 33
5.7398834228515625
  0
3DFACE
  8
0
 10
-0.7732146978378296
 20
-2.9977593421936035
 30
5.7398834228515625
 11
0.8228703737258911
 21
-2.9977593421936035
 31
5.7398834228515625
 12
0.05664689838886261
 22
-2.9977593421936035
 32
6.552037239074707
 13
-0.006990667432546616
 23
-2.9977588653564453
 33
6.552037239074707
  0
3DFACE
  8
0
 10
-2.6969587802886963
 20
2.2683253288269043
 30
3.830113410949707
 11
-2.094322919845581
 21
2.2683253288269043
 31
4.622142314910889
 12
-0.012117143720388412
 22
2.2683253288269043
 32
6.734270095825195
 13
-0.006990350782871246
 23
2.2683253288269043
 33
6.552037239074707
  0
3DFACE
  8
0
 10
-2.6969587802886963
 20
2.2683253288269043
 30
3.830113410949707
 11
-3.1879613399505615
 21
2.2683253288269043
 31
3.5354299545288086
 12
-2.094322919845581
 22
2.2683253288269043
 32
4.622142314910889
 13
-2.094322919845581
 23
2.2683253288269043
 33
4.622142314910889
  0
3DFACE
  8
0
 10
-1.7519795894622803
 20
-2.2692291736602783
 30
4.788349151611328
 11
-2.0943238735198975
 21
-2.2692291736602783
 31
4.622142314910889
 12
-3.187962770462036
 22
-2.2692294120788574
 32
3.5354299545288086
 13
-3.187962770462036
 23
-2.2692294120788574
 33
3.5354299545288086
  0
3DFACE
  8
0
 10
0.05664721503853798
 20
2.2683253288269043
 30
6.552037239074707
 11
0.06381833553314209
 21
2.2683253288269043
 31
6.734270095825195
 12
2.120394229888916
 22
2.2683255672454834
 32
4.6297502517700195
 13
2.704622983932495
 23
2.2683253288269043
 33
3.830113410949707
  0
3DFACE
  8
0
 10
2.704622983932495
 20
2.2683253288269043
 30
3.830113410949707
 11
2.120394229888916
 21
2.2683255672454834
 31
4.6297502517700195
 12
3.223513603210449
 22
2.2683253288269043
 32
3.5354299545288086
 13
3.223513603210449
 23
2.2683253288269043
 33
3.5354299545288086
  0
3DFACE
  8
0
 10
-0.006990678608417511
 20
-3.1492600440979004
 30
6.552037239074707
 11
-0.012117482721805573
 21
-3.1492600440979004
 31
6.734270095825195
 12
-0.9264137744903564
 22
-3.1492600440979004
 32
5.765167236328125
 13
-0.7732147574424744
 23
-3.1492600440979004
 33
5.7398834228515625
  0
3DFACE
  8
0
 10
0.8228703737258911
 20
-3.1492600440979004
 30
5.7398834228515625
 11
0.9781134724617004
 21
-3.1492600440979004
 31
5.810521125793457
 12
0.06381800025701523
 22
-3.1492600440979004
 32
6.734270095825195
 13
0.05664687603712082
 23
-3.1492600440979004
 33
6.552037239074707
  0
3DFACE
  8
0
 10
-0.006990350782871246
 20
2.2683253288269043
 30
6.552037239074707
 11
-0.012117143720388412
 21
2.2683253288269043
 31
6.734270095825195
 12
0.06381833553314209
 22
2.2683253288269043
 32
6.734270095825195
 13
0.05664721503853798
 23
2.2683253288269043
 33
6.552037239074707
  0
3DFACE
  8
0
 10
0.05664687603712082
 20
-3.1492600440979004
 30
6.552037239074707
 11
0.06381800025701523
 21
-3.1492600440979004
 31
6.734270095825195
 12
-0.012117482721805573
 22
-3.1492600440979004
 32
6.734270095825195
 13
-0.006990678608417511
 23
-3.1492600440979004
 33
6.552037239074707
  0
3DFACE
  8
0
 10
0.06381800025701523
 20
-3.1492600440979004
 30
6.734270095825195
 11
0.9781134724617004
 21
-2.7571728229522705
 31
5.810521125793457
 12
0.06381833553314209
 22
2.2683253288269043
 32
6.734270095825195
 13
0.06381833553314209
 23
2.2683253288269043
 33
6.734270095825195
  0
3DFACE
  8
0
 10
-0.012117143720388412
 20
2.2683253288269043
 30
6.734270095825195
 11
-0.9264137744903564
 21
-2.7571730613708496
 31
5.765167236328125
 12
-0.012117482721805573
 22
-3.1492600440979004
 32
6.734270095825195
 13
-0.012117482721805573
 23
-3.1492600440979004
 33
6.734270095825195
  0
3DFACE
  8
0
 10
-2.0943238735198975
 20
-2.2692291736602783
 30
4.622142314910889
 11
-0.9264137744903564
 21
-2.7571730613708496
 31
5.765167236328125
 12
-0.012117143720388412
 22
2.2683253288269043
 32
6.734270095825195
 13
-2.094322919845581
 23
2.2683253288269043
 33
4.622142314910889
  0
3DFACE
  8
0
 10
-3.187962770462036
 20
-2.2692294120788574
 30
3.5354299545288086
 11
-2.0943238735198975
 21
-2.2692291736602783
 31
4.622142314910889
 12
-2.094322919845581
 22
2.2683253288269043
 32
4.622142314910889
 13
-3.1879613399505615
 23
2.2683253288269043
 33
3.5354299545288086
  0
3DFACE
  8
0
 10
2.120394229888916
 20
2.2683255672454834
 30
4.6297502517700195
 11
0.06381833553314209
 21
2.2683253288269043
 31
6.734270095825195
 12
0.9781134724617004
 22
-2.7571728229522705
 32
5.810521125793457
 13
2.120393991470337
 23
-2.269228935241699
 33
4.6297502517700195
  0
3DFACE
  8
0
 10
3.223513603210449
 20
2.2683253288269043
 30
3.5354299545288086
 11
2.120394229888916
 21
2.2683255672454834
 31
4.6297502517700195
 12
2.120393991470337
 22
-2.269228935241699
 32
4.6297502517700195
 13
3.22351336479187
 23
-2.2692294120788574
 33
3.5354299545288086
  0
3DFACE
  8
0
 10
-0.012117143720388412
 20
2.2683253288269043
 30
6.734270095825195
 11
-0.012117482721805573
 21
-3.1492600440979004
 31
6.734270095825195
 12
0.06381800025701523
 22
-3.1492600440979004
 32
6.734270095825195
 13
0.06381833553314209
 23
2.2683253288269043
 33
6.734270095825195
  0
3DFACE
  8
0
 10
0.8228703737258911
 20
-2.5666253566741943
 30
5.7398834228515625
 11
0.8228700160980225
 21
-2.5666348934173584
 31
2.1500818729400635
 12
1.7801556587219238
 22
-2.5666420459747314
 32
2.1500818729400635
 13
1.780155897140503
 23
-2.5666325092315674
 33
4.788349151611328
  0
3DFACE
  8
0
 10
-0.7732144594192505
 20
-2.5666229724884033
 30
2.1500818729400635
 11
-0.7732146978378296
 21
-2.5666110515594482
 31
5.7398834228515625
 12
-1.7519795894622803
 22
-2.566603899002075
 32
4.788349151611328
 13
-1.7519793510437012
 23
-2.5666158199310303
 33
2.1500818729400635
  0
3DFACE
  8
0
 10
-2.7312004566192627
 20
-2.1525139808654785
 30
0.0
 11
-2.7312004566192627
 21
-2.1525139808654785
 31
2.0557031631469727
 12
-2.7312004566192627
 22
2.1525142192840576
 32
2.0557031631469727
 13
-2.7312004566192627
 23
2.1525139808654785
 33
0.0
  0
3DFACE
  8
0
 10
-2.7312004566192627
 20
2.1525139808654785
 30
0.0
 11
-2.7312004566192627
 21
2.1525142192840576
 31
2.0557031631469727
 12
2.7312004566192627
 22
2.1525142192840576
 32
2.0557031631469727
 13
2.7312004566192627
 23
2.1525139808654785
 33
0.0
  0
3DFACE
  8
0
 10
2.7312004566192627
 20
2.1525139808654785
 30
0.0
 11
2.7312004566192627
 21
2.1525142192840576
 31
2.0557031631469727
 12
2.7312004566192627
 22
-2.1525137424468994
 32
2.0557031631469727
 13
2.7312004566192627
 23
-2.1525137424468994
 33
0.0
  0
3DFACE
  8
0
 10
-2.7312004566192627
 20
-2.1525139808654785
 30
2.0557031631469727
 11
-2.7312004566192627
 21
-2.1525139808654785
 31
0.0
 12
2.7312004566192627
 22
-2.1525137424468994
 32
0.0
 13
2.7312004566192627
 23
-2.1525137424468994
 33
2.0557031631469727
  0
3DFACE
  8
0
 10
-2.7312004566192627
 20
-2.1525139808654785
 30
2.0557031631469727
 11
2.7312004566192627
 21
-2.1525137424468994
 31
2.0557031631469727
 12
2.7592790126800537
 22
-2.193082332611084
 32
2.1029698848724365
 13
-2.7592804431915283
 23
-2.193082332611084
 33
2.1029698848724365
  0
3DFACE
  8
0
 10
2.7312004566192627
 20
-2.1525137424468994
 30
2.0557031631469727
 11
2.7312004566192627
 21
2.1525142192840576
 31
2.0557031631469727
 12
2.759280204772949
 22
2.1637606620788574
 32
2.1029698848724365
 13
2.7592790126800537
 23
-2.193082332611084
 33
2.1029698848724365
  0
3DFACE
  8
0
 10
2.7312004566192627
 20
2.1525142192840576
 30
2.0557031631469727
 11
-2.7312004566192627
 21
2.1525142192840576
 31
2.0557031631469727
 12
-2.75927734375
 22
2.163762092590332
 32
2.1029698848724365
 13
2.759280204772949
 23
2.1637606620788574
 33
2.1029698848724365
  0
3DFACE
  8
0
 10
-2.7312004566192627
 20
2.1525142192840576
 30
2.0557031631469727
 11
-2.7312004566192627
 21
-2.1525139808654785
 31
2.0557031631469727
 12
-2.7592804431915283
 22
-2.193082332611084
 32
2.1029698848724365
 13
-2.75927734375
 23
2.163762092590332
 33
2.1029698848724365
  0
3DFACE
  8
0
 10
-2.75927734375
 20
2.163762092590332
 30
2.1029698848724365
 11
-2.7592804431915283
 21
-2.193082332611084
 31
2.1029698848724365
 12
-2.7592804431915283
 22
-2.193082332611084
 32
2.1500816345214844
 13
-2.75927734375
 23
2.163760185241699
 33
2.1500816345214844
  0
3DFACE
  8
0
 10
2.7592790126800537
 20
-2.193082332611084
 30
2.1029698848724365
 11
2.759280204772949
 21
2.1637606620788574
 31
2.1029698848724365
 12
2.759280204772949
 22
2.163760185241699
 32
2.1500816345214844
 13
2.7592790126800537
 23
-2.193082332611084
 33
2.1500816345214844
  0
3DFACE
  8
0
 10
2.7774641513824463
 20
-0.32371217012405396
 30
0.5525007247924805
 11
2.7774641513824463
 21
-0.36869049072265625
 31
0.5902676582336426
 12
2.777463912963867
 22
-0.8414440155029297
 32
0.5902676582336426
 13
2.777463912963867
 23
-0.8864226341247559
 33
0.5525007247924805
  0
3DFACE
  8
0
 10
2.777463912963867
 20
-0.8864229321479797
 30
0.9023785591125488
 11
2.777463912963867
 21
-0.8414440155029297
 31
0.8701224327087402
 12
2.777463912963867
 22
-0.36869049072265625
 32
0.8701224327087402
 13
2.777463912963867
 23
-0.3237118124961853
 33
0.9057735204696655
  0
3DFACE
  8
0
 10
2.777463912963867
 20
-0.3237118124961853
 30
0.9057735204696655
 11
2.777463912963867
 21
-0.36869049072265625
 31
0.8701224327087402
 12
2.7774641513824463
 22
-0.36869049072265625
 32
0.5902676582336426
 13
2.7774641513824463
 23
-0.32371217012405396
 33
0.5525007247924805
  0
3DFACE
  8
0
 10
2.777463912963867
 20
-0.8864226341247559
 30
0.5525007247924805
 11
2.777463912963867
 21
-0.8414440155029297
 31
0.5902676582336426
 12
2.777463912963867
 22
-0.8414440155029297
 32
0.8701224327087402
 13
2.777463912963867
 23
-0.8864229321479797
 33
0.9023785591125488
  0
3DFACE
  8
0
 10
2.777463912963867
 20
-0.8414440155029297
 30
0.5902676582336426
 11
2.746839761734009
 21
-0.8414440155029297
 31
0.5902676582336426
 12
2.746839761734009
 22
-0.8414440155029297
 32
0.8701224327087402
 13
2.777463912963867
 23
-0.8414440155029297
 33
0.8701224327087402
  0
3DFACE
  8
0
 10
2.777463912963867
 20
-0.36869049072265625
 30
0.8701224327087402
 11
2.746839761734009
 21
-0.36869049072265625
 31
0.8701224327087402
 12
2.746839761734009
 22
-0.36869049072265625
 32
0.5902676582336426
 13
2.7774641513824463
 23
-0.36869049072265625
 33
0.5902676582336426
  0
3DFACE
  8
0
 10
2.777463912963867
 20
-0.8414440155029297
 30
0.8701224327087402
 11
2.746839761734009
 21
-0.8414440155029297
 31
0.8701224327087402
 12
2.746839761734009
 22
-0.36869049072265625
 32
0.8701224327087402
 13
2.777463912963867
 23
-0.36869049072265625
 33
0.8701224327087402
  0
3DFACE
  8
0
 10
2.7774641513824463
 20
-0.36869049072265625
 30
0.5902676582336426
 11
2.746839761734009
 21
-0.36869049072265625
 31
0.5902676582336426
 12
2.746839761734009
 22
-0.8414440155029297
 32
0.5902676582336426
 13
2.777463912963867
 23
-0.8414440155029297
 33
0.5902676582336426
  0
3DFACE
  8
0
 10
2.777463912963867
 20
-0.8864226341247559
 30
0.5525007247924805
 11
2.7312004566192627
 21
-0.8864226341247559
 31
0.5525007247924805
 12
2.7312004566192627
 22
-0.3237117528915405
 32
0.5525007247924805
 13
2.7774641513824463
 23
-0.32371217012405396
 33
0.5525007247924805
  0
3DFACE
  8
0
 10
2.777463912963867
 20
-0.3237118124961853
 30
0.9057735204696655
 11
2.7312004566192627
 21
-0.3237117528915405
 31
0.9057735204696655
 12
2.7312004566192627
 22
-0.886422872543335
 32
0.9023785591125488
 13
2.777463912963867
 23
-0.8864229321479797
 33
0.9023785591125488
  0
3DFACE
  8
0
 10
2.7774641513824463
 20
-0.32371217012405396
 30
0.5525007247924805
 11
2.7312004566192627
 21
-0.3237117528915405
 31
0.5525007247924805
 12
2.7312004566192627
 22
-0.3237117528915405
 32
0.9057735204696655
 13
2.777463912963867
 23
-0.3237118124961853
 33
0.9057735204696655
  0
3DFACE
  8
0
 10
2.777463912963867
 20
-0.8864229321479797
 30
0.9023785591125488
 11
2.7312004566192627
 21
-0.886422872543335
 31
0.9023785591125488
 12
2.7312004566192627
 22
-0.8864226341247559
 32
0.5525007247924805
 13
2.777463912963867
 23
-0.8864226341247559
 33
0.5525007247924805
  0
3DFACE
  8
0
 10
2.7598865032196045
 20
-0.36869049072265625
 30
0.7445945739746094
 11
2.746839761734009
 21
-0.36869049072265625
 31
0.7445945739746094
 12
2.746839761734009
 22
-0.8414438962936401
 32
0.7445945739746094
 13
2.7598865032196045
 23
-0.8414439558982849
 33
0.7445945739746094
  0
3DFACE
  8
0
 10
2.7598865032196045
 20
-0.8414439558982849
 30
0.7106409072875977
 11
2.746839761734009
 21
-0.8414438962936401
 31
0.7106409072875977
 12
2.746839761734009
 22
-0.36869049072265625
 32
0.7106409072875977
 13
2.7598865032196045
 23
-0.36869049072265625
 33
0.7106409072875977
  0
3DFACE
  8
0
 10
2.7598865032196045
 20
-0.8414439558982849
 30
0.7445945739746094
 11
2.7598865032196045
 21
-0.8414439558982849
 31
0.7106409072875977
 12
2.7598865032196045
 22
-0.36869049072265625
 32
0.7106409072875977
 13
2.7598865032196045
 23
-0.36869049072265625
 33
0.7445945739746094
  0
3DFACE
  8
0
 10
2.7699244022369385
 20
-0.5927082300186157
 30
0.8701224327087402
 11
2.7699244022369385
 21
-0.6266618967056274
 31
0.8701224327087402
 12
2.7699244022369385
 22
-0.6266618967056274
 32
0.5902676582336426
 13
2.7699244022369385
 23
-0.5927082300186157
 33
0.5902676582336426
  0
3DFACE
  8
0
 10
2.7699244022369385
 20
-0.6266618967056274
 30
0.8701224327087402
 11
2.746839761734009
 21
-0.6266618967056274
 31
0.8701224327087402
 12
2.746839761734009
 22
-0.6266618967056274
 32
0.5902676582336426
 13
2.7699244022369385
 23
-0.6266618967056274
 33
0.5902676582336426
  0
3DFACE
  8
0
 10
2.7699244022369385
 20
-0.5927082300186157
 30
0.5902676582336426
 11
2.746839761734009
 21
-0.5927082300186157
 31
0.5902676582336426
 12
2.746839761734009
 22
-0.5927082300186157
 32
0.8701224327087402
 13
2.7699244022369385
 23
-0.5927082300186157
 33
0.8701224327087402
  0
3DFACE
  8
0
 10
0.9781134724617004
 20
-2.7571728229522705
 30
5.810521125793457
 11
2.120393753051758
 21
-2.7571730613708496
 31
4.6297502517700195
 12
2.120393991470337
 22
-2.269228935241699
 32
4.6297502517700195
 13
2.120393991470337
 23
-2.269228935241699
 33
4.6297502517700195
  0
3DFACE
  8
0
 10
-2.0943238735198975
 20
-2.2692291736602783
 30
4.622142314910889
 11
-2.0943243503570557
 21
-2.7571728229522705
 31
4.622142314910889
 12
-0.9264137744903564
 22
-2.7571730613708496
 32
5.765167236328125
 13
-0.9264137744903564
 23
-2.7571730613708496
 33
5.765167236328125
  0
3DFACE
  8
0
 10
1.780155897140503
 20
-2.7571730613708496
 30
4.788349151611328
 11
2.120393753051758
 21
-2.7571730613708496
 31
4.6297502517700195
 12
0.9781134724617004
 22
-2.7571728229522705
 32
5.810521125793457
 13
0.8228703737258911
 23
-2.7571730613708496
 33
5.7398834228515625
  0
3DFACE
  8
0
 10
-0.7732146978378296
 20
-2.7571730613708496
 30
5.7398834228515625
 11
-0.9264137744903564
 21
-2.7571730613708496
 31
5.765167236328125
 12
-2.0943243503570557
 22
-2.7571728229522705
 32
4.622142314910889
 13
-1.7519795894622803
 23
-2.7571728229522705
 33
4.788349151611328
  0
3DFACE
  8
0
 10
0.9781134724617004
 20
-2.7571728229522705
 30
5.810521125793457
 11
0.06381800025701523
 21
-3.1492600440979004
 31
6.734270095825195
 12
0.9781134724617004
 22
-3.1492600440979004
 32
5.810521125793457
 13
0.9781134724617004
 23
-3.1492600440979004
 33
5.810521125793457
  0
3DFACE
  8
0
 10
-0.9264137744903564
 20
-3.1492600440979004
 30
5.765167236328125
 11
-0.012117482721805573
 21
-3.1492600440979004
 31
6.734270095825195
 12
-0.9264137744903564
 22
-2.7571730613708496
 32
5.765167236328125
 13
-0.9264137744903564
 23
-2.7571730613708496
 33
5.765167236328125
  0
3DFACE
  8
0
 10
1.7801556587219238
 20
-2.1254618167877197
 30
2.1500816345214844
 11
2.704622983932495
 21
-2.1254618167877197
 31
2.1500816345214844
 12
2.704622983932495
 22
-2.1254615783691406
 32
3.830113410949707
 13
1.780155897140503
 23
-2.1254618167877197
 33
4.788349151611328
  0
3DFACE
  8
0
 10
2.704622983932495
 20
-2.1254618167877197
 30
2.1500816345214844
 11
2.704622983932495
 21
2.108621597290039
 31
2.1500816345214844
 12
2.704622983932495
 22
2.108621597290039
 32
3.830113410949707
 13
2.704622983932495
 23
-2.1254615783691406
 33
3.830113410949707
  0
3DFACE
  8
0
 10
0.021248459815979004
 20
2.108621597290039
 30
2.1500816345214844
 11
-2.6969587802886963
 21
2.108621597290039
 31
2.1500816345214844
 12
-2.6969587802886963
 22
2.108621597290039
 32
3.830113410949707
 13
-2.6969587802886963
 23
2.108621597290039
 33
3.830113410949707
  0
3DFACE
  8
0
 10
-0.27023279666900635
 20
-2.227672576904297
 30
0.5452265739440918
 11
0.2863634526729584
 21
-2.227672576904297
 31
0.5452265739440918
 12
0.28636351227760315
 22
-2.227672576904297
 32
1.8872253894805908
 13
-0.2702328860759735
 23
-2.227672576904297
 33
1.8872253894805908
  0
3DFACE
  8
0
 10
1.780155897140503
 20
-2.5666325092315674
 30
4.788349151611328
 11
2.120393753051758
 21
-2.7571730613708496
 31
4.6297502517700195
 12
1.780155897140503
 22
-2.7571730613708496
 32
4.788349151611328
 13
1.780155897140503
 23
-2.7571730613708496
 33
4.788349151611328
  0
3DFACE
  8
0
 10
-1.7519795894622803
 20
-2.7571728229522705
 30
4.788349151611328
 11
-2.0943243503570557
 21
-2.7571728229522705
 31
4.622142314910889
 12
-1.7519795894622803
 22
-2.566603899002075
 32
4.788349151611328
 13
-1.7519795894622803
 23
-2.566603899002075
 33
4.788349151611328
  0
3DFACE
  8
0
 10
0.8228703737258911
 20
-2.9977593421936035
 30
5.7398834228515625
 11
0.9781134724617004
 21
-3.1492600440979004
 31
5.810521125793457
 12
0.8228703737258911
 22
-3.1492600440979004
 32
5.7398834228515625
 13
0.8228703737258911
 23
-3.1492600440979004
 33
5.7398834228515625
  0
3DFACE
  8
0
 10
-0.7732147574424744
 20
-3.1492600440979004
 30
5.7398834228515625
 11
-0.9264137744903564
 21
-3.1492600440979004
 31
5.765167236328125
 12
-0.7732146978378296
 22
-2.9977593421936035
 32
5.7398834228515625
 13
-0.7732146978378296
 23
-2.9977593421936035
 33
5.7398834228515625
  0
3DFACE
  8
0
 10
-0.006990313529968262
 20
2.108621597290039
 30
6.552037239074707
 11
-2.6969587802886963
 21
2.108621597290039
 31
3.830113410949707
 12
-2.6969587802886963
 22
2.2683253288269043
 32
3.830113410949707
 13
-0.006990350782871246
 23
2.2683253288269043
 33
6.552037239074707
  0
3DFACE
  8
0
 10
0.05664718151092529
 20
2.108621597290039
 30
6.552037239074707
 11
-0.006990313529968262
 21
2.108621597290039
 31
6.552037239074707
 12
-0.006990350782871246
 22
2.2683253288269043
 32
6.552037239074707
 13
0.05664721503853798
 23
2.2683253288269043
 33
6.552037239074707
  0
3DFACE
  8
0
 10
0.05664718151092529
 20
2.108621597290039
 30
6.552037239074707
 11
0.05664721503853798
 21
2.2683253288269043
 31
6.552037239074707
 12
2.704622983932495
 22
2.2683253288269043
 32
3.830113410949707
 13
2.704622983932495
 23
2.108621597290039
 33
3.830113410949707
  0
3DFACE
  8
0
 10
0.021248340606689453
 20
2.163760185241699
 30
2.1500816345214844
 11
2.759280204772949
 21
2.1637606620788574
 31
2.1029698848724365
 12
-2.75927734375
 22
2.163762092590332
 32
2.1029698848724365
 13
-2.75927734375
 23
2.163762092590332
 33
2.1029698848724365
  0
3DFACE
  8
0
 10
-2.75927734375
 20
2.163760185241699
 30
2.1500816345214844
 11
0.021248340606689453
 21
2.163760185241699
 31
2.1500816345214844
 12
-2.75927734375
 22
2.163762092590332
 32
2.1029698848724365
 13
-2.75927734375
 23
2.163762092590332
 33
2.1029698848724365
  0
3DFACE
  8
0
 10
0.021248340606689453
 20
2.163760185241699
 30
2.1500816345214844
 11
2.759280204772949
 21
2.163760185241699
 31
2.1500816345214844
 12
2.759280204772949
 22
2.1637606620788574
 32
2.1029698848724365
 13
2.759280204772949
 23
2.1637606620788574
 33
2.1029698848724365
  0
3DFACE
  8
0
 10
0.021248459815979004
 20
2.108621597290039
 30
2.1500816345214844
 11
0.021248340606689453
 21
2.163760185241699
 31
2.1500816345214844
 12
-2.75927734375
 22
2.163760185241699
 32
2.1500816345214844
 13
-2.6969587802886963
 23
2.108621597290039
 33
2.1500816345214844
  0
3DFACE
  8
0
 10
0.021248459815979004
 20
2.108621597290039
 30
2.1500816345214844
 11
2.704622983932495
 21
2.108621597290039
 31
2.1500816345214844
 12
2.759280204772949
 22
2.163760185241699
 32
2.1500816345214844
 13
0.021248340606689453
 23
2.163760185241699
 33
2.1500816345214844
  0
3DFACE
  8
0
 10
2.704622983932495
 20
-2.1254618167877197
 30
2.1500816345214844
 11
2.7592790126800537
 21
-2.193082332611084
 31
2.1500816345214844
 12
2.759280204772949
 22
2.163760185241699
 32
2.1500816345214844
 13
2.704622983932495
 23
2.108621597290039
 33
2.1500816345214844
  0
3DFACE
  8
0
 10
1.7801556587219238
 20
-2.193082332611084
 30
2.1500816345214844
 11
-1.7519793510437012
 21
-2.193082332611084
 31
2.1500816345214844
 12
-2.7592804431915283
 22
-2.193082332611084
 32
2.1029698848724365
 13
2.7592790126800537
 23
-2.193082332611084
 33
2.1029698848724365
  0
3DFACE
  8
0
 10
2.7592790126800537
 20
-2.193082332611084
 30
2.1500816345214844
 11
1.7801556587219238
 21
-2.193082332611084
 31
2.1500816345214844
 12
2.7592790126800537
 22
-2.193082332611084
 32
2.1029698848724365
 13
2.7592790126800537
 23
-2.193082332611084
 33
2.1029698848724365
  0
3DFACE
  8
0
 10
-1.7519793510437012
 20
-2.193082332611084
 30
2.1500816345214844
 11
-2.7592804431915283
 21
-2.193082332611084
 31
2.1500816345214844
 12
-2.7592804431915283
 22
-2.193082332611084
 32
2.1029698848724365
 13
-2.7592804431915283
 23
-2.193082332611084
 33
2.1029698848724365
  0
3DFACE
  8
0
 10
-1.7519792318344116
 20
-2.1254618167877197
 30
2.1500816345214844
 11
-2.6969587802886963
 21
-2.1254615783691406
 31
2.1500816345214844
 12
-2.7592804431915283
 22
-2.193082332611084
 32
2.1500816345214844
 13
-1.7519793510437012
 23
-2.193082332611084
 33
2.1500816345214844
  0
3DFACE
  8
0
 10
1.7801556587219238
 20
-2.1254618167877197
 30
2.1500816345214844
 11
1.7801556587219238
 21
-2.193082332611084
 31
2.1500816345214844
 12
2.7592790126800537
 22
-2.193082332611084
 32
2.1500816345214844
 13
2.704622983932495
 23
-2.1254618167877197
 33
2.1500816345214844
  0
3DFACE
  8
0
 10
1.7801556587219238
 20
-2.5666420459747314
 30
2.1500818729400635
 11
0.8228700160980225
 21
-2.5666348934173584
 31
2.1500818729400635
 12
1.7801556587219238
 22
-2.193082332611084
 32
2.1500816345214844
 13
1.7801556587219238
 23
-2.193082332611084
 33
2.1500816345214844
  0
3DFACE
  8
0
 10
-0.7732144594192505
 20
-2.5666229724884033
 30
2.1500818729400635
 11
-1.7519793510437012
 21
-2.5666158199310303
 31
2.1500818729400635
 12
-1.7519793510437012
 22
-2.193082332611084
 32
2.1500816345214844
 13
-1.7519793510437012
 23
-2.193082332611084
 33
2.1500816345214844
  0
3DFACE
  8
0
 10
0.8228700757026672
 20
-2.9977593421936035
 30
2.1500816345214844
 11
-0.7732143998146057
 21
-2.9977593421936035
 31
2.1500816345214844
 12
-0.7732144594192505
 22
-2.5666229724884033
 32
2.1500818729400635
 13
0.8228700160980225
 23
-2.5666348934173584
 33
2.1500818729400635
  0
3DFACE
  8
0
 10
-1.7519793510437012
 20
-2.193082332611084
 30
2.1500816345214844
 11
1.7801556587219238
 21
-2.193082332611084
 31
2.1500816345214844
 12
0.8228700160980225
 22
-2.5666348934173584
 32
2.1500818729400635
 13
-0.7732144594192505
 23
-2.5666229724884033
 33
2.1500818729400635
  0
3DFACE
  8
0
 10
-0.7732146978378296
 20
-2.9977593421936035
 30
5.7398834228515625
 11
-0.7732146978378296
 21
-2.7571730613708496
 31
5.7398834228515625
 12
-0.7732143998146057
 22
-2.9977593421936035
 32
2.1500816345214844
 13
-0.7732143998146057
 23
-2.9977593421936035
 33
2.1500816345214844
  0
3DFACE
  8
0
 10
0.8228703737258911
 20
-2.7571730613708496
 30
5.7398834228515625
 11
0.8228703737258911
 21
-2.9977593421936035
 31
5.7398834228515625
 12
0.8228700757026672
 22
-2.9977593421936035
 32
2.1500816345214844
 13
0.8228700757026672
 23
-2.9977593421936035
 33
2.1500816345214844
  0
3DFACE
  8
0
 10
-0.006990667432546616
 20
-2.9977588653564453
 30
6.552037239074707
 11
-0.006990678608417511
 21
-3.1492600440979004
 31
6.552037239074707
 12
-0.7732147574424744
 22
-3.1492600440979004
 32
5.7398834228515625
 13
-0.7732146978378296
 23
-2.9977593421936035
 33
5.7398834228515625
  0
3DFACE
  8
0
 10
0.05664689838886261
 20
-2.9977593421936035
 30
6.552037239074707
 11
0.05664687603712082
 21
-3.1492600440979004
 31
6.552037239074707
 12
-0.006990678608417511
 22
-3.1492600440979004
 32
6.552037239074707
 13
-0.006990667432546616
 23
-2.9977588653564453
 33
6.552037239074707
  0
3DFACE
  8
0
 10
0.05664689838886261
 20
-2.9977593421936035
 30
6.552037239074707
 11
0.8228703737258911
 21
-2.9977593421936035
 31
5.7398834228515625
 12
0.8228703737258911
 22
-3.1492600440979004
 32
5.7398834228515625
 13
0.05664687603712082
 23
-3.1492600440979004
 33
6.552037239074707
  0
3DFACE
  8
0
 10
-1.7519795894622803
 20
-2.7571728229522705
 30
4.788349151611328
 11
-1.7519795894622803
 21
-2.566603899002075
 31
4.788349151611328
 12
-0.7732146978378296
 22
-2.5666110515594482
 32
5.7398834228515625
 13
-0.7732146978378296
 23
-2.7571730613708496
 33
5.7398834228515625
  0
3DFACE
  8
0
 10
-2.6969587802886963
 20
-2.1254615783691406
 30
3.830113410949707
 11
-3.187962770462036
 21
-2.2692294120788574
 31
3.5354299545288086
 12
-3.1879613399505615
 22
2.2683253288269043
 32
3.5354299545288086
 13
-2.6969587802886963
 23
2.108621597290039
 33
3.830113410949707
  0
3DFACE
  8
0
 10
-2.6969587802886963
 20
-2.269228935241699
 30
3.830113410949707
 11
-3.187962770462036
 21
-2.2692294120788574
 31
3.5354299545288086
 12
-2.6969587802886963
 22
-2.1254615783691406
 32
3.830113410949707
 13
-2.6969587802886963
 23
-2.1254615783691406
 33
3.830113410949707
  0
3DFACE
  8
0
 10
-2.6969587802886963
 20
2.108621597290039
 30
3.830113410949707
 11
-3.1879613399505615
 21
2.2683253288269043
 31
3.5354299545288086
 12
-2.6969587802886963
 22
2.2683253288269043
 32
3.830113410949707
 13
-2.6969587802886963
 23
2.2683253288269043
 33
3.830113410949707
  0
3DFACE
  8
0
 10
2.704622983932495
 20
2.108621597290039
 30
3.830113410949707
 11
3.223513603210449
 21
2.2683253288269043
 31
3.5354299545288086
 12
3.22351336479187
 22
-2.2692294120788574
 32
3.5354299545288086
 13
2.704622983932495
 23
-2.1254615783691406
 33
3.830113410949707
  0
3DFACE
  8
0
 10
2.704622983932495
 20
2.2683253288269043
 30
3.830113410949707
 11
3.223513603210449
 21
2.2683253288269043
 31
3.5354299545288086
 12
2.704622983932495
 22
2.108621597290039
 32
3.830113410949707
 13
2.704622983932495
 23
2.108621597290039
 33
3.830113410949707
  0
3DFACE
  8
0
 10
-1.7519795894622803
 20
-2.2692291736602783
 30
4.788349151611328
 11
-2.6969587802886963
 21
-2.269228935241699
 31
3.830113410949707
 12
-2.6969587802886963
 22
-2.1254615783691406
 32
3.830113410949707
 13
-1.7519795894622803
 23
-2.1254618167877197
 33
4.788349151611328
  0
3DFACE
  8
0
 10
1.780155897140503
 20
-2.7571730613708496
 30
4.788349151611328
 11
0.8228703737258911
 21
-2.7571730613708496
 31
5.7398834228515625
 12
0.8228703737258911
 22
-2.5666253566741943
 32
5.7398834228515625
 13
1.780155897140503
 23
-2.5666325092315674
 33
4.788349151611328
  0
3DFACE
  8
0
 10
1.780155897140503
 20
-2.269228935241699
 30
4.788349151611328
 11
1.780155897140503
 21
-2.1254618167877197
 31
4.788349151611328
 12
2.704622983932495
 22
-2.1254615783691406
 32
3.830113410949707
 13
2.704622983932495
 23
-2.269228935241699
 33
3.830113410949707
  0
3DFACE
  8
0
 10
-2.6969587802886963
 20
2.108621597290039
 30
2.1500816345214844
 11
-2.75927734375
 21
2.163760185241699
 31
2.1500816345214844
 12
-2.7592804431915283
 22
-2.193082332611084
 32
2.1500816345214844
 13
-2.6969587802886963
 23
-2.1254615783691406
 33
2.1500816345214844
  0
3DFACE
  8
0
 10
0.021248459815979004
 20
2.108621597290039
 30
2.1500816345214844
 11
-2.6969587802886963
 21
2.108621597290039
 31
3.830113410949707
 12
-0.006990313529968262
 22
2.108621597290039
 32
6.552037239074707
 13
-0.006990313529968262
 23
2.108621597290039
 33
6.552037239074707
  0
3DFACE
  8
0
 10
0.021248459815979004
 20
2.108621597290039
 30
2.1500816345214844
 11
-0.006990313529968262
 21
2.108621597290039
 31
6.552037239074707
 12
0.05664718151092529
 22
2.108621597290039
 32
6.552037239074707
 13
0.05664718151092529
 23
2.108621597290039
 33
6.552037239074707
  0
3DFACE
  8
0
 10
2.704622983932495
 20
2.108621597290039
 30
3.830113410949707
 11
2.704622983932495
 21
2.108621597290039
 31
2.1500816345214844
 12
0.021248459815979004
 22
2.108621597290039
 32
2.1500816345214844
 13
0.021248459815979004
 23
2.108621597290039
 33
2.1500816345214844
  0
3DFACE
  8
0
 10
0.021248459815979004
 20
2.108621597290039
 30
2.1500816345214844
 11
0.05664718151092529
 21
2.108621597290039
 31
6.552037239074707
 12
2.704622983932495
 22
2.108621597290039
 32
3.830113410949707
 13
2.704622983932495
 23
2.108621597290039
 33
3.830113410949707
  0
3DFACE
  8
0
 10
1.7801556587219238
 20
-2.1254618167877197
 30
2.1500816345214844
 11
1.780155897140503
 21
-2.1254618167877197
 31
4.788349151611328
 12
1.780155897140503
 22
-2.269228935241699
 32
4.788349151611328
 13
1.7801556587219238
 23
-2.193082332611084
 33
2.1500816345214844
  0
3DFACE
  8
0
 10
1.7801556587219238
 20
-2.193082332611084
 30
2.1500816345214844
 11
1.780155897140503
 21
-2.269228935241699
 31
4.788349151611328
 12
1.780155897140503
 22
-2.5666325092315674
 32
4.788349151611328
 13
1.7801556587219238
 23
-2.5666420459747314
 33
2.1500818729400635
  0
3DFACE
  8
0
 10
0.8228700757026672
 20
-2.9977593421936035
 30
2.1500816345214844
 11
0.8228700160980225
 21
-2.5666348934173584
 31
2.1500818729400635
 12
0.8228703737258911
 22
-2.5666253566741943
 32
5.7398834228515625
 13
0.8228703737258911
 23
-2.7571730613708496
 33
5.7398834228515625
  0
3DFACE
  8
0
 10
0.9781134724617004
 20
-3.1492600440979004
 30
5.810521125793457
 11
0.8228703737258911
 21
-2.9977593421936035
 31
5.7398834228515625
 12
0.8228703737258911
 22
-2.7571730613708496
 32
5.7398834228515625
 13
0.9781134724617004
 23
-2.7571728229522705
 33
5.810521125793457
  0
3DFACE
  8
0
 10
2.120393753051758
 20
-2.7571730613708496
 30
4.6297502517700195
 11
1.780155897140503
 21
-2.5666325092315674
 31
4.788349151611328
 12
1.780155897140503
 22
-2.269228935241699
 32
4.788349151611328
 13
2.120393991470337
 23
-2.269228935241699
 33
4.6297502517700195
  0
3DFACE
  8
0
 10
-0.9264137744903564
 20
-3.1492600440979004
 30
5.765167236328125
 11
-0.9264137744903564
 21
-2.7571730613708496
 31
5.765167236328125
 12
-0.7732146978378296
 22
-2.7571730613708496
 32
5.7398834228515625
 13
-0.7732146978378296
 23
-2.9977593421936035
 33
5.7398834228515625
  0
3DFACE
  8
0
 10
-2.0943243503570557
 20
-2.7571728229522705
 30
4.622142314910889
 11
-2.0943238735198975
 21
-2.2692291736602783
 31
4.622142314910889
 12
-1.7519795894622803
 22
-2.2692291736602783
 32
4.788349151611328
 13
-1.7519795894622803
 23
-2.566603899002075
 33
4.788349151611328
  0
3DFACE
  8
0
 10
-0.7732143998146057
 20
-2.9977593421936035
 30
2.1500816345214844
 11
-0.7732146978378296
 21
-2.7571730613708496
 31
5.7398834228515625
 12
-0.7732146978378296
 22
-2.5666110515594482
 32
5.7398834228515625
 13
-0.7732144594192505
 23
-2.5666229724884033
 33
2.1500818729400635
  0
3DFACE
  8
0
 10
-1.7519792318344116
 20
-2.1254618167877197
 30
2.1500816345214844
 11
-1.7519793510437012
 21
-2.193082332611084
 31
2.1500816345214844
 12
-1.7519795894622803
 22
-2.2692291736602783
 32
4.788349151611328
 13
-1.7519795894622803
 23
-2.1254618167877197
 33
4.788349151611328
  0
3DFACE
  8
0
 10
-1.7519793510437012
 20
-2.193082332611084
 30
2.1500816345214844
 11
-1.7519793510437012
 21
-2.5666158199310303
 31
2.1500818729400635
 12
-1.7519795894622803
 22
-2.566603899002075
 32
4.788349151611328
 13
-1.7519795894622803
 23
-2.2692291736602783
 33
4.788349151611328
  0
3DFACE
  8
0
 10
2.704622983932495
 20
-2.269228935241699
 30
3.830113410949707
 11
2.704622983932495
 21
-2.1254615783691406
 31
3.830113410949707
 12
3.22351336479187
 22
-2.2692294120788574
 32
3.5354299545288086
 13
3.22351336479187
 23
-2.2692294120788574
 33
3.5354299545288086
  0
3DFACE
  8
0
 10
2.746839761734009
 20
-0.8414440155029297
 30
0.8701224327087402
 11
2.746839761734009
 21
-0.8414440155029297
 31
0.5902676582336426
 12
2.746839761734009
 22
-0.36869049072265625
 32
0.5902676582336426
 13
2.746839761734009
 23
-0.36869049072265625
 33
0.8701224327087402
  0
3DFACE
  8
0
 10
-1.00319504737854
 20
-2.6441726684570312
 30
3.801973581314087
 11
-1.00319504737854
 21
-2.566840410232544
 31
3.801973581314087
 12
-0.9932022094726562
 22
-2.566840410232544
 32
3.8305327892303467
 13
-0.9932022094726562
 23
-2.6541965007781982
 33
3.8305327892303467
  0
3DFACE
  8
0
 10
-1.5369199514389038
 20
-2.6441726684570312
 30
3.801973581314087
 11
-1.5469335317611694
 21
-2.6541965007781982
 31
3.8305327892303467
 12
-1.5469335317611694
 22
-2.566840171813965
 32
3.8305327892303467
 13
-1.5369199514389038
 23
-2.566840171813965
 33
3.801973581314087
  0
3DFACE
  8
0
 10
-0.9932022094726562
 20
-2.6541965007781982
 30
3.8305327892303467
 11
-0.9932022094726562
 21
-2.566840410232544
 31
3.8305327892303467
 12
-1.5469335317611694
 22
-2.566840171813965
 32
3.8305327892303467
 13
-1.5469335317611694
 23
-2.6541965007781982
 33
3.8305327892303467
  0
3DFACE
  8
0
 10
-1.5369199514389038
 20
-2.6441726684570312
 30
3.801973581314087
 11
-1.5369199514389038
 21
-2.566840171813965
 31
3.801973581314087
 12
-1.00319504737854
 22
-2.566840410232544
 32
3.801973581314087
 13
-1.00319504737854
 23
-2.6441726684570312
 33
3.801973581314087
  0
3DFACE
  8
0
 10
-1.5469335317611694
 20
-2.6541965007781982
 30
3.8305327892303467
 11
-1.5369199514389038
 21
-2.6441726684570312
 31
3.801973581314087
 12
-1.00319504737854
 22
-2.6441726684570312
 32
3.801973581314087
 13
-0.9932022094726562
 23
-2.6541965007781982
 33
3.8305327892303467
  0
3DFACE
  8
0
 10
-1.4830414056777954
 20
-2.593639612197876
 30
4.64998722076416
 11
-1.4830414056777954
 21
-2.566840171813965
 31
4.64998722076416
 12
-1.4830414056777954
 22
-2.566840171813965
 32
3.8305327892303467
 13
-1.4830414056777954
 23
-2.593639612197876
 33
3.8305327892303467
  0
3DFACE
  8
0
 10
-1.0570942163467407
 20
-2.593640089035034
 30
3.8305327892303467
 11
-1.0570942163467407
 21
-2.566840171813965
 31
3.8305327892303467
 12
-1.0570942163467407
 22
-2.566840171813965
 32
4.64998722076416
 13
-1.0570942163467407
 23
-2.593639850616455
 33
4.64998722076416
  0
3DFACE
  8
0
 10
-1.4830414056777954
 20
-2.566840171813965
 30
4.64998722076416
 11
-1.4830414056777954
 21
-2.593639612197876
 31
4.64998722076416
 12
-1.0570942163467407
 22
-2.593639850616455
 32
4.64998722076416
 13
-1.0570942163467407
 23
-2.566840171813965
 33
4.64998722076416
  0
3DFACE
  8
0
 10
-1.0911412239074707
 20
-2.607497453689575
 30
3.8573899269104004
 11
-1.1090338230133057
 21
-2.581096649169922
 31
3.8726706504821777
 12
-1.4311017990112305
 22
-2.581096649169922
 32
3.8726706504821777
 13
-1.4489943981170654
 23
-2.607497215270996
 33
3.8573899269104004
  0
3DFACE
  8
0
 10
-1.4489943981170654
 20
-2.607497215270996
 30
4.621427536010742
 11
-1.4311017990112305
 21
-2.581096649169922
 31
4.606146812438965
 12
-1.1090338230133057
 22
-2.581096649169922
 32
4.606146812438965
 13
-1.0911412239074707
 23
-2.607497215270996
 33
4.621427536010742
  0
3DFACE
  8
0
 10
-1.0911412239074707
 20
-2.607497215270996
 30
4.621427536010742
 11
-1.1090338230133057
 21
-2.581096649169922
 31
4.606146812438965
 12
-1.1090338230133057
 22
-2.581096649169922
 32
3.8726706504821777
 13
-1.0911412239074707
 23
-2.607497453689575
 33
3.8573899269104004
  0
3DFACE
  8
0
 10
-1.4489943981170654
 20
-2.607497215270996
 30
3.8573899269104004
 11
-1.4311017990112305
 21
-2.581096649169922
 31
3.8726706504821777
 12
-1.4311017990112305
 22
-2.581096649169922
 32
4.606146812438965
 13
-1.4489943981170654
 23
-2.607497215270996
 33
4.621427536010742
  0
3DFACE
  8
0
 10
-1.4489943981170654
 20
-2.607497215270996
 30
4.621427536010742
 11
-1.4830414056777954
 21
-2.593639612197876
 31
4.64998722076416
 12
-1.4830414056777954
 22
-2.593639612197876
 32
3.8305327892303467
 13
-1.4489943981170654
 23
-2.607497215270996
 33
3.8573899269104004
  0
3DFACE
  8
0
 10
-1.0570942163467407
 20
-2.593639850616455
 30
4.64998722076416
 11
-1.0911412239074707
 21
-2.607497215270996
 31
4.621427536010742
 12
-1.0911412239074707
 22
-2.607497453689575
 32
3.8573899269104004
 13
-1.0570942163467407
 23
-2.593640089035034
 33
3.8305327892303467
  0
3DFACE
  8
0
 10
-1.4830414056777954
 20
-2.593639612197876
 30
4.64998722076416
 11
-1.4489943981170654
 21
-2.607497215270996
 31
4.621427536010742
 12
-1.0911412239074707
 22
-2.607497215270996
 32
4.621427536010742
 13
-1.0570942163467407
 23
-2.593639850616455
 33
4.64998722076416
  0
3DFACE
  8
0
 10
-1.0570942163467407
 20
-2.593640089035034
 30
3.8305327892303467
 11
-1.0911412239074707
 21
-2.607497453689575
 31
3.8573899269104004
 12
-1.4489943981170654
 22
-2.607497215270996
 32
3.8573899269104004
 13
-1.4830414056777954
 23
-2.593639612197876
 33
3.8305327892303467
  0
3DFACE
  8
0
 10
-1.1090338230133057
 20
-2.581096649169922
 30
3.8726706504821777
 11
-1.1090338230133057
 21
-2.581096649169922
 31
4.606146812438965
 12
-1.4311017990112305
 22
-2.581096649169922
 32
4.606146812438965
 13
-1.4311017990112305
 23
-2.581096649169922
 33
3.8726706504821777
  0
3DFACE
  8
0
 10
1.5677562952041626
 20
-2.6441726684570312
 30
3.801973581314087
 11
1.5677562952041626
 21
-2.566840410232544
 31
3.801973581314087
 12
1.5777491331100464
 22
-2.566840410232544
 32
3.8305327892303467
 13
1.5777491331100464
 23
-2.6541965007781982
 33
3.8305327892303467
  0
3DFACE
  8
0
 10
1.0340313911437988
 20
-2.6441726684570312
 30
3.801973581314087
 11
1.0240178108215332
 21
-2.6541965007781982
 31
3.8305327892303467
 12
1.0240178108215332
 22
-2.566840171813965
 32
3.8305327892303467
 13
1.0340313911437988
 23
-2.566840171813965
 33
3.801973581314087
  0
3DFACE
  8
0
 10
1.5777491331100464
 20
-2.6541965007781982
 30
3.8305327892303467
 11
1.5777491331100464
 21
-2.566840410232544
 31
3.8305327892303467
 12
1.0240178108215332
 22
-2.566840171813965
 32
3.8305327892303467
 13
1.0240178108215332
 23
-2.6541965007781982
 33
3.8305327892303467
  0
3DFACE
  8
0
 10
1.0340313911437988
 20
-2.6441726684570312
 30
3.801973581314087
 11
1.0340313911437988
 21
-2.566840171813965
 31
3.801973581314087
 12
1.5677562952041626
 22
-2.566840410232544
 32
3.801973581314087
 13
1.5677562952041626
 23
-2.6441726684570312
 33
3.801973581314087
  0
3DFACE
  8
0
 10
1.0240178108215332
 20
-2.6541965007781982
 30
3.8305327892303467
 11
1.0340313911437988
 21
-2.6441726684570312
 31
3.801973581314087
 12
1.5677562952041626
 22
-2.6441726684570312
 32
3.801973581314087
 13
1.5777491331100464
 23
-2.6541965007781982
 33
3.8305327892303467
  0
3DFACE
  8
0
 10
1.0879098176956177
 20
-2.593639612197876
 30
4.64998722076416
 11
1.0879098176956177
 21
-2.566840171813965
 31
4.64998722076416
 12
1.0879098176956177
 22
-2.566840171813965
 32
3.8305327892303467
 13
1.0879098176956177
 23
-2.593639612197876
 33
3.8305327892303467
  0
3DFACE
  8
0
 10
1.5138570070266724
 20
-2.593640089035034
 30
3.8305327892303467
 11
1.5138570070266724
 21
-2.566840171813965
 31
3.8305327892303467
 12
1.5138570070266724
 22
-2.566840171813965
 32
4.64998722076416
 13
1.5138570070266724
 23
-2.593639850616455
 33
4.64998722076416
  0
3DFACE
  8
0
 10
1.0879098176956177
 20
-2.566840171813965
 30
4.64998722076416
 11
1.0879098176956177
 21
-2.593639612197876
 31
4.64998722076416
 12
1.5138570070266724
 22
-2.593639850616455
 32
4.64998722076416
 13
1.5138570070266724
 23
-2.566840171813965
 33
4.64998722076416
  0
3DFACE
  8
0
 10
1.479810118675232
 20
-2.607497453689575
 30
3.8573899269104004
 11
1.4619174003601074
 21
-2.581096649169922
 31
3.8726706504821777
 12
1.1398494243621826
 22
-2.581096649169922
 32
3.8726706504821777
 13
1.1219568252563477
 23
-2.607497215270996
 33
3.8573899269104004
  0
3DFACE
  8
0
 10
1.1219568252563477
 20
-2.607497215270996
 30
4.621427536010742
 11
1.1398494243621826
 21
-2.581096649169922
 31
4.606146812438965
 12
1.4619174003601074
 22
-2.581096649169922
 32
4.606146812438965
 13
1.479810118675232
 23
-2.607497215270996
 33
4.621427536010742
  0
3DFACE
  8
0
 10
1.479810118675232
 20
-2.607497215270996
 30
4.621427536010742
 11
1.4619174003601074
 21
-2.581096649169922
 31
4.606146812438965
 12
1.4619174003601074
 22
-2.581096649169922
 32
3.8726706504821777
 13
1.479810118675232
 23
-2.607497453689575
 33
3.8573899269104004
  0
3DFACE
  8
0
 10
1.1219568252563477
 20
-2.607497215270996
 30
3.8573899269104004
 11
1.1398494243621826
 21
-2.581096649169922
 31
3.8726706504821777
 12
1.1398494243621826
 22
-2.581096649169922
 32
4.606146812438965
 13
1.1219568252563477
 23
-2.607497215270996
 33
4.621427536010742
  0
3DFACE
  8
0
 10
1.1219568252563477
 20
-2.607497215270996
 30
4.621427536010742
 11
1.0879098176956177
 21
-2.593639612197876
 31
4.64998722076416
 12
1.0879098176956177
 22
-2.593639612197876
 32
3.8305327892303467
 13
1.1219568252563477
 23
-2.607497215270996
 33
3.8573899269104004
  0
3DFACE
  8
0
 10
1.5138570070266724
 20
-2.593639850616455
 30
4.64998722076416
 11
1.479810118675232
 21
-2.607497215270996
 31
4.621427536010742
 12
1.479810118675232
 22
-2.607497453689575
 32
3.8573899269104004
 13
1.5138570070266724
 23
-2.593640089035034
 33
3.8305327892303467
  0
3DFACE
  8
0
 10
1.0879098176956177
 20
-2.593639612197876
 30
4.64998722076416
 11
1.1219568252563477
 21
-2.607497215270996
 31
4.621427536010742
 12
1.479810118675232
 22
-2.607497215270996
 32
4.621427536010742
 13
1.5138570070266724
 23
-2.593639850616455
 33
4.64998722076416
  0
3DFACE
  8
0
 10
1.5138570070266724
 20
-2.593640089035034
 30
3.8305327892303467
 11
1.479810118675232
 21
-2.607497453689575
 31
3.8573899269104004
 12
1.1219568252563477
 22
-2.607497215270996
 32
3.8573899269104004
 13
1.0879098176956177
 23
-2.593639612197876
 33
3.8305327892303467
  0
3DFACE
  8
0
 10
1.4619174003601074
 20
-2.581096649169922
 30
3.8726706504821777
 11
1.4619174003601074
 21
-2.581096649169922
 31
4.606146812438965
 12
1.1398494243621826
 22
-2.581096649169922
 32
4.606146812438965
 13
1.1398494243621826
 23
-2.581096649169922
 33
3.8726706504821777
  0
3DFACE
  8
0
 10
2.7815101146698
 20
-0.29141420125961304
 30
2.519446611404419
 11
2.7041778564453125
 21
-0.29141420125961304
 31
2.519446611404419
 12
2.7041778564453125
 22
-0.28142136335372925
 32
2.548006057739258
 13
2.791533946990967
 23
-0.28142136335372925
 33
2.548006057739258
  0
3DFACE
  8
0
 10
2.7815101146698
 20
-0.8251391649246216
 30
2.519446611404419
 11
2.791533946990967
 21
-0.8351527452468872
 31
2.548006057739258
 12
2.7041778564453125
 22
-0.8351527452468872
 32
2.548006057739258
 13
2.7041778564453125
 23
-0.8251391649246216
 33
2.519446611404419
  0
3DFACE
  8
0
 10
2.791533946990967
 20
-0.28142136335372925
 30
2.548006057739258
 11
2.7041778564453125
 21
-0.28142136335372925
 31
2.548006057739258
 12
2.7041778564453125
 22
-0.8351527452468872
 32
2.548006057739258
 13
2.791533946990967
 23
-0.8351527452468872
 33
2.548006057739258
  0
3DFACE
  8
0
 10
2.7815101146698
 20
-0.8251391649246216
 30
2.519446611404419
 11
2.7041778564453125
 21
-0.8251391649246216
 31
2.519446611404419
 12
2.7041778564453125
 22
-0.29141420125961304
 32
2.519446611404419
 13
2.7815101146698
 23
-0.29141420125961304
 33
2.519446611404419
  0
3DFACE
  8
0
 10
2.791533946990967
 20
-0.8351527452468872
 30
2.548006057739258
 11
2.7815101146698
 21
-0.8251391649246216
 31
2.519446611404419
 12
2.7815101146698
 22
-0.29141420125961304
 32
2.519446611404419
 13
2.791533946990967
 23
-0.28142136335372925
 33
2.548006057739258
  0
3DFACE
  8
0
 10
2.7309770584106445
 20
-0.7712606191635132
 30
3.3674604892730713
 11
2.7041778564453125
 21
-0.7712606191635132
 31
3.3674604892730713
 12
2.7041778564453125
 22
-0.7712606191635132
 32
2.548006057739258
 13
2.7309770584106445
 23
-0.7712606191635132
 33
2.548006057739258
  0
3DFACE
  8
0
 10
2.7309775352478027
 20
-0.3453133702278137
 30
2.548006057739258
 11
2.7041776180267334
 21
-0.3453133702278137
 31
2.548006057739258
 12
2.7041776180267334
 22
-0.3453133702278137
 32
3.3674604892730713
 13
2.7309772968292236
 23
-0.3453133702278137
 33
3.3674604892730713
  0
3DFACE
  8
0
 10
2.7041778564453125
 20
-0.7712606191635132
 30
3.3674604892730713
 11
2.7309770584106445
 21
-0.7712606191635132
 31
3.3674604892730713
 12
2.7309772968292236
 22
-0.3453133702278137
 32
3.3674604892730713
 13
2.7041776180267334
 23
-0.3453133702278137
 33
3.3674604892730713
  0
3DFACE
  8
0
 10
2.7448348999023438
 20
-0.3793603777885437
 30
2.5748631954193115
 11
2.7184340953826904
 21
-0.39725297689437866
 31
2.590143918991089
 12
2.7184340953826904
 22
-0.7193210124969482
 32
2.590143918991089
 13
2.7448346614837646
 23
-0.7372136116027832
 33
2.5748631954193115
  0
3DFACE
  8
0
 10
2.7448346614837646
 20
-0.7372136116027832
 30
3.3389010429382324
 11
2.7184340953826904
 21
-0.7193210124969482
 31
3.323620319366455
 12
2.7184340953826904
 22
-0.39725297689437866
 32
3.323620319366455
 13
2.7448346614837646
 23
-0.3793603777885437
 33
3.3389010429382324
  0
3DFACE
  8
0
 10
2.7448346614837646
 20
-0.3793603777885437
 30
3.3389010429382324
 11
2.7184340953826904
 21
-0.39725297689437866
 31
3.323620319366455
 12
2.7184340953826904
 22
-0.39725297689437866
 32
2.590143918991089
 13
2.7448348999023438
 23
-0.3793603777885437
 33
2.5748631954193115
  0
3DFACE
  8
0
 10
2.7448346614837646
 20
-0.7372136116027832
 30
2.5748631954193115
 11
2.7184340953826904
 21
-0.7193210124969482
 31
2.590143918991089
 12
2.7184340953826904
 22
-0.7193210124969482
 32
3.323620319366455
 13
2.7448346614837646
 23
-0.7372136116027832
 33
3.3389010429382324
  0
3DFACE
  8
0
 10
2.7448346614837646
 20
-0.7372136116027832
 30
3.3389010429382324
 11
2.7309770584106445
 21
-0.7712606191635132
 31
3.3674604892730713
 12
2.7309770584106445
 22
-0.7712606191635132
 32
2.548006057739258
 13
2.7448346614837646
 23
-0.7372136116027832
 33
2.5748631954193115
  0
3DFACE
  8
0
 10
2.7309772968292236
 20
-0.3453133702278137
 30
3.3674604892730713
 11
2.7448346614837646
 21
-0.3793603777885437
 31
3.3389010429382324
 12
2.7448348999023438
 22
-0.3793603777885437
 32
2.5748631954193115
 13
2.7309775352478027
 23
-0.3453133702278137
 33
2.548006057739258
  0
3DFACE
  8
0
 10
2.7309770584106445
 20
-0.7712606191635132
 30
3.3674604892730713
 11
2.7448346614837646
 21
-0.7372136116027832
 31
3.3389010429382324
 12
2.7448346614837646
 22
-0.3793603777885437
 32
3.3389010429382324
 13
2.7309772968292236
 23
-0.3453133702278137
 33
3.3674604892730713
  0
3DFACE
  8
0
 10
2.7309775352478027
 20
-0.3453133702278137
 30
2.548006057739258
 11
2.7448348999023438
 21
-0.3793603777885437
 31
2.5748631954193115
 12
2.7448346614837646
 22
-0.7372136116027832
 32
2.5748631954193115
 13
2.7309770584106445
 23
-0.7712606191635132
 33
2.548006057739258
  0
3DFACE
  8
0
 10
2.7184340953826904
 20
-0.39725297689437866
 30
2.590143918991089
 11
2.7184340953826904
 21
-0.39725297689437866
 31
3.323620319366455
 12
2.7184340953826904
 22
-0.7193210124969482
 32
3.323620319366455
 13
2.7184340953826904
 23
-0.7193210124969482
 33
2.590143918991089
  0
3DFACE
  8
0
 10
-2.7741541862487793
 20
-0.8251597881317139
 30
2.519446611404419
 11
-2.696821928024292
 21
-0.8251597881317139
 31
2.519446611404419
 12
-2.696821928024292
 22
-0.8351526260375977
 32
2.548006057739258
 13
-2.7841780185699463
 23
-0.8351526260375977
 33
2.548006057739258
  0
3DFACE
  8
0
 10
-2.7741541862487793
 20
-0.2914348244667053
 30
2.519446611404419
 11
-2.7841780185699463
 21
-0.2814212441444397
 31
2.548006057739258
 12
-2.696821928024292
 22
-0.2814212441444397
 32
2.548006057739258
 13
-2.696821928024292
 23
-0.2914348244667053
 33
2.519446611404419
  0
3DFACE
  8
0
 10
-2.7841780185699463
 20
-0.8351526260375977
 30
2.548006057739258
 11
-2.696821928024292
 21
-0.8351526260375977
 31
2.548006057739258
 12
-2.696821928024292
 22
-0.2814212441444397
 32
2.548006057739258
 13
-2.7841780185699463
 23
-0.2814212441444397
 33
2.548006057739258
  0
3DFACE
  8
0
 10
-2.7741541862487793
 20
-0.2914348244667053
 30
2.519446611404419
 11
-2.696821928024292
 21
-0.2914348244667053
 31
2.519446611404419
 12
-2.696821928024292
 22
-0.8251597881317139
 32
2.519446611404419
 13
-2.7741541862487793
 23
-0.8251597881317139
 33
2.519446611404419
  0
3DFACE
  8
0
 10
-2.7841780185699463
 20
-0.2814212441444397
 30
2.548006057739258
 11
-2.7741541862487793
 21
-0.2914348244667053
 31
2.519446611404419
 12
-2.7741541862487793
 22
-0.8251597881317139
 32
2.519446611404419
 13
-2.7841780185699463
 23
-0.8351526260375977
 33
2.548006057739258
  0
3DFACE
  8
0
 10
-2.723621129989624
 20
-0.3453133702278137
 30
3.3674604892730713
 11
-2.696821928024292
 21
-0.3453133702278137
 31
3.3674604892730713
 12
-2.696821928024292
 22
-0.3453133702278137
 32
2.548006057739258
 13
-2.723621129989624
 23
-0.3453133702278137
 33
2.548006057739258
  0
3DFACE
  8
0
 10
-2.7236216068267822
 20
-0.7712606191635132
 30
2.548006057739258
 11
-2.696821689605713
 21
-0.7712606191635132
 31
2.548006057739258
 12
-2.696821689605713
 22
-0.7712606191635132
 32
3.3674604892730713
 13
-2.723621368408203
 23
-0.7712606191635132
 33
3.3674604892730713
  0
3DFACE
  8
0
 10
-2.696821928024292
 20
-0.3453133702278137
 30
3.3674604892730713
 11
-2.723621129989624
 21
-0.3453133702278137
 31
3.3674604892730713
 12
-2.723621368408203
 22
-0.7712606191635132
 32
3.3674604892730713
 13
-2.696821689605713
 23
-0.7712606191635132
 33
3.3674604892730713
  0
3DFACE
  8
0
 10
-2.7374789714813232
 20
-0.7372136116027832
 30
2.5748631954193115
 11
-2.71107816696167
 21
-0.7193210124969482
 31
2.590143918991089
 12
-2.71107816696167
 22
-0.39725297689437866
 32
2.590143918991089
 13
-2.737478733062744
 23
-0.3793603777885437
 33
2.5748631954193115
  0
3DFACE
  8
0
 10
-2.737478733062744
 20
-0.3793603777885437
 30
3.3389010429382324
 11
-2.71107816696167
 21
-0.39725297689437866
 31
3.323620319366455
 12
-2.71107816696167
 22
-0.7193210124969482
 32
3.323620319366455
 13
-2.737478733062744
 23
-0.7372136116027832
 33
3.3389010429382324
  0
3DFACE
  8
0
 10
-2.737478733062744
 20
-0.7372136116027832
 30
3.3389010429382324
 11
-2.71107816696167
 21
-0.7193210124969482
 31
3.323620319366455
 12
-2.71107816696167
 22
-0.7193210124969482
 32
2.590143918991089
 13
-2.7374789714813232
 23
-0.7372136116027832
 33
2.5748631954193115
  0
3DFACE
  8
0
 10
-2.737478733062744
 20
-0.3793603777885437
 30
2.5748631954193115
 11
-2.71107816696167
 21
-0.39725297689437866
 31
2.590143918991089
 12
-2.71107816696167
 22
-0.39725297689437866
 32
3.323620319366455
 13
-2.737478733062744
 23
-0.3793603777885437
 33
3.3389010429382324
  0
3DFACE
  8
0
 10
-2.737478733062744
 20
-0.3793603777885437
 30
3.3389010429382324
 11
-2.723621129989624
 21
-0.3453133702278137
 31
3.3674604892730713
 12
-2.723621129989624
 22
-0.3453133702278137
 32
2.548006057739258
 13
-2.737478733062744
 23
-0.3793603777885437
 33
2.5748631954193115
  0
3DFACE
  8
0
 10
-2.723621368408203
 20
-0.7712606191635132
 30
3.3674604892730713
 11
-2.737478733062744
 21
-0.7372136116027832
 31
3.3389010429382324
 12
-2.7374789714813232
 22
-0.7372136116027832
 32
2.5748631954193115
 13
-2.7236216068267822
 23
-0.7712606191635132
 33
2.548006057739258
  0
3DFACE
  8
0
 10
-2.723621129989624
 20
-0.3453133702278137
 30
3.3674604892730713
 11
-2.737478733062744
 21
-0.3793603777885437
 31
3.3389010429382324
 12
-2.737478733062744
 22
-0.7372136116027832
 32
3.3389010429382324
 13
-2.723621368408203
 23
-0.7712606191635132
 33
3.3674604892730713
  0
3DFACE
  8
0
 10
-2.7236216068267822
 20
-0.7712606191635132
 30
2.548006057739258
 11
-2.7374789714813232
 21
-0.7372136116027832
 31
2.5748631954193115
 12
-2.737478733062744
 22
-0.3793603777885437
 32
2.5748631954193115
 13
-2.723621129989624
 23
-0.3453133702278137
 33
2.548006057739258
  0
3DFACE
  8
0
 10
-2.71107816696167
 20
-0.7193210124969482
 30
2.590143918991089
 11
-2.71107816696167
 21
-0.7193210124969482
 31
3.323620319366455
 12
-2.71107816696167
 22
-0.39725297689437866
 32
3.323620319366455
 13
-2.71107816696167
 23
-0.39725297689437866
 33
2.590143918991089
  0
3DFACE
  8
0
 10
-0.22340455651283264
 20
-2.227672576904297
 30
1.6639502048492432
 11
-0.22340455651283264
 21
-2.255828857421875
 31
1.6639502048492432
 12
0.23953521251678467
 22
-2.255828857421875
 32
1.6639502048492432
 13
0.23953521251678467
 23
-2.227672576904297
 33
1.6639502048492432
  0
3DFACE
  8
0
 10
0.2395351529121399
 20
-2.227672576904297
 30
0.5540115833282471
 11
0.2395351529121399
 21
-2.255828857421875
 31
0.5540115833282471
 12
-0.22340449690818787
 22
-2.255828857421875
 32
0.5540115833282471
 13
-0.22340449690818787
 23
-2.227672576904297
 33
0.5540115833282471
  0
3DFACE
  8
0
 10
-0.22340449690818787
 20
-2.255828857421875
 30
0.5540115833282471
 11
0.2395351529121399
 21
-2.255828857421875
 31
0.5540115833282471
 12
0.20359522104263306
 22
-2.2733163833618164
 32
0.6010830402374268
 13
-0.18746456503868103
 23
-2.2733163833618164
 33
0.6010830402374268
  0
3DFACE
  8
0
 10
0.23953521251678467
 20
-2.255828857421875
 30
1.6639502048492432
 11
-0.22340455651283264
 21
-2.255828857421875
 31
1.6639502048492432
 12
-0.1874646097421646
 22
-2.2733163833618164
 32
1.6204867362976074
 13
0.20359526574611664
 23
-2.2733163833618164
 33
1.6204867362976074
  0
3DFACE
  8
0
 10
-0.22340449690818787
 20
-2.255828857421875
 30
0.5540115833282471
 11
-0.22340452671051025
 21
-2.255828857421875
 31
1.3604192733764648
 12
-0.22340452671051025
 22
-2.227672576904297
 32
1.3604192733764648
 13
-0.22340449690818787
 23
-2.227672576904297
 33
0.5540115833282471
  0
3DFACE
  8
0
 10
-0.22340452671051025
 20
-2.255828857421875
 30
1.3604192733764648
 11
-0.22340455651283264
 21
-2.255828857421875
 31
1.6639502048492432
 12
-0.22340455651283264
 22
-2.227672576904297
 32
1.6639502048492432
 13
-0.22340452671051025
 23
-2.227672576904297
 33
1.3604192733764648
  0
3DFACE
  8
0
 10
0.23953521251678467
 20
-2.255828857421875
 30
1.6639502048492432
 11
0.23953518271446228
 21
-2.255828857421875
 31
1.3604192733764648
 12
0.23953518271446228
 22
-2.227672576904297
 32
1.3604192733764648
 13
0.23953521251678467
 23
-2.227672576904297
 33
1.6639502048492432
  0
3DFACE
  8
0
 10
0.23953518271446228
 20
-2.255828857421875
 30
1.3604192733764648
 11
0.2395351529121399
 21
-2.255828857421875
 31
0.5540115833282471
 12
0.2395351529121399
 22
-2.227672576904297
 32
0.5540115833282471
 13
0.23953518271446228
 23
-2.227672576904297
 33
1.3604192733764648
  0
3DFACE
  8
0
 10
0.2395351529121399
 20
-2.255828857421875
 30
0.5540115833282471
 11
0.23953518271446228
 21
-2.255828857421875
 31
1.3604192733764648
 12
0.20359525084495544
 22
-2.2733163833618164
 32
1.3209861516952515
 13
0.20359522104263306
 23
-2.2733163833618164
 33
0.6010830402374268
  0
3DFACE
  8
0
 10
0.23953518271446228
 20
-2.255828857421875
 30
1.3604192733764648
 11
0.23953521251678467
 21
-2.255828857421875
 31
1.6639502048492432
 12
0.20359526574611664
 22
-2.2733163833618164
 32
1.6204867362976074
 13
0.20359525084495544
 23
-2.2733163833618164
 33
1.3209861516952515
  0
3DFACE
  8
0
 10
-0.22340455651283264
 20
-2.255828857421875
 30
1.6639502048492432
 11
-0.22340452671051025
 21
-2.255828857421875
 31
1.3604192733764648
 12
-0.18746459484100342
 22
-2.2733163833618164
 32
1.3209861516952515
 13
-0.1874646097421646
 23
-2.2733163833618164
 33
1.6204867362976074
  0
3DFACE
  8
0
 10
-0.22340452671051025
 20
-2.255828857421875
 30
1.3604192733764648
 11
-0.22340449690818787
 21
-2.255828857421875
 31
0.5540115833282471
 12
-0.18746456503868103
 22
-2.2733163833618164
 32
0.6010830402374268
 13
-0.18746459484100342
 23
-2.2733163833618164
 33
1.3209861516952515
  0
3DFACE
  8
0
 10
-0.18746459484100342
 20
-2.2733163833618164
 30
1.3209861516952515
 11
0.20359525084495544
 21
-2.2733163833618164
 31
1.3209861516952515
 12
0.18257349729537964
 22
-2.2419843673706055
 32
1.3492212295532227
 13
-0.1664428412914276
 23
-2.2419843673706055
 33
1.3492212295532227
  0
3DFACE
  8
0
 10
-0.1874646097421646
 20
-2.2733163833618164
 30
1.6204867362976074
 11
-0.18746459484100342
 21
-2.2733163833618164
 31
1.3209861516952515
 12
-0.1664428412914276
 22
-2.2419843673706055
 32
1.3492212295532227
 13
-0.1664428412914276
 23
-2.2419843673706055
 33
1.5718929767608643
  0
3DFACE
  8
0
 10
0.20359525084495544
 20
-2.2733163833618164
 30
1.3209861516952515
 11
0.20359526574611664
 21
-2.2733163833618164
 31
1.6204867362976074
 12
0.18257349729537964
 22
-2.2419843673706055
 32
1.5718929767608643
 13
0.18257349729537964
 23
-2.2419843673706055
 33
1.3492212295532227
  0
3DFACE
  8
0
 10
0.20359526574611664
 20
-2.2733163833618164
 30
1.6204867362976074
 11
-0.1874646097421646
 21
-2.2733163833618164
 31
1.6204867362976074
 12
-0.1664428412914276
 22
-2.2419843673706055
 32
1.5718929767608643
 13
0.18257349729537964
 23
-2.2419843673706055
 33
1.5718929767608643
  0
3DFACE
  8
0
 10
-0.1664428412914276
 20
-2.2419843673706055
 30
1.5718929767608643
 11
-0.1664428412914276
 21
-2.2419843673706055
 31
1.3492212295532227
 12
0.18257349729537964
 22
-2.2419843673706055
 32
1.3492212295532227
 13
0.18257349729537964
 23
-2.2419843673706055
 33
1.5718929767608643
  0
3DFACE
  8
0
 10
0.20359525084495544
 20
-2.2733163833618164
 30
1.3209861516952515
 11
-0.18746459484100342
 21
-2.2733163833618164
 31
1.3209861516952515
 12
-0.1664428412914276
 22
-2.2636003494262695
 32
1.291508674621582
 13
0.18257349729537964
 23
-2.2636003494262695
 33
1.291508674621582
  0
3DFACE
  8
0
 10
-0.18746459484100342
 20
-2.2733163833618164
 30
1.3209861516952515
 11
-0.18746456503868103
 21
-2.2733163833618164
 31
0.6010830402374268
 12
-0.1664428412914276
 22
-2.2636003494262695
 32
0.6598336696624756
 13
-0.1664428412914276
 23
-2.2636003494262695
 33
1.291508674621582
  0
3DFACE
  8
0
 10
0.20359522104263306
 20
-2.2733163833618164
 30
0.6010830402374268
 11
0.20359525084495544
 21
-2.2733163833618164
 31
1.3209861516952515
 12
0.18257349729537964
 22
-2.2636003494262695
 32
1.291508674621582
 13
0.18257349729537964
 23
-2.2636003494262695
 33
0.6598336696624756
  0
3DFACE
  8
0
 10
-0.18746456503868103
 20
-2.2733163833618164
 30
0.6010830402374268
 11
0.20359522104263306
 21
-2.2733163833618164
 31
0.6010830402374268
 12
0.18257349729537964
 22
-2.2636003494262695
 32
0.6598336696624756
 13
-0.1664428412914276
 23
-2.2636003494262695
 33
0.6598336696624756
  0
3DFACE
  8
0
 10
-0.1664428412914276
 20
-2.2636003494262695
 30
0.6598336696624756
 11
0.18257349729537964
 21
-2.2636003494262695
 31
0.6598336696624756
 12
0.18257348239421844
 22
-2.2507736682891846
 32
0.6577584743499756
 13
-0.16644282639026642
 23
-2.2507736682891846
 33
0.6577584743499756
  0
3DFACE
  8
0
 10
0.18257349729537964
 20
-2.2636003494262695
 30
0.6598336696624756
 11
0.18257349729537964
 21
-2.2636003494262695
 31
1.291508674621582
 12
0.18257351219654083
 22
-2.2507736682891846
 32
1.289433479309082
 13
0.18257348239421844
 23
-2.2507736682891846
 33
0.6577584743499756
  0
3DFACE
  8
0
 10
-0.1664428412914276
 20
-2.2636003494262695
 30
1.291508674621582
 11
-0.1664428412914276
 21
-2.2636003494262695
 31
0.6598336696624756
 12
-0.16644282639026642
 22
-2.2507736682891846
 32
0.6577584743499756
 13
-0.1664428561925888
 23
-2.2507736682891846
 33
1.289433479309082
  0
3DFACE
  8
0
 10
0.18257349729537964
 20
-2.2636003494262695
 30
1.291508674621582
 11
-0.1664428412914276
 21
-2.2636003494262695
 31
1.291508674621582
 12
-0.1664428561925888
 22
-2.2507736682891846
 32
1.289433479309082
 13
0.18257351219654083
 23
-2.2507736682891846
 33
1.289433479309082
  0
3DFACE
  8
0
 10
-0.1664428561925888
 20
-2.2507736682891846
 30
1.289433479309082
 11
-0.16644282639026642
 21
-2.2507736682891846
 31
0.6577584743499756
 12
0.18257348239421844
 22
-2.2507736682891846
 32
0.6577584743499756
 13
0.18257351219654083
 23
-2.2507736682891846
 33
1.289433479309082
  0
3DFACE
  8
0
 10
0.1626427322626114
 20
-2.2555365562438965
 30
1.006585717201233
 11
0.1626427322626114
 21
-2.2711098194122314
 31
1.006585717201233
 12
0.08012081682682037
 22
-2.2801313400268555
 32
1.006585717201233
 13
0.08012081682682037
 23
-2.2645578384399414
 33
1.006585717201233
  0
3DFACE
  8
0
 10
0.1626427322626114
 20
-2.2555365562438965
 30
1.0273669958114624
 11
0.1626427322626114
 21
-2.2711098194122314
 31
1.0273669958114624
 12
0.1626427322626114
 22
-2.2711098194122314
 32
1.006585717201233
 13
0.1626427322626114
 23
-2.2555365562438965
 33
1.006585717201233
  0
3DFACE
  8
0
 10
0.08012081682682037
 20
-2.2645578384399414
 30
1.006585717201233
 11
0.08012081682682037
 21
-2.2801313400268555
 31
1.006585717201233
 12
0.08012081682682037
 22
-2.2801313400268555
 32
1.0273669958114624
 13
0.08012081682682037
 23
-2.2645578384399414
 33
1.0273669958114624
  0
3DFACE
  8
0
 10
0.08012081682682037
 20
-2.2645578384399414
 30
1.0273669958114624
 11
0.08012081682682037
 21
-2.2801313400268555
 31
1.0273669958114624
 12
0.1626427322626114
 22
-2.2711098194122314
 32
1.0273669958114624
 13
0.1626427322626114
 23
-2.2555365562438965
 33
1.0273669958114624
  0
3DFACE
  8
0
 10
0.1626427322626114
 20
-2.2711098194122314
 30
1.0273669958114624
 11
0.08012081682682037
 21
-2.2801313400268555
 31
1.0273669958114624
 12
0.08012081682682037
 22
-2.2801313400268555
 32
1.006585717201233
 13
0.1626427322626114
 23
-2.2711098194122314
 33
1.006585717201233
  0
3DFACE
  8
0
 10
3.22351336479187
 20
-2.2692294120788574
 30
3.5354299545288086
 11
2.120393991470337
 21
-2.269228935241699
 31
4.6297502517700195
 12
1.780155897140503
 22
-2.269228935241699
 32
4.788349151611328
 13
1.780155897140503
 23
-2.269228935241699
 33
4.788349151611328
  0
3DFACE
  8
0
 10
2.704622983932495
 20
-2.269228935241699
 30
3.830113410949707
 11
3.22351336479187
 21
-2.2692294120788574
 31
3.5354299545288086
 12
1.780155897140503
 22
-2.269228935241699
 32
4.788349151611328
 13
1.780155897140503
 23
-2.269228935241699
 33
4.788349151611328
  0
3DFACE
  8
0
 10
-2.6969587802886963
 20
-2.269228935241699
 30
3.830113410949707
 11
-1.7519795894622803
 21
-2.2692291736602783
 31
4.788349151611328
 12
-3.187962770462036
 22
-2.2692294120788574
 32
3.5354299545288086
 13
-3.187962770462036
 23
-2.2692294120788574
 33
3.5354299545288086
  0
ENDSEC
  0
EOF
